%
M48
M72
T01C0.0197
T02C0.0236
T03C0.0354
T04C0.0394
T05C0.0400
T06C0.0630
T07C0.1280
T08C0.1400
%
T01
X930Y3829
X2618Y1641
X868Y6704
X1368Y8641
X930Y10391
X930Y12079
X1993Y12704
X1930Y14266
X868Y14266
X1430Y16141
X1618Y17641
X868Y18766
X868Y20516
X2680Y18704
X3243Y17954
X3368Y16516
X3180Y14579
X3618Y13954
X3180Y12954
X2930Y10329
X3743Y8954
X5118Y10829
X4930Y12329
X6180Y12766
X6618Y11891
X7305Y11141
X6618Y9141
X6055Y7891
X6930Y7266
X7805Y7829
X9055Y7766
X9055Y6266
X10805Y6266
X10993Y5516
X11055Y3641
X12430Y1641
X14243Y3641
X14305Y6016
X14368Y7516
X14243Y9079
X13180Y10016
X11993Y9391
X10680Y7766
X9118Y9391
X9805Y10579
X10055Y11579
X10680Y12766
X10993Y12016
X10680Y13829
X9930Y14954
X9930Y15579
X9305Y15579
X9118Y16516
X8243Y16516
X7805Y15579
X7368Y16516
X6993Y15579
X7368Y14579
X6305Y14704
X5680Y15266
X5430Y16204
X5430Y17641
X5430Y18829
X6430Y18829
X6430Y17641
X6430Y16891
X6430Y20391
X5368Y20391
X3368Y20391
X7493Y20391
X8555Y20391
X9680Y20391
X9930Y19579
X9930Y18641
X9930Y17829
X9930Y16516
X8993Y14579
X8680Y10829
X12368Y14079
X12368Y14829
X13243Y14579
X13180Y16391
X13305Y17704
X14368Y18766
X13493Y20016
X12743Y20516
X14368Y16391
X14368Y14516
X14430Y12891
X12680Y5704
X6805Y1641
T02
X12055Y12704
X11555Y13329
X12055Y19204
X11805Y19954
X6430Y16079
X3180Y15204
X2680Y16204
T03
X5430Y6704
X4930Y5704
X5930Y5704
X6430Y6704
X6930Y5704
X7430Y6704
X7930Y5704
X8430Y6704
T04
X13280Y13704
X14080Y13704
X13680Y10704
T05
X2820Y17174
X2820Y19734
X1040Y19734
X1040Y17174
T06
X3830Y2004
X9530Y2004
T07
X8930Y3204
X4430Y3204
T08
X1430Y2454
X13805Y2204
X13805Y21954
X1555Y21954
M30
