G75*
%MOIN*%
%OFA0B0*%
%FSLAX24Y24*%
%IPPOS*%
%LPD*%
%AMOC8*
5,1,8,0,0,1.08239X$1,22.5*
%
%ADD10C,0.0000*%
%ADD11C,0.0100*%
%ADD12R,0.0591X0.0512*%
%ADD13R,0.0512X0.0591*%
%ADD14C,0.0394*%
%ADD15R,0.0630X0.0945*%
%ADD16C,0.0654*%
%ADD17C,0.0945*%
%ADD18R,0.0236X0.0866*%
%ADD19R,0.1181X0.0472*%
%ADD20R,0.0472X0.1181*%
%ADD21R,0.0551X0.0472*%
%ADD22R,0.0787X0.0591*%
%ADD23R,0.0787X0.1496*%
%ADD24R,0.0591X0.0787*%
%ADD25R,0.1496X0.0787*%
%ADD26C,0.0740*%
%ADD27R,0.0945X0.0630*%
%ADD28C,0.0310*%
%ADD29C,0.0160*%
%ADD30C,0.0497*%
%ADD31C,0.0400*%
%ADD32C,0.0120*%
%ADD33C,0.0240*%
%ADD34C,0.0320*%
%ADD35C,0.0536*%
%ADD36C,0.0080*%
D10*
X000180Y000954D02*
X000180Y023325D01*
X015050Y023325D01*
X015050Y000954D01*
X000180Y000954D01*
X000730Y002454D02*
X000732Y002506D01*
X000738Y002558D01*
X000748Y002610D01*
X000761Y002660D01*
X000778Y002710D01*
X000799Y002758D01*
X000824Y002804D01*
X000852Y002848D01*
X000883Y002890D01*
X000917Y002930D01*
X000954Y002967D01*
X000994Y003001D01*
X001036Y003032D01*
X001080Y003060D01*
X001126Y003085D01*
X001174Y003106D01*
X001224Y003123D01*
X001274Y003136D01*
X001326Y003146D01*
X001378Y003152D01*
X001430Y003154D01*
X001482Y003152D01*
X001534Y003146D01*
X001586Y003136D01*
X001636Y003123D01*
X001686Y003106D01*
X001734Y003085D01*
X001780Y003060D01*
X001824Y003032D01*
X001866Y003001D01*
X001906Y002967D01*
X001943Y002930D01*
X001977Y002890D01*
X002008Y002848D01*
X002036Y002804D01*
X002061Y002758D01*
X002082Y002710D01*
X002099Y002660D01*
X002112Y002610D01*
X002122Y002558D01*
X002128Y002506D01*
X002130Y002454D01*
X002128Y002402D01*
X002122Y002350D01*
X002112Y002298D01*
X002099Y002248D01*
X002082Y002198D01*
X002061Y002150D01*
X002036Y002104D01*
X002008Y002060D01*
X001977Y002018D01*
X001943Y001978D01*
X001906Y001941D01*
X001866Y001907D01*
X001824Y001876D01*
X001780Y001848D01*
X001734Y001823D01*
X001686Y001802D01*
X001636Y001785D01*
X001586Y001772D01*
X001534Y001762D01*
X001482Y001756D01*
X001430Y001754D01*
X001378Y001756D01*
X001326Y001762D01*
X001274Y001772D01*
X001224Y001785D01*
X001174Y001802D01*
X001126Y001823D01*
X001080Y001848D01*
X001036Y001876D01*
X000994Y001907D01*
X000954Y001941D01*
X000917Y001978D01*
X000883Y002018D01*
X000852Y002060D01*
X000824Y002104D01*
X000799Y002150D01*
X000778Y002198D01*
X000761Y002248D01*
X000748Y002298D01*
X000738Y002350D01*
X000732Y002402D01*
X000730Y002454D01*
X003790Y003204D02*
X003792Y003254D01*
X003798Y003304D01*
X003808Y003353D01*
X003821Y003402D01*
X003839Y003449D01*
X003860Y003495D01*
X003884Y003538D01*
X003912Y003580D01*
X003943Y003620D01*
X003977Y003657D01*
X004014Y003691D01*
X004054Y003722D01*
X004096Y003750D01*
X004139Y003774D01*
X004185Y003795D01*
X004232Y003813D01*
X004281Y003826D01*
X004330Y003836D01*
X004380Y003842D01*
X004430Y003844D01*
X004480Y003842D01*
X004530Y003836D01*
X004579Y003826D01*
X004628Y003813D01*
X004675Y003795D01*
X004721Y003774D01*
X004764Y003750D01*
X004806Y003722D01*
X004846Y003691D01*
X004883Y003657D01*
X004917Y003620D01*
X004948Y003580D01*
X004976Y003538D01*
X005000Y003495D01*
X005021Y003449D01*
X005039Y003402D01*
X005052Y003353D01*
X005062Y003304D01*
X005068Y003254D01*
X005070Y003204D01*
X005068Y003154D01*
X005062Y003104D01*
X005052Y003055D01*
X005039Y003006D01*
X005021Y002959D01*
X005000Y002913D01*
X004976Y002870D01*
X004948Y002828D01*
X004917Y002788D01*
X004883Y002751D01*
X004846Y002717D01*
X004806Y002686D01*
X004764Y002658D01*
X004721Y002634D01*
X004675Y002613D01*
X004628Y002595D01*
X004579Y002582D01*
X004530Y002572D01*
X004480Y002566D01*
X004430Y002564D01*
X004380Y002566D01*
X004330Y002572D01*
X004281Y002582D01*
X004232Y002595D01*
X004185Y002613D01*
X004139Y002634D01*
X004096Y002658D01*
X004054Y002686D01*
X004014Y002717D01*
X003977Y002751D01*
X003943Y002788D01*
X003912Y002828D01*
X003884Y002870D01*
X003860Y002913D01*
X003839Y002959D01*
X003821Y003006D01*
X003808Y003055D01*
X003798Y003104D01*
X003792Y003154D01*
X003790Y003204D01*
X008290Y003204D02*
X008292Y003254D01*
X008298Y003304D01*
X008308Y003353D01*
X008321Y003402D01*
X008339Y003449D01*
X008360Y003495D01*
X008384Y003538D01*
X008412Y003580D01*
X008443Y003620D01*
X008477Y003657D01*
X008514Y003691D01*
X008554Y003722D01*
X008596Y003750D01*
X008639Y003774D01*
X008685Y003795D01*
X008732Y003813D01*
X008781Y003826D01*
X008830Y003836D01*
X008880Y003842D01*
X008930Y003844D01*
X008980Y003842D01*
X009030Y003836D01*
X009079Y003826D01*
X009128Y003813D01*
X009175Y003795D01*
X009221Y003774D01*
X009264Y003750D01*
X009306Y003722D01*
X009346Y003691D01*
X009383Y003657D01*
X009417Y003620D01*
X009448Y003580D01*
X009476Y003538D01*
X009500Y003495D01*
X009521Y003449D01*
X009539Y003402D01*
X009552Y003353D01*
X009562Y003304D01*
X009568Y003254D01*
X009570Y003204D01*
X009568Y003154D01*
X009562Y003104D01*
X009552Y003055D01*
X009539Y003006D01*
X009521Y002959D01*
X009500Y002913D01*
X009476Y002870D01*
X009448Y002828D01*
X009417Y002788D01*
X009383Y002751D01*
X009346Y002717D01*
X009306Y002686D01*
X009264Y002658D01*
X009221Y002634D01*
X009175Y002613D01*
X009128Y002595D01*
X009079Y002582D01*
X009030Y002572D01*
X008980Y002566D01*
X008930Y002564D01*
X008880Y002566D01*
X008830Y002572D01*
X008781Y002582D01*
X008732Y002595D01*
X008685Y002613D01*
X008639Y002634D01*
X008596Y002658D01*
X008554Y002686D01*
X008514Y002717D01*
X008477Y002751D01*
X008443Y002788D01*
X008412Y002828D01*
X008384Y002870D01*
X008360Y002913D01*
X008339Y002959D01*
X008321Y003006D01*
X008308Y003055D01*
X008298Y003104D01*
X008292Y003154D01*
X008290Y003204D01*
X013483Y010704D02*
X013485Y010731D01*
X013491Y010758D01*
X013500Y010784D01*
X013513Y010808D01*
X013529Y010831D01*
X013548Y010850D01*
X013570Y010867D01*
X013594Y010881D01*
X013619Y010891D01*
X013646Y010898D01*
X013673Y010901D01*
X013701Y010900D01*
X013728Y010895D01*
X013754Y010887D01*
X013778Y010875D01*
X013801Y010859D01*
X013822Y010841D01*
X013839Y010820D01*
X013854Y010796D01*
X013865Y010771D01*
X013873Y010745D01*
X013877Y010718D01*
X013877Y010690D01*
X013873Y010663D01*
X013865Y010637D01*
X013854Y010612D01*
X013839Y010588D01*
X013822Y010567D01*
X013801Y010549D01*
X013779Y010533D01*
X013754Y010521D01*
X013728Y010513D01*
X013701Y010508D01*
X013673Y010507D01*
X013646Y010510D01*
X013619Y010517D01*
X013594Y010527D01*
X013570Y010541D01*
X013548Y010558D01*
X013529Y010577D01*
X013513Y010600D01*
X013500Y010624D01*
X013491Y010650D01*
X013485Y010677D01*
X013483Y010704D01*
X013083Y013704D02*
X013085Y013731D01*
X013091Y013758D01*
X013100Y013784D01*
X013113Y013808D01*
X013129Y013831D01*
X013148Y013850D01*
X013170Y013867D01*
X013194Y013881D01*
X013219Y013891D01*
X013246Y013898D01*
X013273Y013901D01*
X013301Y013900D01*
X013328Y013895D01*
X013354Y013887D01*
X013378Y013875D01*
X013401Y013859D01*
X013422Y013841D01*
X013439Y013820D01*
X013454Y013796D01*
X013465Y013771D01*
X013473Y013745D01*
X013477Y013718D01*
X013477Y013690D01*
X013473Y013663D01*
X013465Y013637D01*
X013454Y013612D01*
X013439Y013588D01*
X013422Y013567D01*
X013401Y013549D01*
X013379Y013533D01*
X013354Y013521D01*
X013328Y013513D01*
X013301Y013508D01*
X013273Y013507D01*
X013246Y013510D01*
X013219Y013517D01*
X013194Y013527D01*
X013170Y013541D01*
X013148Y013558D01*
X013129Y013577D01*
X013113Y013600D01*
X013100Y013624D01*
X013091Y013650D01*
X013085Y013677D01*
X013083Y013704D01*
X013883Y013704D02*
X013885Y013731D01*
X013891Y013758D01*
X013900Y013784D01*
X013913Y013808D01*
X013929Y013831D01*
X013948Y013850D01*
X013970Y013867D01*
X013994Y013881D01*
X014019Y013891D01*
X014046Y013898D01*
X014073Y013901D01*
X014101Y013900D01*
X014128Y013895D01*
X014154Y013887D01*
X014178Y013875D01*
X014201Y013859D01*
X014222Y013841D01*
X014239Y013820D01*
X014254Y013796D01*
X014265Y013771D01*
X014273Y013745D01*
X014277Y013718D01*
X014277Y013690D01*
X014273Y013663D01*
X014265Y013637D01*
X014254Y013612D01*
X014239Y013588D01*
X014222Y013567D01*
X014201Y013549D01*
X014179Y013533D01*
X014154Y013521D01*
X014128Y013513D01*
X014101Y013508D01*
X014073Y013507D01*
X014046Y013510D01*
X014019Y013517D01*
X013994Y013527D01*
X013970Y013541D01*
X013948Y013558D01*
X013929Y013577D01*
X013913Y013600D01*
X013900Y013624D01*
X013891Y013650D01*
X013885Y013677D01*
X013883Y013704D01*
X013105Y021954D02*
X013107Y022006D01*
X013113Y022058D01*
X013123Y022110D01*
X013136Y022160D01*
X013153Y022210D01*
X013174Y022258D01*
X013199Y022304D01*
X013227Y022348D01*
X013258Y022390D01*
X013292Y022430D01*
X013329Y022467D01*
X013369Y022501D01*
X013411Y022532D01*
X013455Y022560D01*
X013501Y022585D01*
X013549Y022606D01*
X013599Y022623D01*
X013649Y022636D01*
X013701Y022646D01*
X013753Y022652D01*
X013805Y022654D01*
X013857Y022652D01*
X013909Y022646D01*
X013961Y022636D01*
X014011Y022623D01*
X014061Y022606D01*
X014109Y022585D01*
X014155Y022560D01*
X014199Y022532D01*
X014241Y022501D01*
X014281Y022467D01*
X014318Y022430D01*
X014352Y022390D01*
X014383Y022348D01*
X014411Y022304D01*
X014436Y022258D01*
X014457Y022210D01*
X014474Y022160D01*
X014487Y022110D01*
X014497Y022058D01*
X014503Y022006D01*
X014505Y021954D01*
X014503Y021902D01*
X014497Y021850D01*
X014487Y021798D01*
X014474Y021748D01*
X014457Y021698D01*
X014436Y021650D01*
X014411Y021604D01*
X014383Y021560D01*
X014352Y021518D01*
X014318Y021478D01*
X014281Y021441D01*
X014241Y021407D01*
X014199Y021376D01*
X014155Y021348D01*
X014109Y021323D01*
X014061Y021302D01*
X014011Y021285D01*
X013961Y021272D01*
X013909Y021262D01*
X013857Y021256D01*
X013805Y021254D01*
X013753Y021256D01*
X013701Y021262D01*
X013649Y021272D01*
X013599Y021285D01*
X013549Y021302D01*
X013501Y021323D01*
X013455Y021348D01*
X013411Y021376D01*
X013369Y021407D01*
X013329Y021441D01*
X013292Y021478D01*
X013258Y021518D01*
X013227Y021560D01*
X013199Y021604D01*
X013174Y021650D01*
X013153Y021698D01*
X013136Y021748D01*
X013123Y021798D01*
X013113Y021850D01*
X013107Y021902D01*
X013105Y021954D01*
X000855Y021954D02*
X000857Y022006D01*
X000863Y022058D01*
X000873Y022110D01*
X000886Y022160D01*
X000903Y022210D01*
X000924Y022258D01*
X000949Y022304D01*
X000977Y022348D01*
X001008Y022390D01*
X001042Y022430D01*
X001079Y022467D01*
X001119Y022501D01*
X001161Y022532D01*
X001205Y022560D01*
X001251Y022585D01*
X001299Y022606D01*
X001349Y022623D01*
X001399Y022636D01*
X001451Y022646D01*
X001503Y022652D01*
X001555Y022654D01*
X001607Y022652D01*
X001659Y022646D01*
X001711Y022636D01*
X001761Y022623D01*
X001811Y022606D01*
X001859Y022585D01*
X001905Y022560D01*
X001949Y022532D01*
X001991Y022501D01*
X002031Y022467D01*
X002068Y022430D01*
X002102Y022390D01*
X002133Y022348D01*
X002161Y022304D01*
X002186Y022258D01*
X002207Y022210D01*
X002224Y022160D01*
X002237Y022110D01*
X002247Y022058D01*
X002253Y022006D01*
X002255Y021954D01*
X002253Y021902D01*
X002247Y021850D01*
X002237Y021798D01*
X002224Y021748D01*
X002207Y021698D01*
X002186Y021650D01*
X002161Y021604D01*
X002133Y021560D01*
X002102Y021518D01*
X002068Y021478D01*
X002031Y021441D01*
X001991Y021407D01*
X001949Y021376D01*
X001905Y021348D01*
X001859Y021323D01*
X001811Y021302D01*
X001761Y021285D01*
X001711Y021272D01*
X001659Y021262D01*
X001607Y021256D01*
X001555Y021254D01*
X001503Y021256D01*
X001451Y021262D01*
X001399Y021272D01*
X001349Y021285D01*
X001299Y021302D01*
X001251Y021323D01*
X001205Y021348D01*
X001161Y021376D01*
X001119Y021407D01*
X001079Y021441D01*
X001042Y021478D01*
X001008Y021518D01*
X000977Y021560D01*
X000949Y021604D01*
X000924Y021650D01*
X000903Y021698D01*
X000886Y021748D01*
X000873Y021798D01*
X000863Y021850D01*
X000857Y021902D01*
X000855Y021954D01*
X013105Y002204D02*
X013107Y002256D01*
X013113Y002308D01*
X013123Y002360D01*
X013136Y002410D01*
X013153Y002460D01*
X013174Y002508D01*
X013199Y002554D01*
X013227Y002598D01*
X013258Y002640D01*
X013292Y002680D01*
X013329Y002717D01*
X013369Y002751D01*
X013411Y002782D01*
X013455Y002810D01*
X013501Y002835D01*
X013549Y002856D01*
X013599Y002873D01*
X013649Y002886D01*
X013701Y002896D01*
X013753Y002902D01*
X013805Y002904D01*
X013857Y002902D01*
X013909Y002896D01*
X013961Y002886D01*
X014011Y002873D01*
X014061Y002856D01*
X014109Y002835D01*
X014155Y002810D01*
X014199Y002782D01*
X014241Y002751D01*
X014281Y002717D01*
X014318Y002680D01*
X014352Y002640D01*
X014383Y002598D01*
X014411Y002554D01*
X014436Y002508D01*
X014457Y002460D01*
X014474Y002410D01*
X014487Y002360D01*
X014497Y002308D01*
X014503Y002256D01*
X014505Y002204D01*
X014503Y002152D01*
X014497Y002100D01*
X014487Y002048D01*
X014474Y001998D01*
X014457Y001948D01*
X014436Y001900D01*
X014411Y001854D01*
X014383Y001810D01*
X014352Y001768D01*
X014318Y001728D01*
X014281Y001691D01*
X014241Y001657D01*
X014199Y001626D01*
X014155Y001598D01*
X014109Y001573D01*
X014061Y001552D01*
X014011Y001535D01*
X013961Y001522D01*
X013909Y001512D01*
X013857Y001506D01*
X013805Y001504D01*
X013753Y001506D01*
X013701Y001512D01*
X013649Y001522D01*
X013599Y001535D01*
X013549Y001552D01*
X013501Y001573D01*
X013455Y001598D01*
X013411Y001626D01*
X013369Y001657D01*
X013329Y001691D01*
X013292Y001728D01*
X013258Y001768D01*
X013227Y001810D01*
X013199Y001854D01*
X013174Y001900D01*
X013153Y001948D01*
X013136Y001998D01*
X013123Y002048D01*
X013113Y002100D01*
X013107Y002152D01*
X013105Y002204D01*
D11*
X012263Y003462D02*
X011863Y003462D01*
X011863Y003662D01*
X011930Y003729D01*
X012063Y003729D01*
X012130Y003662D01*
X012130Y003462D01*
X012130Y003298D02*
X012130Y003231D01*
X012063Y003231D01*
X012063Y003298D01*
X012130Y003298D01*
X012130Y003038D02*
X011930Y002838D01*
X011997Y002771D02*
X011730Y003038D01*
X011730Y002771D02*
X012130Y002771D01*
X012130Y002598D02*
X012130Y002464D01*
X012130Y002531D02*
X011730Y002531D01*
X011730Y002464D02*
X011730Y002598D01*
X011730Y002271D02*
X012130Y002271D01*
X011997Y002137D01*
X012130Y002004D01*
X011730Y002004D01*
X011730Y003922D02*
X011730Y003989D01*
X012130Y003989D01*
X012130Y003922D02*
X012130Y004056D01*
X012197Y004229D02*
X012197Y004496D01*
X012130Y004689D02*
X011997Y004823D01*
X012130Y004956D01*
X011730Y004956D01*
X011730Y005150D02*
X011730Y005283D01*
X011730Y005217D02*
X012130Y005217D01*
X012130Y005283D02*
X012130Y005150D01*
X012130Y004689D02*
X011730Y004689D01*
X011730Y005457D02*
X011730Y005724D01*
X011730Y005917D02*
X011730Y006051D01*
X011730Y005984D02*
X012130Y005984D01*
X012130Y005917D02*
X012130Y006051D01*
X012130Y006224D02*
X012130Y006491D01*
X012130Y006357D02*
X011730Y006357D01*
X011863Y006224D01*
X011930Y005590D02*
X011930Y005457D01*
X012130Y005457D02*
X011730Y005457D01*
D12*
X013555Y008330D03*
X013555Y009078D03*
X012055Y011369D03*
X012055Y012038D03*
X012180Y015494D03*
X012180Y016163D03*
X012805Y019244D03*
X012805Y019913D03*
X005930Y009328D03*
X005930Y008580D03*
X004305Y011955D03*
X004305Y012703D03*
D13*
X002929Y008329D03*
X002181Y008329D03*
X012095Y017204D03*
X012765Y017204D03*
X012765Y018204D03*
X012095Y018204D03*
D14*
X014180Y020579D03*
X001930Y005954D03*
D15*
X001339Y013454D03*
X001339Y015079D03*
X002521Y015079D03*
X002521Y013454D03*
X008089Y011579D03*
X009271Y011579D03*
D16*
X008430Y006704D03*
X007930Y005704D03*
X007430Y006704D03*
X006930Y005704D03*
X006430Y006704D03*
X005930Y005704D03*
X005430Y006704D03*
X004930Y005704D03*
D17*
X003830Y002004D03*
X009530Y002004D03*
D18*
X011180Y008180D03*
X011680Y008180D03*
X012180Y008180D03*
X012680Y008180D03*
X012680Y010227D03*
X012180Y010227D03*
X011680Y010227D03*
X011180Y010227D03*
D19*
X010869Y014475D03*
X010869Y015263D03*
X010869Y016050D03*
X010869Y016838D03*
X010869Y017625D03*
X010869Y018412D03*
X010869Y019200D03*
X010869Y019987D03*
X004412Y019987D03*
X004412Y019200D03*
X004412Y018412D03*
X004412Y017625D03*
X004412Y016838D03*
X004412Y016050D03*
X004412Y015263D03*
X004412Y014475D03*
D20*
X005790Y013649D03*
X006578Y013649D03*
X007365Y013649D03*
X008152Y013649D03*
X008940Y013649D03*
X009727Y013649D03*
D21*
X013930Y015863D03*
X013930Y017044D03*
X013930Y018113D03*
X013930Y019294D03*
D22*
X007440Y010359D03*
X007440Y009454D03*
X007440Y008548D03*
D23*
X009920Y009454D03*
D24*
X003086Y009464D03*
X002180Y009464D03*
X001274Y009464D03*
D25*
X002180Y011944D03*
D26*
X002820Y017174D03*
X002820Y019734D03*
X001040Y019734D03*
X001040Y017174D03*
D27*
X004430Y009544D03*
X004430Y008363D03*
D28*
X013430Y011204D03*
X013430Y011704D03*
X013430Y012204D03*
X013430Y012704D03*
X013430Y013204D03*
X013930Y013204D03*
X013930Y012704D03*
X013930Y012204D03*
X013930Y011704D03*
X013930Y011204D03*
D29*
X013930Y011704D01*
X013930Y012204D01*
X013930Y012704D01*
X013930Y013204D01*
X014265Y013204D01*
X014265Y013237D01*
X014260Y013262D01*
X014350Y013300D01*
X014484Y013434D01*
X014557Y013609D01*
X014557Y013799D01*
X014484Y013974D01*
X014350Y014108D01*
X014175Y014181D01*
X013985Y014181D01*
X013810Y014108D01*
X013680Y013978D01*
X013550Y014108D01*
X013375Y014181D01*
X013185Y014181D01*
X013045Y014123D01*
X013045Y015939D01*
X013008Y016027D01*
X012736Y016299D01*
X012669Y016367D01*
X012635Y016381D01*
X012635Y016486D01*
X012542Y016579D01*
X012104Y016579D01*
X011934Y016749D01*
X012418Y016749D01*
X012430Y016761D01*
X012442Y016749D01*
X013087Y016749D01*
X013181Y016842D01*
X013181Y016964D01*
X013494Y016964D01*
X013494Y016742D01*
X013588Y016648D01*
X014272Y016648D01*
X014366Y016742D01*
X014366Y017347D01*
X014272Y017441D01*
X013826Y017441D01*
X013818Y017444D01*
X013181Y017444D01*
X013181Y017565D01*
X013087Y017659D01*
X012442Y017659D01*
X012430Y017647D01*
X012418Y017659D01*
X011979Y017659D01*
X011890Y017749D01*
X012418Y017749D01*
X012430Y017761D01*
X012442Y017749D01*
X013087Y017749D01*
X013181Y017842D01*
X013181Y017964D01*
X013494Y017964D01*
X013494Y017811D01*
X013588Y017717D01*
X014272Y017717D01*
X014366Y017811D01*
X014366Y018416D01*
X014272Y018509D01*
X013588Y018509D01*
X013522Y018444D01*
X013181Y018444D01*
X013181Y018565D01*
X013087Y018659D01*
X012442Y018659D01*
X012430Y018647D01*
X012418Y018659D01*
X011773Y018659D01*
X011767Y018652D01*
X011620Y018652D01*
X011620Y018715D01*
X011528Y018806D01*
X011620Y018897D01*
X011620Y018960D01*
X011693Y018960D01*
X011812Y018841D01*
X011970Y018776D01*
X012140Y018776D01*
X012298Y018841D01*
X012364Y018908D01*
X012443Y018828D01*
X013167Y018828D01*
X013260Y018922D01*
X013260Y019566D01*
X013257Y019569D01*
X013268Y019588D01*
X013280Y019634D01*
X013280Y019865D01*
X012853Y019865D01*
X012853Y019961D01*
X013280Y019961D01*
X013280Y020193D01*
X013268Y020239D01*
X013244Y020280D01*
X013211Y020313D01*
X013170Y020337D01*
X013124Y020349D01*
X012853Y020349D01*
X012853Y019961D01*
X012757Y019961D01*
X012757Y019865D01*
X012330Y019865D01*
X012330Y019634D01*
X012342Y019588D01*
X012353Y019569D01*
X012350Y019566D01*
X012350Y019514D01*
X012298Y019567D01*
X012140Y019632D01*
X012089Y019632D01*
X012168Y019711D01*
X012233Y019869D01*
X012233Y020039D01*
X012168Y020196D01*
X012048Y020317D01*
X011890Y020382D01*
X011720Y020382D01*
X011584Y020326D01*
X011526Y020383D01*
X010212Y020383D01*
X010118Y020290D01*
X010118Y019685D01*
X010210Y019594D01*
X010118Y019502D01*
X010118Y018897D01*
X010210Y018806D01*
X010118Y018715D01*
X010118Y018110D01*
X010210Y018019D01*
X010118Y017928D01*
X010118Y017323D01*
X010210Y017231D01*
X010118Y017140D01*
X010118Y016535D01*
X010210Y016444D01*
X010118Y016353D01*
X010118Y016319D01*
X006794Y016319D01*
X006793Y016321D01*
X006673Y016442D01*
X006515Y016507D01*
X006345Y016507D01*
X006187Y016442D01*
X006170Y016424D01*
X006170Y019002D01*
X006133Y019090D01*
X006066Y019157D01*
X005163Y020060D01*
X005163Y020290D01*
X005069Y020383D01*
X003755Y020383D01*
X003662Y020290D01*
X003662Y019685D01*
X003753Y019594D01*
X003662Y019502D01*
X003662Y018897D01*
X003753Y018806D01*
X003662Y018715D01*
X003662Y018652D01*
X002966Y018652D01*
X002878Y018616D01*
X002810Y018548D01*
X001852Y017590D01*
X001815Y017502D01*
X001815Y015633D01*
X001798Y015662D01*
X001765Y015695D01*
X001724Y015719D01*
X001678Y015731D01*
X001417Y015731D01*
X001417Y015156D01*
X001834Y015156D01*
X001834Y015450D01*
X001852Y015408D01*
X001919Y015341D01*
X002046Y015214D01*
X002046Y014540D01*
X002139Y014446D01*
X002201Y014446D01*
X002201Y014086D01*
X002139Y014086D01*
X002046Y013992D01*
X002046Y012915D01*
X002139Y012821D01*
X002201Y012821D01*
X002201Y012498D01*
X001366Y012498D01*
X001272Y012404D01*
X001272Y011484D01*
X001366Y011390D01*
X002994Y011390D01*
X003088Y011484D01*
X003088Y012404D01*
X002994Y012498D01*
X002841Y012498D01*
X002841Y012821D01*
X002902Y012821D01*
X002996Y012915D01*
X002996Y013134D01*
X003546Y013134D01*
X003850Y012831D01*
X003850Y012381D01*
X003887Y012343D01*
X003866Y012321D01*
X003842Y012280D01*
X003830Y012234D01*
X003830Y012003D01*
X004257Y012003D01*
X004257Y011907D01*
X003830Y011907D01*
X003830Y011675D01*
X003842Y011629D01*
X003866Y011588D01*
X003899Y011555D01*
X003940Y011531D01*
X003986Y011519D01*
X004257Y011519D01*
X004257Y011907D01*
X004353Y011907D01*
X004353Y012003D01*
X004780Y012003D01*
X004780Y012234D01*
X004768Y012280D01*
X004744Y012321D01*
X004723Y012343D01*
X004760Y012381D01*
X004760Y013025D01*
X004732Y013053D01*
X004732Y014079D01*
X005065Y014079D01*
X005065Y012531D01*
X005102Y012443D01*
X005169Y012375D01*
X005419Y012125D01*
X005507Y012089D01*
X007598Y012089D01*
X007594Y012075D01*
X007594Y011656D01*
X008012Y011656D01*
X008012Y011501D01*
X008167Y011501D01*
X008167Y010926D01*
X008428Y010926D01*
X008474Y010939D01*
X008515Y010962D01*
X008548Y010996D01*
X008572Y011037D01*
X008584Y011083D01*
X008584Y011501D01*
X008167Y011501D01*
X008167Y011656D01*
X008584Y011656D01*
X008584Y012075D01*
X008581Y012089D01*
X008796Y012089D01*
X008796Y011040D01*
X008889Y010946D01*
X008991Y010946D01*
X008991Y010048D01*
X009033Y009945D01*
X009366Y009612D01*
X009366Y008639D01*
X009460Y008546D01*
X010380Y008546D01*
X010474Y008639D01*
X010474Y008714D01*
X010912Y008714D01*
X010894Y008683D01*
X010882Y008637D01*
X010882Y008180D01*
X010882Y007723D01*
X010894Y007678D01*
X010918Y007637D01*
X010951Y007603D01*
X010992Y007579D01*
X011032Y007569D01*
X008007Y007569D01*
X007919Y007532D01*
X007852Y007465D01*
X007563Y007176D01*
X007527Y007191D01*
X007333Y007191D01*
X007154Y007117D01*
X007017Y006980D01*
X006943Y006801D01*
X006943Y006752D01*
X006917Y006778D01*
X006917Y006801D01*
X006843Y006980D01*
X006706Y007117D01*
X006527Y007191D01*
X006452Y007191D01*
X005343Y008300D01*
X005475Y008300D01*
X005475Y008258D01*
X005568Y008164D01*
X006292Y008164D01*
X006385Y008258D01*
X006385Y008268D01*
X006886Y008268D01*
X006886Y008187D01*
X006980Y008093D01*
X007900Y008093D01*
X007994Y008187D01*
X007994Y008910D01*
X007902Y009001D01*
X007994Y009092D01*
X007994Y009815D01*
X007909Y009900D01*
X007944Y009920D01*
X007978Y009953D01*
X008001Y009995D01*
X008014Y010040D01*
X008014Y010292D01*
X007507Y010292D01*
X007507Y010427D01*
X007372Y010427D01*
X007372Y010292D01*
X006866Y010292D01*
X006866Y010040D01*
X006878Y009995D01*
X006902Y009953D01*
X006936Y009920D01*
X006971Y009900D01*
X006886Y009815D01*
X006886Y009092D01*
X006977Y009001D01*
X006886Y008910D01*
X006886Y008828D01*
X006385Y008828D01*
X006385Y008902D01*
X006348Y008940D01*
X006369Y008961D01*
X006393Y009002D01*
X006405Y009048D01*
X006405Y009280D01*
X005978Y009280D01*
X005978Y009376D01*
X005882Y009376D01*
X005882Y009764D01*
X005611Y009764D01*
X005565Y009751D01*
X005524Y009728D01*
X005491Y009694D01*
X005467Y009653D01*
X005455Y009607D01*
X005455Y009376D01*
X005882Y009376D01*
X005882Y009280D01*
X005455Y009280D01*
X005455Y009048D01*
X005467Y009002D01*
X005491Y008961D01*
X005512Y008940D01*
X005475Y008902D01*
X005475Y008860D01*
X004931Y008860D01*
X004879Y008838D01*
X003891Y008838D01*
X003798Y008744D01*
X003798Y008609D01*
X003345Y008609D01*
X003345Y008690D01*
X003251Y008784D01*
X003209Y008784D01*
X003209Y008910D01*
X003447Y008910D01*
X003541Y009004D01*
X003541Y009924D01*
X003447Y010017D01*
X002724Y010017D01*
X002633Y009926D01*
X002542Y010017D01*
X001818Y010017D01*
X001734Y009933D01*
X001714Y009968D01*
X001680Y010001D01*
X001639Y010025D01*
X001593Y010037D01*
X001342Y010037D01*
X001342Y009531D01*
X001207Y009531D01*
X001207Y009396D01*
X001342Y009396D01*
X001342Y008890D01*
X001593Y008890D01*
X001639Y008902D01*
X001680Y008926D01*
X001714Y008959D01*
X001734Y008994D01*
X001818Y008910D01*
X002542Y008910D01*
X002633Y009001D01*
X002649Y008985D01*
X002649Y008784D01*
X002607Y008784D01*
X002569Y008746D01*
X002547Y008768D01*
X002506Y008792D01*
X002461Y008804D01*
X002229Y008804D01*
X002229Y008377D01*
X002133Y008377D01*
X002133Y008804D01*
X001901Y008804D01*
X001856Y008792D01*
X001815Y008768D01*
X001781Y008735D01*
X001757Y008694D01*
X001745Y008648D01*
X001745Y008377D01*
X002133Y008377D01*
X002133Y008281D01*
X001745Y008281D01*
X001745Y008010D01*
X001757Y007964D01*
X001781Y007923D01*
X001815Y007889D01*
X001856Y007866D01*
X001901Y007854D01*
X002133Y007854D01*
X002133Y008281D01*
X002229Y008281D01*
X002229Y007854D01*
X002461Y007854D01*
X002506Y007866D01*
X002547Y007889D01*
X002569Y007911D01*
X002607Y007874D01*
X003251Y007874D01*
X003345Y007967D01*
X003345Y008049D01*
X003798Y008049D01*
X003798Y007982D01*
X003891Y007888D01*
X004736Y007888D01*
X005434Y007191D01*
X005333Y007191D01*
X005154Y007117D01*
X005017Y006980D01*
X004943Y006801D01*
X004943Y006607D01*
X005017Y006428D01*
X005154Y006291D01*
X005333Y006217D01*
X005527Y006217D01*
X005706Y006291D01*
X005843Y006428D01*
X005917Y006607D01*
X005917Y006707D01*
X005943Y006682D01*
X005943Y006607D01*
X006017Y006428D01*
X006154Y006291D01*
X006333Y006217D01*
X006527Y006217D01*
X006706Y006291D01*
X006744Y006329D01*
X006882Y006191D01*
X006833Y006191D01*
X006654Y006117D01*
X006517Y005980D01*
X006443Y005801D01*
X006443Y005607D01*
X006517Y005428D01*
X006654Y005291D01*
X006833Y005217D01*
X007027Y005217D01*
X007206Y005291D01*
X007343Y005428D01*
X007417Y005607D01*
X007417Y005655D01*
X007443Y005630D01*
X007443Y005607D01*
X007517Y005428D01*
X007654Y005291D01*
X007833Y005217D01*
X008027Y005217D01*
X008206Y005291D01*
X008343Y005428D01*
X008417Y005607D01*
X008417Y005801D01*
X008343Y005980D01*
X008206Y006117D01*
X008027Y006191D01*
X007833Y006191D01*
X007654Y006117D01*
X007616Y006079D01*
X007478Y006217D01*
X007527Y006217D01*
X007706Y006291D01*
X007843Y006428D01*
X007917Y006607D01*
X007917Y006801D01*
X007902Y006837D01*
X007997Y006931D01*
X007943Y006801D01*
X007943Y006607D01*
X008017Y006428D01*
X008154Y006291D01*
X008333Y006217D01*
X008527Y006217D01*
X008706Y006291D01*
X008843Y006428D01*
X008858Y006464D01*
X011353Y006464D01*
X011441Y006500D01*
X012316Y007375D01*
X012383Y007443D01*
X012420Y007531D01*
X012420Y007643D01*
X012430Y007653D01*
X012496Y007587D01*
X012864Y007587D01*
X012958Y007681D01*
X012958Y008090D01*
X013100Y008090D01*
X013100Y008008D01*
X013193Y007914D01*
X013917Y007914D01*
X014010Y008008D01*
X014010Y008652D01*
X013973Y008690D01*
X013994Y008711D01*
X014018Y008752D01*
X014030Y008798D01*
X014030Y009030D01*
X013603Y009030D01*
X013603Y009126D01*
X013507Y009126D01*
X013507Y009514D01*
X013236Y009514D01*
X013190Y009501D01*
X013149Y009478D01*
X013116Y009444D01*
X013092Y009403D01*
X013080Y009357D01*
X013080Y009126D01*
X013507Y009126D01*
X013507Y009030D01*
X013080Y009030D01*
X013080Y008798D01*
X013092Y008752D01*
X013116Y008711D01*
X013137Y008690D01*
X013100Y008652D01*
X013100Y008570D01*
X012958Y008570D01*
X012958Y008680D01*
X012920Y008718D01*
X012920Y008752D01*
X012883Y008840D01*
X012816Y008907D01*
X012566Y009157D01*
X012478Y009194D01*
X010474Y009194D01*
X010474Y009574D01*
X010477Y009568D01*
X010544Y009500D01*
X010794Y009250D01*
X010882Y009214D01*
X011478Y009214D01*
X011566Y009250D01*
X011633Y009318D01*
X011883Y009568D01*
X011920Y009656D01*
X011920Y009690D01*
X011930Y009700D01*
X011996Y009634D01*
X012364Y009634D01*
X012430Y009700D01*
X012496Y009634D01*
X012864Y009634D01*
X012958Y009728D01*
X012958Y010727D01*
X012920Y010765D01*
X012920Y010792D01*
X012883Y010880D01*
X012510Y011253D01*
X012510Y011409D01*
X012919Y011000D01*
X013007Y010964D01*
X013103Y010964D01*
X013225Y010964D01*
X013252Y010937D01*
X013259Y010934D01*
X013203Y010799D01*
X013203Y010609D01*
X013276Y010434D01*
X013410Y010300D01*
X013585Y010227D01*
X013775Y010227D01*
X013950Y010300D01*
X014084Y010434D01*
X014157Y010609D01*
X014157Y010799D01*
X014107Y010919D01*
X014144Y010944D01*
X014190Y010990D01*
X014227Y011045D01*
X014252Y011106D01*
X014265Y011171D01*
X014265Y011204D01*
X014265Y011237D01*
X014252Y011301D01*
X014227Y011362D01*
X014190Y011417D01*
X014154Y011454D01*
X014190Y011490D01*
X014227Y011545D01*
X014252Y011606D01*
X014265Y011671D01*
X014265Y011704D01*
X014265Y011737D01*
X014252Y011801D01*
X014227Y011862D01*
X014190Y011917D01*
X014154Y011954D01*
X014190Y011990D01*
X014227Y012045D01*
X014252Y012106D01*
X014265Y012171D01*
X014265Y012204D01*
X014265Y012237D01*
X014252Y012301D01*
X014227Y012362D01*
X014190Y012417D01*
X014154Y012454D01*
X014190Y012490D01*
X014227Y012545D01*
X014252Y012606D01*
X014265Y012671D01*
X014265Y012704D01*
X014265Y012737D01*
X014252Y012801D01*
X014227Y012862D01*
X014190Y012917D01*
X014154Y012954D01*
X014190Y012990D01*
X014227Y013045D01*
X014252Y013106D01*
X014265Y013171D01*
X014265Y013204D01*
X013930Y013204D01*
X013930Y013204D01*
X013930Y012704D01*
X013930Y012704D01*
X013930Y012869D01*
X013930Y013204D01*
X013930Y013204D01*
X013930Y013158D02*
X013930Y013158D01*
X013930Y013000D02*
X013930Y013000D01*
X013930Y012841D02*
X013930Y012841D01*
X013930Y012704D02*
X014265Y012704D01*
X013930Y012704D01*
X013930Y012704D01*
X013930Y012704D01*
X013765Y012704D01*
X013430Y012704D01*
X013430Y012704D01*
X013930Y012704D01*
X013930Y012204D01*
X013930Y012204D01*
X013930Y012369D01*
X013930Y012704D01*
X013430Y012704D01*
X013430Y013204D02*
X013118Y013204D01*
X012805Y013516D01*
X012805Y015891D01*
X012533Y016163D01*
X012180Y016163D01*
X011506Y016838D01*
X010869Y016838D01*
X010898Y016079D02*
X010869Y016050D01*
X010840Y016079D01*
X006430Y016079D01*
X006673Y015716D02*
X006793Y015836D01*
X006794Y015839D01*
X010118Y015839D01*
X010118Y015748D01*
X010203Y015663D01*
X010168Y015643D01*
X010134Y015610D01*
X010111Y015569D01*
X010098Y015523D01*
X010098Y015301D01*
X010831Y015301D01*
X010831Y015225D01*
X010098Y015225D01*
X010098Y015003D01*
X010111Y014957D01*
X010134Y014916D01*
X010168Y014883D01*
X010191Y014869D01*
X010168Y014856D01*
X010134Y014822D01*
X010111Y014781D01*
X010098Y014735D01*
X010098Y014694D01*
X009842Y014694D01*
X009253Y015282D01*
X009165Y015319D01*
X006779Y015319D01*
X006448Y015651D01*
X006515Y015651D01*
X006673Y015716D01*
X006620Y015694D02*
X010172Y015694D01*
X010102Y015536D02*
X006562Y015536D01*
X006721Y015377D02*
X010098Y015377D01*
X010098Y015219D02*
X009317Y015219D01*
X009475Y015060D02*
X010098Y015060D01*
X010149Y014902D02*
X009634Y014902D01*
X009792Y014743D02*
X010101Y014743D01*
X010055Y014454D02*
X009743Y014454D01*
X009118Y015079D01*
X006680Y015079D01*
X005930Y015829D01*
X005930Y018954D01*
X004897Y019987D01*
X004412Y019987D01*
X003662Y019974D02*
X003315Y019974D01*
X003330Y019945D02*
X003290Y020022D01*
X003240Y020092D01*
X003178Y020153D01*
X003108Y020204D01*
X003031Y020243D01*
X002949Y020270D01*
X002863Y020284D01*
X002840Y020284D01*
X002840Y019754D01*
X002800Y019754D01*
X002800Y020284D01*
X002777Y020284D01*
X002691Y020270D01*
X002609Y020243D01*
X002532Y020204D01*
X002462Y020153D01*
X002400Y020092D01*
X002350Y020022D01*
X002310Y019945D01*
X002284Y019863D01*
X002270Y019777D01*
X002270Y019754D01*
X002800Y019754D01*
X002800Y019714D01*
X002270Y019714D01*
X002270Y019690D01*
X002284Y019605D01*
X002310Y019523D01*
X002350Y019446D01*
X002400Y019375D01*
X002462Y019314D01*
X002532Y019263D01*
X002609Y019224D01*
X002691Y019197D01*
X002777Y019184D01*
X002800Y019184D01*
X002800Y019714D01*
X002840Y019714D01*
X002840Y019754D01*
X003370Y019754D01*
X003370Y019777D01*
X003356Y019863D01*
X003330Y019945D01*
X003364Y019815D02*
X003662Y019815D01*
X003690Y019657D02*
X003365Y019657D01*
X003370Y019690D02*
X003356Y019605D01*
X003330Y019523D01*
X003290Y019446D01*
X003240Y019375D01*
X003178Y019314D01*
X003108Y019263D01*
X003031Y019224D01*
X002949Y019197D01*
X002863Y019184D01*
X002840Y019184D01*
X002840Y019714D01*
X003370Y019714D01*
X003370Y019690D01*
X003317Y019498D02*
X003662Y019498D01*
X003662Y019340D02*
X003204Y019340D01*
X002840Y019340D02*
X002800Y019340D01*
X002800Y019498D02*
X002840Y019498D01*
X002840Y019657D02*
X002800Y019657D01*
X002800Y019815D02*
X002840Y019815D01*
X002840Y019974D02*
X002800Y019974D01*
X002800Y020132D02*
X002840Y020132D01*
X003199Y020132D02*
X003662Y020132D01*
X003663Y020291D02*
X000460Y020291D01*
X000460Y020449D02*
X013592Y020449D01*
X013588Y020458D02*
X013678Y020242D01*
X013843Y020076D01*
X014059Y019987D01*
X014293Y019987D01*
X014509Y020076D01*
X014674Y020242D01*
X014764Y020458D01*
X014764Y020692D01*
X014759Y020704D01*
X014770Y020704D01*
X014770Y002435D01*
X014636Y002759D01*
X014360Y003035D01*
X014000Y003184D01*
X013610Y003184D01*
X013250Y003035D01*
X012974Y002759D01*
X012825Y002399D01*
X012825Y002009D01*
X012974Y001649D01*
X013250Y001373D01*
X013586Y001234D01*
X000460Y001234D01*
X000460Y002235D01*
X000599Y001899D01*
X000875Y001623D01*
X001235Y001474D01*
X001625Y001474D01*
X001985Y001623D01*
X002261Y001899D01*
X002410Y002259D01*
X002410Y002649D01*
X002261Y003009D01*
X001985Y003285D01*
X001625Y003434D01*
X001235Y003434D01*
X000875Y003285D01*
X000599Y003009D01*
X000460Y002673D01*
X000460Y020704D01*
X013593Y020704D01*
X013588Y020692D01*
X013588Y020458D01*
X013588Y020608D02*
X000460Y020608D01*
X000740Y020183D02*
X000591Y020034D01*
X000510Y019839D01*
X000510Y019628D01*
X000591Y019434D01*
X000740Y019284D01*
X000935Y019204D01*
X001145Y019204D01*
X001340Y019284D01*
X001489Y019434D01*
X001570Y019628D01*
X001570Y019839D01*
X001489Y020034D01*
X001340Y020183D01*
X001145Y020264D01*
X000935Y020264D01*
X000740Y020183D01*
X000689Y020132D02*
X000460Y020132D01*
X000460Y019974D02*
X000566Y019974D01*
X000510Y019815D02*
X000460Y019815D01*
X000460Y019657D02*
X000510Y019657D01*
X000460Y019498D02*
X000564Y019498D01*
X000460Y019340D02*
X000684Y019340D01*
X000460Y019181D02*
X003662Y019181D01*
X003662Y019023D02*
X000460Y019023D01*
X000460Y018864D02*
X003695Y018864D01*
X003662Y018706D02*
X000460Y018706D01*
X000460Y018547D02*
X002809Y018547D01*
X002651Y018389D02*
X000460Y018389D01*
X000460Y018230D02*
X002492Y018230D01*
X002334Y018072D02*
X000460Y018072D01*
X000460Y017913D02*
X002175Y017913D01*
X002017Y017755D02*
X000460Y017755D01*
X000460Y017596D02*
X000713Y017596D01*
X000740Y017623D02*
X000591Y017474D01*
X000510Y017279D01*
X000510Y017068D01*
X000591Y016874D01*
X000740Y016724D01*
X000935Y016644D01*
X001145Y016644D01*
X001340Y016724D01*
X001489Y016874D01*
X001570Y017068D01*
X001570Y017279D01*
X001489Y017474D01*
X001340Y017623D01*
X001145Y017704D01*
X000935Y017704D01*
X000740Y017623D01*
X000576Y017438D02*
X000460Y017438D01*
X000460Y017279D02*
X000510Y017279D01*
X000510Y017121D02*
X000460Y017121D01*
X000460Y016962D02*
X000554Y016962D01*
X000460Y016804D02*
X000660Y016804D01*
X000460Y016645D02*
X000931Y016645D01*
X001149Y016645D02*
X001815Y016645D01*
X001815Y016487D02*
X000460Y016487D01*
X000460Y016328D02*
X001815Y016328D01*
X001815Y016170D02*
X000460Y016170D01*
X000460Y016011D02*
X001815Y016011D01*
X001815Y015853D02*
X000460Y015853D01*
X000460Y015694D02*
X000913Y015694D01*
X000914Y015695D02*
X000880Y015662D01*
X000857Y015621D01*
X000844Y015575D01*
X000844Y015156D01*
X001262Y015156D01*
X001262Y015001D01*
X001417Y015001D01*
X001417Y014426D01*
X001678Y014426D01*
X001724Y014439D01*
X001765Y014462D01*
X001798Y014496D01*
X001822Y014537D01*
X001834Y014583D01*
X001834Y015001D01*
X001417Y015001D01*
X001417Y015156D01*
X001262Y015156D01*
X001262Y015731D01*
X001001Y015731D01*
X000955Y015719D01*
X000914Y015695D01*
X000844Y015536D02*
X000460Y015536D01*
X000460Y015377D02*
X000844Y015377D01*
X000844Y015219D02*
X000460Y015219D01*
X000460Y015060D02*
X001262Y015060D01*
X001262Y015001D02*
X000844Y015001D01*
X000844Y014583D01*
X000857Y014537D01*
X000880Y014496D01*
X000914Y014462D01*
X000955Y014439D01*
X001001Y014426D01*
X001262Y014426D01*
X001262Y015001D01*
X001262Y014902D02*
X001417Y014902D01*
X001417Y015060D02*
X002046Y015060D01*
X002046Y014902D02*
X001834Y014902D01*
X001834Y014743D02*
X002046Y014743D01*
X002046Y014585D02*
X001834Y014585D01*
X002201Y014426D02*
X000460Y014426D01*
X000460Y014268D02*
X002201Y014268D01*
X002201Y014109D02*
X000460Y014109D01*
X000460Y013951D02*
X000845Y013951D01*
X000844Y013950D02*
X000844Y013531D01*
X001262Y013531D01*
X001262Y013376D01*
X001417Y013376D01*
X001417Y012801D01*
X001678Y012801D01*
X001724Y012814D01*
X001765Y012837D01*
X001798Y012871D01*
X001822Y012912D01*
X001834Y012958D01*
X001834Y013376D01*
X001417Y013376D01*
X001417Y013531D01*
X001834Y013531D01*
X001834Y013950D01*
X001822Y013996D01*
X001798Y014037D01*
X001765Y014070D01*
X001724Y014094D01*
X001678Y014106D01*
X001417Y014106D01*
X001417Y013531D01*
X001262Y013531D01*
X001262Y014106D01*
X001001Y014106D01*
X000955Y014094D01*
X000914Y014070D01*
X000880Y014037D01*
X000857Y013996D01*
X000844Y013950D01*
X000844Y013792D02*
X000460Y013792D01*
X000460Y013634D02*
X000844Y013634D01*
X000844Y013376D02*
X000844Y012958D01*
X000857Y012912D01*
X000880Y012871D01*
X000914Y012837D01*
X000955Y012814D01*
X001001Y012801D01*
X001262Y012801D01*
X001262Y013376D01*
X000844Y013376D01*
X000844Y013317D02*
X000460Y013317D01*
X000460Y013475D02*
X001262Y013475D01*
X001417Y013475D02*
X002046Y013475D01*
X002046Y013317D02*
X001834Y013317D01*
X001834Y013158D02*
X002046Y013158D01*
X002046Y013000D02*
X001834Y013000D01*
X001769Y012841D02*
X002119Y012841D01*
X002201Y012683D02*
X000460Y012683D01*
X000460Y012841D02*
X000910Y012841D01*
X000844Y013000D02*
X000460Y013000D01*
X000460Y013158D02*
X000844Y013158D01*
X001262Y013158D02*
X001417Y013158D01*
X001417Y013000D02*
X001262Y013000D01*
X001262Y012841D02*
X001417Y012841D01*
X001417Y013317D02*
X001262Y013317D01*
X001262Y013634D02*
X001417Y013634D01*
X001417Y013792D02*
X001262Y013792D01*
X001262Y013951D02*
X001417Y013951D01*
X001834Y013951D02*
X002046Y013951D01*
X002046Y013792D02*
X001834Y013792D01*
X001834Y013634D02*
X002046Y013634D01*
X001417Y014585D02*
X001262Y014585D01*
X001262Y014743D02*
X001417Y014743D01*
X001417Y015219D02*
X001262Y015219D01*
X001262Y015377D02*
X001417Y015377D01*
X001417Y015536D02*
X001262Y015536D01*
X001262Y015694D02*
X001417Y015694D01*
X001766Y015694D02*
X001815Y015694D01*
X001834Y015377D02*
X001883Y015377D01*
X001834Y015219D02*
X002041Y015219D01*
X002055Y015544D02*
X002055Y017454D01*
X003014Y018412D01*
X004412Y018412D01*
X003753Y018019D02*
X003662Y017928D01*
X003662Y017323D01*
X003753Y017231D01*
X003662Y017140D01*
X003662Y016535D01*
X003753Y016444D01*
X003662Y016353D01*
X003662Y016290D01*
X003108Y016290D01*
X003043Y016446D01*
X002923Y016567D01*
X002785Y016624D01*
X002800Y016624D01*
X002800Y017154D01*
X002840Y017154D01*
X002840Y017194D01*
X002800Y017194D01*
X002800Y017724D01*
X002777Y017724D01*
X002691Y017710D01*
X002631Y017691D01*
X003113Y018172D01*
X003662Y018172D01*
X003662Y018110D01*
X003753Y018019D01*
X003700Y018072D02*
X003012Y018072D01*
X002854Y017913D02*
X003662Y017913D01*
X003662Y017755D02*
X002695Y017755D01*
X002840Y017724D02*
X002840Y017194D01*
X003370Y017194D01*
X003370Y017217D01*
X003356Y017303D01*
X003330Y017385D01*
X003290Y017462D01*
X003240Y017532D01*
X003178Y017593D01*
X003108Y017644D01*
X003031Y017683D01*
X002949Y017710D01*
X002863Y017724D01*
X002840Y017724D01*
X002840Y017596D02*
X002800Y017596D01*
X002800Y017438D02*
X002840Y017438D01*
X002840Y017279D02*
X002800Y017279D01*
X002840Y017154D02*
X003370Y017154D01*
X003370Y017130D01*
X003356Y017045D01*
X003330Y016963D01*
X003290Y016886D01*
X003240Y016815D01*
X003178Y016754D01*
X003108Y016703D01*
X003031Y016664D01*
X002949Y016637D01*
X002863Y016624D01*
X002840Y016624D01*
X002840Y017154D01*
X002840Y017121D02*
X002800Y017121D01*
X002800Y016962D02*
X002840Y016962D01*
X002840Y016804D02*
X002800Y016804D01*
X002800Y016645D02*
X002840Y016645D01*
X002973Y016645D02*
X003662Y016645D01*
X003662Y016804D02*
X003228Y016804D01*
X003330Y016962D02*
X003662Y016962D01*
X003662Y017121D02*
X003368Y017121D01*
X003360Y017279D02*
X003705Y017279D01*
X003662Y017438D02*
X003303Y017438D01*
X003174Y017596D02*
X003662Y017596D01*
X003710Y016487D02*
X003002Y016487D01*
X003092Y016328D02*
X003662Y016328D01*
X003662Y015810D02*
X003662Y015748D01*
X003753Y015657D01*
X003662Y015565D01*
X003662Y014960D01*
X003753Y014869D01*
X003662Y014778D01*
X003662Y014173D01*
X003755Y014079D01*
X004092Y014079D01*
X004092Y013493D01*
X003860Y013725D01*
X003743Y013774D01*
X002996Y013774D01*
X002996Y013992D01*
X002902Y014086D01*
X002841Y014086D01*
X002841Y014446D01*
X002902Y014446D01*
X002996Y014540D01*
X002996Y014817D01*
X003095Y014776D01*
X003265Y014776D01*
X003423Y014841D01*
X003543Y014961D01*
X003608Y015119D01*
X003608Y015289D01*
X003543Y015446D01*
X003423Y015567D01*
X003265Y015632D01*
X003095Y015632D01*
X002996Y015591D01*
X002996Y015617D01*
X002902Y015711D01*
X002295Y015711D01*
X002295Y016015D01*
X002317Y015961D01*
X002437Y015841D01*
X002595Y015776D01*
X002765Y015776D01*
X002849Y015810D01*
X002881Y015810D01*
X003662Y015810D01*
X003715Y015694D02*
X002919Y015694D01*
X002834Y016050D02*
X002680Y016204D01*
X002834Y016050D02*
X004412Y016050D01*
X004412Y015263D02*
X004471Y015204D01*
X004930Y015204D01*
X005305Y014829D01*
X005305Y012579D01*
X005555Y012329D01*
X010055Y012329D01*
X010680Y011704D01*
X010680Y009704D01*
X010930Y009454D01*
X011430Y009454D01*
X011680Y009704D01*
X011680Y010227D01*
X012180Y010227D01*
X012401Y009671D02*
X012459Y009671D01*
X012680Y010227D02*
X012680Y010744D01*
X012055Y011369D01*
X012510Y011256D02*
X012663Y011256D01*
X012666Y011098D02*
X012822Y011098D01*
X012824Y010939D02*
X013249Y010939D01*
X013203Y010781D02*
X012920Y010781D01*
X012958Y010622D02*
X013203Y010622D01*
X013263Y010464D02*
X012958Y010464D01*
X012958Y010305D02*
X013404Y010305D01*
X012958Y010147D02*
X014770Y010147D01*
X014770Y010305D02*
X013956Y010305D01*
X014097Y010464D02*
X014770Y010464D01*
X014770Y010622D02*
X014157Y010622D01*
X014157Y010781D02*
X014770Y010781D01*
X014770Y010939D02*
X014137Y010939D01*
X014249Y011098D02*
X014770Y011098D01*
X014770Y011256D02*
X014261Y011256D01*
X014265Y011204D02*
X013930Y011204D01*
X013930Y011204D01*
X013930Y011369D01*
X013930Y011704D01*
X013930Y011704D01*
X013930Y011869D01*
X013930Y012204D01*
X014265Y012204D01*
X013930Y012204D01*
X013930Y012204D01*
X013930Y011704D01*
X014265Y011704D01*
X013930Y011704D01*
X013930Y011704D01*
X013930Y011204D01*
X013930Y011204D01*
X014265Y011204D01*
X014192Y011415D02*
X014770Y011415D01*
X014770Y011573D02*
X014239Y011573D01*
X014265Y011732D02*
X014770Y011732D01*
X014770Y011890D02*
X014208Y011890D01*
X014228Y012049D02*
X014770Y012049D01*
X014770Y012207D02*
X014265Y012207D01*
X014225Y012366D02*
X014770Y012366D01*
X014770Y012524D02*
X014213Y012524D01*
X014265Y012683D02*
X014770Y012683D01*
X014770Y012841D02*
X014236Y012841D01*
X014197Y013000D02*
X014770Y013000D01*
X014770Y013158D02*
X014263Y013158D01*
X014367Y013317D02*
X014770Y013317D01*
X014770Y013475D02*
X014501Y013475D01*
X014557Y013634D02*
X014770Y013634D01*
X014770Y013792D02*
X014557Y013792D01*
X014494Y013951D02*
X014770Y013951D01*
X014770Y014109D02*
X014347Y014109D01*
X014770Y014268D02*
X013045Y014268D01*
X013045Y014426D02*
X014770Y014426D01*
X014770Y014585D02*
X013045Y014585D01*
X013045Y014743D02*
X014770Y014743D01*
X014770Y014902D02*
X013045Y014902D01*
X013045Y015060D02*
X014770Y015060D01*
X014770Y015219D02*
X013045Y015219D01*
X013045Y015377D02*
X014770Y015377D01*
X014770Y015536D02*
X014361Y015536D01*
X014350Y015516D02*
X014373Y015558D01*
X014386Y015603D01*
X014386Y015825D01*
X013968Y015825D01*
X013968Y015447D01*
X014229Y015447D01*
X014275Y015459D01*
X014316Y015483D01*
X014350Y015516D01*
X014386Y015694D02*
X014770Y015694D01*
X014770Y015853D02*
X013968Y015853D01*
X013968Y015825D02*
X013968Y015901D01*
X014386Y015901D01*
X014386Y016123D01*
X014373Y016169D01*
X014350Y016210D01*
X014316Y016243D01*
X014275Y016267D01*
X014229Y016279D01*
X013968Y016279D01*
X013968Y015901D01*
X013892Y015901D01*
X013892Y015825D01*
X013968Y015825D01*
X013892Y015825D02*
X013892Y015447D01*
X013631Y015447D01*
X013585Y015459D01*
X013544Y015483D01*
X013510Y015516D01*
X013487Y015558D01*
X013474Y015603D01*
X013474Y015825D01*
X013892Y015825D01*
X013892Y015853D02*
X013045Y015853D01*
X013045Y015694D02*
X013474Y015694D01*
X013499Y015536D02*
X013045Y015536D01*
X013015Y016011D02*
X013474Y016011D01*
X013474Y015901D02*
X013474Y016123D01*
X013487Y016169D01*
X013510Y016210D01*
X013544Y016243D01*
X013585Y016267D01*
X013631Y016279D01*
X013892Y016279D01*
X013892Y015901D01*
X013474Y015901D01*
X013487Y016170D02*
X012866Y016170D01*
X012707Y016328D02*
X014770Y016328D01*
X014770Y016170D02*
X014373Y016170D01*
X014386Y016011D02*
X014770Y016011D01*
X014770Y016487D02*
X012634Y016487D01*
X012038Y016645D02*
X014770Y016645D01*
X014770Y016804D02*
X014366Y016804D01*
X014366Y016962D02*
X014770Y016962D01*
X014770Y017121D02*
X014366Y017121D01*
X014366Y017279D02*
X014770Y017279D01*
X014770Y017438D02*
X014275Y017438D01*
X014310Y017755D02*
X014770Y017755D01*
X014770Y017913D02*
X014366Y017913D01*
X014366Y018072D02*
X014770Y018072D01*
X014770Y018230D02*
X014366Y018230D01*
X014366Y018389D02*
X014770Y018389D01*
X014770Y018547D02*
X013181Y018547D01*
X013203Y018864D02*
X014770Y018864D01*
X014770Y018706D02*
X011620Y018706D01*
X011586Y018864D02*
X011789Y018864D01*
X012051Y019200D02*
X012055Y019204D01*
X012765Y019204D01*
X012805Y019244D01*
X013260Y019181D02*
X013474Y019181D01*
X013474Y019256D02*
X013474Y019034D01*
X013487Y018989D01*
X013510Y018948D01*
X013544Y018914D01*
X013585Y018890D01*
X013631Y018878D01*
X013892Y018878D01*
X013892Y019256D01*
X013968Y019256D01*
X013968Y018878D01*
X014229Y018878D01*
X014275Y018890D01*
X014316Y018914D01*
X014350Y018948D01*
X014373Y018989D01*
X014386Y019034D01*
X014386Y019256D01*
X013968Y019256D01*
X013968Y019332D01*
X014386Y019332D01*
X014386Y019554D01*
X014373Y019600D01*
X014350Y019641D01*
X014316Y019675D01*
X014275Y019698D01*
X014229Y019711D01*
X013968Y019711D01*
X013968Y019332D01*
X013892Y019332D01*
X013892Y019256D01*
X013474Y019256D01*
X013474Y019332D02*
X013474Y019554D01*
X013487Y019600D01*
X013510Y019641D01*
X013544Y019675D01*
X013585Y019698D01*
X013631Y019711D01*
X013892Y019711D01*
X013892Y019332D01*
X013474Y019332D01*
X013474Y019340D02*
X013260Y019340D01*
X013260Y019498D02*
X013474Y019498D01*
X013526Y019657D02*
X013280Y019657D01*
X013280Y019815D02*
X014770Y019815D01*
X014770Y019657D02*
X014334Y019657D01*
X014386Y019498D02*
X014770Y019498D01*
X014770Y019340D02*
X014386Y019340D01*
X014386Y019181D02*
X014770Y019181D01*
X014770Y019023D02*
X014382Y019023D01*
X013968Y019023D02*
X013892Y019023D01*
X013892Y019181D02*
X013968Y019181D01*
X013968Y019340D02*
X013892Y019340D01*
X013892Y019498D02*
X013968Y019498D01*
X013968Y019657D02*
X013892Y019657D01*
X013787Y020132D02*
X013280Y020132D01*
X013280Y019974D02*
X014770Y019974D01*
X014770Y020132D02*
X014565Y020132D01*
X014695Y020291D02*
X014770Y020291D01*
X014760Y020449D02*
X014770Y020449D01*
X014764Y020608D02*
X014770Y020608D01*
X013657Y020291D02*
X013233Y020291D01*
X012853Y020291D02*
X012757Y020291D01*
X012757Y020349D02*
X012486Y020349D01*
X012440Y020337D01*
X012399Y020313D01*
X012366Y020280D01*
X012342Y020239D01*
X012330Y020193D01*
X012330Y019961D01*
X012757Y019961D01*
X012757Y020349D01*
X012757Y020132D02*
X012853Y020132D01*
X012853Y019974D02*
X012757Y019974D01*
X012377Y020291D02*
X012073Y020291D01*
X012194Y020132D02*
X012330Y020132D01*
X012330Y019974D02*
X012233Y019974D01*
X012211Y019815D02*
X012330Y019815D01*
X012330Y019657D02*
X012113Y019657D01*
X011805Y019954D02*
X010961Y019954D01*
X010869Y019987D01*
X010873Y019204D02*
X010869Y019200D01*
X012051Y019200D01*
X012321Y018864D02*
X012407Y018864D01*
X011887Y018412D02*
X012095Y018204D01*
X011887Y018412D02*
X010869Y018412D01*
X010869Y017625D02*
X011674Y017625D01*
X012095Y017204D01*
X012424Y017755D02*
X012436Y017755D01*
X012765Y018204D02*
X013839Y018204D01*
X013930Y018113D01*
X013494Y017913D02*
X013181Y017913D01*
X013093Y017755D02*
X013550Y017755D01*
X013150Y017596D02*
X014770Y017596D01*
X013930Y017044D02*
X013771Y017204D01*
X012765Y017204D01*
X013181Y016962D02*
X013494Y016962D01*
X013494Y016804D02*
X013142Y016804D01*
X013892Y016170D02*
X013968Y016170D01*
X013968Y016011D02*
X013892Y016011D01*
X013892Y015694D02*
X013968Y015694D01*
X013968Y015536D02*
X013892Y015536D01*
X013813Y014109D02*
X013547Y014109D01*
X012868Y013016D02*
X012868Y012391D01*
X013055Y012204D01*
X013430Y012204D01*
X013930Y012204D02*
X013930Y012204D01*
X013930Y012207D02*
X013930Y012207D01*
X013930Y012049D02*
X013930Y012049D01*
X013930Y011890D02*
X013930Y011890D01*
X013930Y011732D02*
X013930Y011732D01*
X013930Y011704D02*
X013930Y011704D01*
X013930Y011573D02*
X013930Y011573D01*
X013930Y011415D02*
X013930Y011415D01*
X013930Y011256D02*
X013930Y011256D01*
X013430Y011204D02*
X013055Y011204D01*
X012305Y011954D01*
X012140Y011954D01*
X012055Y012038D01*
X012055Y012704D01*
X012243Y013204D02*
X011680Y013204D01*
X011555Y013329D01*
X011430Y013204D01*
X011430Y011079D01*
X011180Y010829D01*
X011180Y010227D01*
X010920Y010745D02*
X010920Y011752D01*
X010883Y011840D01*
X010258Y012465D01*
X010191Y012532D01*
X010103Y012569D01*
X005654Y012569D01*
X005545Y012678D01*
X005545Y012898D01*
X006093Y012898D01*
X006184Y012989D01*
X006275Y012898D01*
X006880Y012898D01*
X006971Y012989D01*
X007063Y012898D01*
X007668Y012898D01*
X007759Y012989D01*
X007850Y012898D01*
X008455Y012898D01*
X008546Y012989D01*
X008637Y012898D01*
X009242Y012898D01*
X009334Y012989D01*
X009425Y012898D01*
X010030Y012898D01*
X010123Y012992D01*
X010123Y013296D01*
X010232Y013188D01*
X010320Y013151D01*
X010978Y013151D01*
X011066Y013188D01*
X011127Y013249D01*
X011127Y013244D01*
X011190Y013091D01*
X011190Y011178D01*
X010977Y010965D01*
X010940Y010877D01*
X010940Y010765D01*
X010920Y010745D01*
X010920Y010781D02*
X010940Y010781D01*
X010920Y010939D02*
X010966Y010939D01*
X010920Y011098D02*
X011110Y011098D01*
X011190Y011256D02*
X010920Y011256D01*
X010920Y011415D02*
X011190Y011415D01*
X011190Y011573D02*
X010920Y011573D01*
X010920Y011732D02*
X011190Y011732D01*
X011190Y011890D02*
X010833Y011890D01*
X010674Y012049D02*
X011190Y012049D01*
X011190Y012207D02*
X010516Y012207D01*
X010357Y012366D02*
X011190Y012366D01*
X011190Y012524D02*
X010199Y012524D01*
X010123Y013000D02*
X011190Y013000D01*
X011190Y012841D02*
X005545Y012841D01*
X005545Y012683D02*
X011190Y012683D01*
X011162Y013158D02*
X010995Y013158D01*
X010930Y013391D02*
X010368Y013391D01*
X010180Y013579D01*
X010180Y014079D01*
X010420Y014059D02*
X010420Y013678D01*
X010467Y013631D01*
X010831Y013631D01*
X011232Y014032D01*
X011297Y014059D01*
X010907Y014059D01*
X010907Y014437D01*
X010831Y014437D01*
X010831Y014059D01*
X010420Y014059D01*
X010420Y013951D02*
X011150Y013951D01*
X010992Y013792D02*
X010420Y013792D01*
X010464Y013634D02*
X010833Y013634D01*
X010930Y013391D02*
X011368Y013829D01*
X011743Y013829D01*
X012055Y013516D01*
X012368Y013516D01*
X012868Y013016D01*
X012555Y012891D02*
X012243Y013204D01*
X012555Y012891D02*
X012555Y012141D01*
X012993Y011704D01*
X013430Y011704D01*
X013930Y012366D02*
X013930Y012366D01*
X013930Y012524D02*
X013930Y012524D01*
X013930Y012683D02*
X013930Y012683D01*
X013930Y012704D02*
X013930Y012704D01*
X012565Y013658D02*
X012503Y013720D01*
X012415Y013756D01*
X012154Y013756D01*
X011946Y013965D01*
X011878Y014032D01*
X011790Y014069D01*
X011519Y014069D01*
X011529Y014071D01*
X011570Y014095D01*
X011604Y014129D01*
X011627Y014170D01*
X011640Y014216D01*
X011640Y014437D01*
X010907Y014437D01*
X010907Y014514D01*
X010831Y014514D01*
X010831Y014892D01*
X010831Y015225D01*
X010907Y015225D01*
X010907Y015301D01*
X011640Y015301D01*
X011640Y015464D01*
X011706Y015464D01*
X011725Y015445D01*
X011725Y015172D01*
X011818Y015078D01*
X012542Y015078D01*
X012565Y015102D01*
X012565Y013658D01*
X012565Y013792D02*
X012118Y013792D01*
X011960Y013951D02*
X012565Y013951D01*
X012565Y014109D02*
X011584Y014109D01*
X011640Y014268D02*
X012565Y014268D01*
X012565Y014426D02*
X011640Y014426D01*
X011640Y014514D02*
X011640Y014735D01*
X011627Y014781D01*
X011604Y014822D01*
X011570Y014856D01*
X011547Y014869D01*
X011570Y014883D01*
X011604Y014916D01*
X011627Y014957D01*
X011640Y015003D01*
X011640Y015225D01*
X010907Y015225D01*
X010907Y014514D01*
X011640Y014514D01*
X011640Y014585D02*
X012565Y014585D01*
X012565Y014743D02*
X011637Y014743D01*
X011589Y014902D02*
X012565Y014902D01*
X012565Y015060D02*
X011640Y015060D01*
X011640Y015219D02*
X011725Y015219D01*
X011725Y015377D02*
X011640Y015377D01*
X011555Y015704D02*
X011180Y016079D01*
X010898Y016079D01*
X011555Y015704D02*
X011805Y015704D01*
X012015Y015494D01*
X012180Y015494D01*
X010907Y015219D02*
X010831Y015219D01*
X010831Y015060D02*
X010907Y015060D01*
X010907Y014902D02*
X010831Y014902D01*
X010831Y014743D02*
X010907Y014743D01*
X010907Y014585D02*
X010831Y014585D01*
X010831Y014426D02*
X010907Y014426D01*
X010907Y014268D02*
X010831Y014268D01*
X010831Y014109D02*
X010907Y014109D01*
X010303Y013158D02*
X010123Y013158D01*
X009956Y012089D02*
X009746Y012089D01*
X009746Y011040D01*
X009652Y010946D01*
X009551Y010946D01*
X009551Y010362D01*
X010380Y010362D01*
X010440Y010302D01*
X010440Y011604D01*
X009956Y012089D01*
X009996Y012049D02*
X009746Y012049D01*
X009746Y011890D02*
X010154Y011890D01*
X010313Y011732D02*
X009746Y011732D01*
X009746Y011573D02*
X010440Y011573D01*
X010440Y011415D02*
X009746Y011415D01*
X009746Y011256D02*
X010440Y011256D01*
X010440Y011098D02*
X009746Y011098D01*
X009551Y010939D02*
X010440Y010939D01*
X010440Y010781D02*
X009551Y010781D01*
X009551Y010622D02*
X010440Y010622D01*
X010440Y010464D02*
X009551Y010464D01*
X008991Y010464D02*
X008014Y010464D01*
X008014Y010427D02*
X008014Y010678D01*
X008001Y010724D01*
X007978Y010765D01*
X007944Y010799D01*
X007903Y010822D01*
X007857Y010835D01*
X007507Y010835D01*
X007507Y010427D01*
X008014Y010427D01*
X008014Y010622D02*
X008991Y010622D01*
X008991Y010781D02*
X007962Y010781D01*
X008012Y010926D02*
X008012Y011501D01*
X007594Y011501D01*
X007594Y011083D01*
X007607Y011037D01*
X007630Y010996D01*
X007664Y010962D01*
X007705Y010939D01*
X007751Y010926D01*
X008012Y010926D01*
X008012Y010939D02*
X008167Y010939D01*
X008167Y011098D02*
X008012Y011098D01*
X008012Y011256D02*
X008167Y011256D01*
X008167Y011415D02*
X008012Y011415D01*
X008012Y011573D02*
X004729Y011573D01*
X004744Y011588D02*
X004768Y011629D01*
X004780Y011675D01*
X004780Y011907D01*
X004353Y011907D01*
X004353Y011519D01*
X004624Y011519D01*
X004670Y011531D01*
X004711Y011555D01*
X004744Y011588D01*
X004780Y011732D02*
X007594Y011732D01*
X007594Y011890D02*
X004780Y011890D01*
X004780Y012049D02*
X007594Y012049D01*
X007594Y011415D02*
X003019Y011415D01*
X003088Y011573D02*
X003881Y011573D01*
X003830Y011732D02*
X003088Y011732D01*
X003088Y011890D02*
X003830Y011890D01*
X003830Y012049D02*
X003088Y012049D01*
X003088Y012207D02*
X003830Y012207D01*
X003865Y012366D02*
X003088Y012366D01*
X002841Y012524D02*
X003850Y012524D01*
X003850Y012683D02*
X002841Y012683D01*
X002922Y012841D02*
X003839Y012841D01*
X003680Y013000D02*
X002996Y013000D01*
X002996Y013792D02*
X004092Y013792D01*
X004092Y013634D02*
X003952Y013634D01*
X004092Y013951D02*
X002996Y013951D01*
X002841Y014109D02*
X003725Y014109D01*
X003662Y014268D02*
X002841Y014268D01*
X002841Y014426D02*
X003662Y014426D01*
X003662Y014585D02*
X002996Y014585D01*
X002996Y014743D02*
X003662Y014743D01*
X003720Y014902D02*
X003483Y014902D01*
X003584Y015060D02*
X003662Y015060D01*
X003662Y015219D02*
X003608Y015219D01*
X003572Y015377D02*
X003662Y015377D01*
X003662Y015536D02*
X003453Y015536D01*
X003180Y015204D02*
X003055Y015079D01*
X002521Y015079D01*
X002055Y015544D01*
X002295Y015853D02*
X002426Y015853D01*
X002296Y016011D02*
X002295Y016011D01*
X001815Y016804D02*
X001420Y016804D01*
X001526Y016962D02*
X001815Y016962D01*
X001815Y017121D02*
X001570Y017121D01*
X001570Y017279D02*
X001815Y017279D01*
X001815Y017438D02*
X001504Y017438D01*
X001367Y017596D02*
X001858Y017596D01*
X001396Y019340D02*
X002436Y019340D01*
X002323Y019498D02*
X001516Y019498D01*
X001570Y019657D02*
X002275Y019657D01*
X002276Y019815D02*
X001570Y019815D01*
X001514Y019974D02*
X002325Y019974D01*
X002441Y020132D02*
X001391Y020132D01*
X000844Y014902D02*
X000460Y014902D01*
X000460Y014743D02*
X000844Y014743D01*
X000844Y014585D02*
X000460Y014585D01*
X000460Y012524D02*
X002201Y012524D01*
X001272Y012366D02*
X000460Y012366D01*
X000460Y012207D02*
X001272Y012207D01*
X001272Y012049D02*
X000460Y012049D01*
X000460Y011890D02*
X001272Y011890D01*
X001272Y011732D02*
X000460Y011732D01*
X000460Y011573D02*
X001272Y011573D01*
X001341Y011415D02*
X000460Y011415D01*
X000460Y011256D02*
X007594Y011256D01*
X007594Y011098D02*
X000460Y011098D01*
X000460Y010939D02*
X007704Y010939D01*
X007507Y010781D02*
X007372Y010781D01*
X007372Y010835D02*
X007022Y010835D01*
X006977Y010822D01*
X006936Y010799D01*
X006902Y010765D01*
X006878Y010724D01*
X006866Y010678D01*
X006866Y010427D01*
X007372Y010427D01*
X007372Y010835D01*
X007372Y010622D02*
X007507Y010622D01*
X007507Y010464D02*
X007372Y010464D01*
X007372Y010305D02*
X000460Y010305D01*
X000460Y010147D02*
X006866Y010147D01*
X006882Y009988D02*
X005028Y009988D01*
X005013Y010003D02*
X005046Y009970D01*
X005070Y009929D01*
X005082Y009883D01*
X005082Y009622D01*
X004507Y009622D01*
X004353Y009622D01*
X004353Y010039D01*
X003934Y010039D01*
X003888Y010027D01*
X003847Y010003D01*
X003814Y009970D01*
X003790Y009929D01*
X003778Y009883D01*
X003778Y009622D01*
X004353Y009622D01*
X004353Y009467D01*
X004507Y009467D01*
X004507Y009049D01*
X004926Y009049D01*
X004972Y009062D01*
X005013Y009085D01*
X005046Y009119D01*
X005070Y009160D01*
X005082Y009206D01*
X005082Y009467D01*
X004507Y009467D01*
X004507Y009622D01*
X004507Y010039D01*
X004926Y010039D01*
X004972Y010027D01*
X005013Y010003D01*
X005082Y009830D02*
X006901Y009830D01*
X006886Y009671D02*
X006383Y009671D01*
X006393Y009653D02*
X006369Y009694D01*
X006336Y009728D01*
X006295Y009751D01*
X006249Y009764D01*
X005978Y009764D01*
X005978Y009376D01*
X006405Y009376D01*
X006405Y009607D01*
X006393Y009653D01*
X006405Y009513D02*
X006886Y009513D01*
X006886Y009354D02*
X005978Y009354D01*
X005882Y009354D02*
X005082Y009354D01*
X005080Y009196D02*
X005455Y009196D01*
X005458Y009037D02*
X003541Y009037D01*
X003541Y009196D02*
X003780Y009196D01*
X003778Y009206D02*
X003790Y009160D01*
X003814Y009119D01*
X003847Y009085D01*
X003888Y009062D01*
X003934Y009049D01*
X004353Y009049D01*
X004353Y009467D01*
X003778Y009467D01*
X003778Y009206D01*
X003778Y009354D02*
X003541Y009354D01*
X003541Y009513D02*
X004353Y009513D01*
X004507Y009513D02*
X005455Y009513D01*
X005477Y009671D02*
X005082Y009671D01*
X004507Y009671D02*
X004353Y009671D01*
X004353Y009830D02*
X004507Y009830D01*
X004507Y009988D02*
X004353Y009988D01*
X003832Y009988D02*
X003476Y009988D01*
X003541Y009830D02*
X003778Y009830D01*
X003778Y009671D02*
X003541Y009671D01*
X003209Y008879D02*
X005475Y008879D01*
X005488Y008245D02*
X005398Y008245D01*
X005557Y008086D02*
X010882Y008086D01*
X010882Y008180D02*
X011180Y008180D01*
X011180Y008180D01*
X010882Y008180D01*
X010882Y008245D02*
X007994Y008245D01*
X007994Y008403D02*
X010882Y008403D01*
X010882Y008562D02*
X010396Y008562D01*
X009920Y008954D02*
X012430Y008954D01*
X012680Y008704D01*
X012680Y008180D01*
X012830Y008330D01*
X013555Y008330D01*
X013180Y007928D02*
X012958Y007928D01*
X012958Y008086D02*
X013100Y008086D01*
X012958Y007769D02*
X014770Y007769D01*
X014770Y007611D02*
X012888Y007611D01*
X012472Y007611D02*
X012420Y007611D01*
X012387Y007452D02*
X014770Y007452D01*
X014770Y007294D02*
X012234Y007294D01*
X012076Y007135D02*
X014770Y007135D01*
X014770Y006977D02*
X011917Y006977D01*
X011759Y006818D02*
X014770Y006818D01*
X014770Y006660D02*
X012258Y006660D01*
X012217Y006701D02*
X012043Y006701D01*
X011920Y006578D01*
X011920Y006567D01*
X011643Y006567D01*
X011520Y006444D01*
X011520Y006271D01*
X011586Y006204D01*
X011520Y006138D01*
X011520Y005830D01*
X011529Y005820D01*
X011520Y005811D01*
X011520Y005063D01*
X011529Y005053D01*
X011520Y005043D01*
X011520Y004869D01*
X011566Y004823D01*
X011520Y004776D01*
X011520Y004602D01*
X011643Y004479D01*
X011987Y004479D01*
X011987Y004209D01*
X011976Y004199D01*
X011643Y004199D01*
X011520Y004076D01*
X011520Y003835D01*
X011643Y003712D01*
X011653Y003712D01*
X011653Y003375D01*
X011776Y003252D01*
X011853Y003252D01*
X011853Y003211D01*
X011817Y003248D01*
X011643Y003248D01*
X011520Y003125D01*
X011520Y002951D01*
X011566Y002905D01*
X011520Y002858D01*
X011520Y002377D01*
X011529Y002367D01*
X011520Y002358D01*
X011520Y002184D01*
X011566Y002137D01*
X011520Y002091D01*
X011520Y001917D01*
X011643Y001794D01*
X012217Y001794D01*
X012340Y001917D01*
X012340Y002091D01*
X012294Y002137D01*
X012340Y002184D01*
X012340Y002358D01*
X012330Y002367D01*
X012340Y002377D01*
X012340Y002858D01*
X012294Y002905D01*
X012340Y002951D01*
X012340Y003125D01*
X012330Y003135D01*
X012340Y003145D01*
X012340Y003252D01*
X012350Y003252D01*
X012473Y003375D01*
X012473Y003549D01*
X012350Y003672D01*
X012340Y003672D01*
X012340Y003749D01*
X012297Y003792D01*
X012340Y003835D01*
X012340Y004075D01*
X012407Y004142D01*
X012407Y004583D01*
X012340Y004650D01*
X012340Y004776D01*
X012294Y004823D01*
X012340Y004869D01*
X012340Y005043D01*
X012330Y005053D01*
X012340Y005063D01*
X012340Y005544D01*
X012217Y005667D01*
X012140Y005667D01*
X012140Y005677D01*
X012110Y005707D01*
X012217Y005707D01*
X012340Y005830D01*
X012340Y006578D01*
X012217Y006701D01*
X012340Y006501D02*
X014770Y006501D01*
X014770Y006343D02*
X012340Y006343D01*
X012340Y006184D02*
X014770Y006184D01*
X014770Y006026D02*
X012340Y006026D01*
X012340Y005867D02*
X014770Y005867D01*
X014770Y005709D02*
X012219Y005709D01*
X012333Y005550D02*
X014770Y005550D01*
X014770Y005392D02*
X012340Y005392D01*
X012340Y005233D02*
X014770Y005233D01*
X014770Y005075D02*
X012340Y005075D01*
X012340Y004916D02*
X014770Y004916D01*
X014770Y004758D02*
X012340Y004758D01*
X012390Y004599D02*
X014770Y004599D01*
X014770Y004441D02*
X012407Y004441D01*
X012407Y004282D02*
X014770Y004282D01*
X014770Y004124D02*
X012388Y004124D01*
X012340Y003965D02*
X014770Y003965D01*
X014770Y003807D02*
X012312Y003807D01*
X012374Y003648D02*
X014770Y003648D01*
X014770Y003490D02*
X012473Y003490D01*
X012430Y003331D02*
X014770Y003331D01*
X014770Y003173D02*
X014026Y003173D01*
X014380Y003014D02*
X014770Y003014D01*
X014770Y002856D02*
X014539Y002856D01*
X014661Y002697D02*
X014770Y002697D01*
X014770Y002539D02*
X014727Y002539D01*
X013584Y003173D02*
X012340Y003173D01*
X012340Y003014D02*
X013230Y003014D01*
X013071Y002856D02*
X012340Y002856D01*
X012340Y002697D02*
X012949Y002697D01*
X012883Y002539D02*
X012340Y002539D01*
X012340Y002380D02*
X012825Y002380D01*
X012825Y002222D02*
X012340Y002222D01*
X012340Y002063D02*
X012825Y002063D01*
X012868Y001905D02*
X012328Y001905D01*
X012934Y001746D02*
X010130Y001746D01*
X010116Y001715D02*
X010149Y001794D01*
X010171Y001876D01*
X010178Y001926D01*
X009607Y001926D01*
X009607Y001356D01*
X009658Y001363D01*
X009740Y001385D01*
X009819Y001417D01*
X009893Y001460D01*
X009961Y001512D01*
X010022Y001573D01*
X010074Y001641D01*
X010116Y001715D01*
X010033Y001588D02*
X013035Y001588D01*
X013194Y001429D02*
X009840Y001429D01*
X009607Y001429D02*
X009453Y001429D01*
X009453Y001356D02*
X009402Y001363D01*
X009320Y001385D01*
X009241Y001417D01*
X009167Y001460D01*
X009099Y001512D01*
X009038Y001573D01*
X008986Y001641D01*
X008944Y001715D01*
X008911Y001794D01*
X008889Y001876D01*
X008882Y001926D01*
X009453Y001926D01*
X009607Y001926D01*
X009607Y002081D01*
X010178Y002081D01*
X010171Y002131D01*
X010149Y002214D01*
X010116Y002293D01*
X010074Y002367D01*
X010022Y002435D01*
X009961Y002495D01*
X009893Y002547D01*
X009819Y002590D01*
X009740Y002623D01*
X009669Y002642D01*
X009710Y002683D01*
X009850Y003021D01*
X009850Y003387D01*
X009710Y003725D01*
X009451Y003984D01*
X009113Y004124D01*
X008747Y004124D01*
X008409Y003984D01*
X008150Y003725D01*
X008010Y003387D01*
X008010Y003021D01*
X008150Y002683D01*
X008409Y002424D01*
X008747Y002284D01*
X008940Y002284D01*
X008911Y002214D01*
X008889Y002131D01*
X008882Y002081D01*
X009453Y002081D01*
X009453Y001926D01*
X009453Y001356D01*
X009453Y001588D02*
X009607Y001588D01*
X009607Y001746D02*
X009453Y001746D01*
X009453Y001905D02*
X009607Y001905D01*
X009607Y002063D02*
X011520Y002063D01*
X011532Y001905D02*
X010175Y001905D01*
X010146Y002222D02*
X011520Y002222D01*
X011520Y002380D02*
X010063Y002380D01*
X009905Y002539D02*
X011520Y002539D01*
X011520Y002697D02*
X009716Y002697D01*
X009782Y002856D02*
X011520Y002856D01*
X011520Y003014D02*
X009847Y003014D01*
X009850Y003173D02*
X011567Y003173D01*
X011697Y003331D02*
X009850Y003331D01*
X009807Y003490D02*
X011653Y003490D01*
X011653Y003648D02*
X009742Y003648D01*
X009628Y003807D02*
X011548Y003807D01*
X011520Y003965D02*
X009470Y003965D01*
X008390Y003965D02*
X004970Y003965D01*
X004951Y003984D02*
X004613Y004124D01*
X004247Y004124D01*
X003909Y003984D01*
X003650Y003725D01*
X003510Y003387D01*
X003510Y003021D01*
X003650Y002683D01*
X003691Y002642D01*
X003620Y002623D01*
X003541Y002590D01*
X003467Y002547D01*
X003399Y002495D01*
X003338Y002435D01*
X003286Y002367D01*
X003244Y002293D01*
X003211Y002214D01*
X003189Y002131D01*
X003182Y002081D01*
X003753Y002081D01*
X003753Y001926D01*
X003907Y001926D01*
X003907Y001356D01*
X003958Y001363D01*
X004040Y001385D01*
X004119Y001417D01*
X004193Y001460D01*
X004261Y001512D01*
X004322Y001573D01*
X004374Y001641D01*
X004416Y001715D01*
X004449Y001794D01*
X004471Y001876D01*
X004478Y001926D01*
X003907Y001926D01*
X003907Y002081D01*
X004478Y002081D01*
X004471Y002131D01*
X004449Y002214D01*
X004420Y002284D01*
X004613Y002284D01*
X004951Y002424D01*
X005210Y002683D01*
X005350Y003021D01*
X005350Y003387D01*
X005210Y003725D01*
X004951Y003984D01*
X005128Y003807D02*
X008232Y003807D01*
X008118Y003648D02*
X005242Y003648D01*
X005307Y003490D02*
X008053Y003490D01*
X008010Y003331D02*
X005350Y003331D01*
X005350Y003173D02*
X008010Y003173D01*
X008013Y003014D02*
X005347Y003014D01*
X005282Y002856D02*
X008078Y002856D01*
X008144Y002697D02*
X005216Y002697D01*
X005066Y002539D02*
X008294Y002539D01*
X008514Y002380D02*
X004846Y002380D01*
X004446Y002222D02*
X008914Y002222D01*
X008885Y001905D02*
X004475Y001905D01*
X004430Y001746D02*
X008930Y001746D01*
X009027Y001588D02*
X004333Y001588D01*
X004140Y001429D02*
X009220Y001429D01*
X009453Y002063D02*
X003907Y002063D01*
X003753Y002063D02*
X002329Y002063D01*
X002263Y001905D02*
X003185Y001905D01*
X003182Y001926D02*
X003189Y001876D01*
X003211Y001794D01*
X003244Y001715D01*
X003286Y001641D01*
X003338Y001573D01*
X003399Y001512D01*
X003467Y001460D01*
X003541Y001417D01*
X003620Y001385D01*
X003702Y001363D01*
X003753Y001356D01*
X003753Y001926D01*
X003182Y001926D01*
X003230Y001746D02*
X002108Y001746D01*
X001900Y001588D02*
X003327Y001588D01*
X003520Y001429D02*
X000460Y001429D01*
X000460Y001271D02*
X013497Y001271D01*
X011987Y004282D02*
X000460Y004282D01*
X000460Y004124D02*
X011568Y004124D01*
X011523Y004599D02*
X000460Y004599D01*
X000460Y004441D02*
X011987Y004441D01*
X011520Y004758D02*
X000460Y004758D01*
X000460Y004916D02*
X011520Y004916D01*
X011520Y005075D02*
X000460Y005075D01*
X000460Y005233D02*
X004737Y005233D01*
X004735Y005234D02*
X004811Y005209D01*
X004890Y005197D01*
X004921Y005197D01*
X004921Y005695D01*
X004423Y005695D01*
X004423Y005664D01*
X004435Y005585D01*
X004460Y005509D01*
X004496Y005438D01*
X004543Y005373D01*
X004600Y005317D01*
X004664Y005270D01*
X004735Y005234D01*
X004921Y005233D02*
X004939Y005233D01*
X004939Y005197D02*
X004970Y005197D01*
X005049Y005209D01*
X005125Y005234D01*
X005196Y005270D01*
X005260Y005317D01*
X005317Y005373D01*
X005364Y005438D01*
X005400Y005509D01*
X005425Y005585D01*
X005430Y005619D01*
X005435Y005585D01*
X005460Y005509D01*
X005496Y005438D01*
X005543Y005373D01*
X005600Y005317D01*
X005664Y005270D01*
X005735Y005234D01*
X005811Y005209D01*
X005890Y005197D01*
X005921Y005197D01*
X005921Y005695D01*
X004939Y005695D01*
X004939Y005712D01*
X005423Y005712D01*
X005921Y005712D01*
X005921Y005695D01*
X005939Y005695D01*
X005939Y005712D01*
X006437Y005712D01*
X006437Y005744D01*
X006425Y005823D01*
X006400Y005898D01*
X006364Y005970D01*
X006317Y006034D01*
X006260Y006091D01*
X006196Y006138D01*
X006125Y006174D01*
X006049Y006198D01*
X005970Y006211D01*
X005939Y006211D01*
X005939Y005712D01*
X005921Y005712D01*
X005921Y006211D01*
X005890Y006211D01*
X005811Y006198D01*
X005735Y006174D01*
X005664Y006138D01*
X005600Y006091D01*
X005543Y006034D01*
X005496Y005970D01*
X005460Y005898D01*
X005435Y005823D01*
X005430Y005789D01*
X005425Y005823D01*
X005400Y005898D01*
X005364Y005970D01*
X005317Y006034D01*
X005260Y006091D01*
X005196Y006138D01*
X005125Y006174D01*
X005049Y006198D01*
X004970Y006211D01*
X004939Y006211D01*
X004939Y005712D01*
X004921Y005712D01*
X004921Y005695D01*
X004939Y005695D01*
X004939Y005197D01*
X005123Y005233D02*
X005737Y005233D01*
X005921Y005233D02*
X005939Y005233D01*
X005939Y005197D02*
X005970Y005197D01*
X006049Y005209D01*
X006125Y005234D01*
X006196Y005270D01*
X006260Y005317D01*
X006317Y005373D01*
X006364Y005438D01*
X006400Y005509D01*
X006425Y005585D01*
X006437Y005664D01*
X006437Y005695D01*
X005939Y005695D01*
X005939Y005197D01*
X005921Y005392D02*
X005939Y005392D01*
X005939Y005550D02*
X005921Y005550D01*
X005921Y005709D02*
X004939Y005709D01*
X004921Y005709D02*
X002463Y005709D01*
X002424Y005617D02*
X002514Y005833D01*
X002514Y006067D01*
X002424Y006283D01*
X002259Y006448D01*
X002043Y006538D01*
X001809Y006538D01*
X001593Y006448D01*
X001428Y006283D01*
X001338Y006067D01*
X001338Y005833D01*
X001428Y005617D01*
X001593Y005451D01*
X001809Y005362D01*
X002043Y005362D01*
X002259Y005451D01*
X002424Y005617D01*
X002358Y005550D02*
X004447Y005550D01*
X004423Y005712D02*
X004921Y005712D01*
X004921Y006211D01*
X004890Y006211D01*
X004811Y006198D01*
X004735Y006174D01*
X004664Y006138D01*
X004600Y006091D01*
X004543Y006034D01*
X004496Y005970D01*
X004460Y005898D01*
X004435Y005823D01*
X004423Y005744D01*
X004423Y005712D01*
X004450Y005867D02*
X002514Y005867D01*
X002514Y006026D02*
X004537Y006026D01*
X004768Y006184D02*
X002465Y006184D01*
X002364Y006343D02*
X005102Y006343D01*
X005092Y006184D02*
X005768Y006184D01*
X005921Y006184D02*
X005939Y006184D01*
X006092Y006184D02*
X006817Y006184D01*
X006563Y006026D02*
X006323Y006026D01*
X006410Y005867D02*
X006470Y005867D01*
X006443Y005709D02*
X005939Y005709D01*
X005939Y005867D02*
X005921Y005867D01*
X005921Y006026D02*
X005939Y006026D01*
X006102Y006343D02*
X005758Y006343D01*
X005873Y006501D02*
X005987Y006501D01*
X005943Y006660D02*
X005917Y006660D01*
X005537Y006026D02*
X005323Y006026D01*
X005410Y005867D02*
X005450Y005867D01*
X005447Y005550D02*
X005413Y005550D01*
X005330Y005392D02*
X005530Y005392D01*
X004939Y005392D02*
X004921Y005392D01*
X004921Y005550D02*
X004939Y005550D01*
X004921Y005867D02*
X004939Y005867D01*
X004939Y006026D02*
X004921Y006026D01*
X004921Y006184D02*
X004939Y006184D01*
X004987Y006501D02*
X002131Y006501D01*
X001721Y006501D02*
X000460Y006501D01*
X000460Y006343D02*
X001488Y006343D01*
X001387Y006184D02*
X000460Y006184D01*
X000460Y006026D02*
X001338Y006026D01*
X001338Y005867D02*
X000460Y005867D01*
X000460Y005709D02*
X001390Y005709D01*
X001494Y005550D02*
X000460Y005550D01*
X000460Y005392D02*
X001737Y005392D01*
X002115Y005392D02*
X004530Y005392D01*
X004943Y006660D02*
X000460Y006660D01*
X000460Y006818D02*
X004950Y006818D01*
X005016Y006977D02*
X000460Y006977D01*
X000460Y007135D02*
X005199Y007135D01*
X005331Y007294D02*
X000460Y007294D01*
X000460Y007452D02*
X005172Y007452D01*
X005014Y007611D02*
X000460Y007611D01*
X000460Y007769D02*
X004855Y007769D01*
X005715Y007928D02*
X010882Y007928D01*
X010882Y007769D02*
X005874Y007769D01*
X006032Y007611D02*
X010944Y007611D01*
X011305Y007329D02*
X011680Y007704D01*
X011680Y008180D01*
X012180Y008180D02*
X012180Y007579D01*
X011305Y006704D01*
X008430Y006704D01*
X008102Y006343D02*
X007758Y006343D01*
X007817Y006184D02*
X007511Y006184D01*
X007873Y006501D02*
X007987Y006501D01*
X007943Y006660D02*
X007917Y006660D01*
X007910Y006818D02*
X007950Y006818D01*
X008055Y007329D02*
X011305Y007329D01*
X011600Y006660D02*
X012002Y006660D01*
X011576Y006501D02*
X011442Y006501D01*
X011520Y006343D02*
X008758Y006343D01*
X008390Y005867D02*
X011520Y005867D01*
X011520Y005709D02*
X008417Y005709D01*
X008394Y005550D02*
X011520Y005550D01*
X011520Y005392D02*
X008307Y005392D01*
X008067Y005233D02*
X011520Y005233D01*
X011520Y006026D02*
X008297Y006026D01*
X008043Y006184D02*
X011566Y006184D01*
X012920Y008720D02*
X013111Y008720D01*
X013080Y008879D02*
X012844Y008879D01*
X012686Y009037D02*
X013507Y009037D01*
X013603Y009037D02*
X014770Y009037D01*
X014770Y008879D02*
X014030Y008879D01*
X013999Y008720D02*
X014770Y008720D01*
X014770Y008562D02*
X014010Y008562D01*
X014010Y008403D02*
X014770Y008403D01*
X014770Y008245D02*
X014010Y008245D01*
X014010Y008086D02*
X014770Y008086D01*
X014770Y007928D02*
X013930Y007928D01*
X014030Y009126D02*
X013603Y009126D01*
X013603Y009514D01*
X013874Y009514D01*
X013920Y009501D01*
X013961Y009478D01*
X013994Y009444D01*
X014018Y009403D01*
X014030Y009357D01*
X014030Y009126D01*
X014030Y009196D02*
X014770Y009196D01*
X014770Y009354D02*
X014030Y009354D01*
X013877Y009513D02*
X014770Y009513D01*
X014770Y009671D02*
X012901Y009671D01*
X012958Y009830D02*
X014770Y009830D01*
X014770Y009988D02*
X012958Y009988D01*
X013233Y009513D02*
X011828Y009513D01*
X011920Y009671D02*
X011959Y009671D01*
X011670Y009354D02*
X013080Y009354D01*
X013080Y009196D02*
X010474Y009196D01*
X010474Y009354D02*
X010690Y009354D01*
X010532Y009513D02*
X010474Y009513D01*
X009920Y009454D02*
X009920Y008954D01*
X009366Y008879D02*
X007994Y008879D01*
X007994Y008720D02*
X009366Y008720D01*
X009444Y008562D02*
X007994Y008562D01*
X007939Y009037D02*
X009366Y009037D01*
X009366Y009196D02*
X007994Y009196D01*
X007994Y009354D02*
X009366Y009354D01*
X009366Y009513D02*
X007994Y009513D01*
X007994Y009671D02*
X009307Y009671D01*
X009148Y009830D02*
X007979Y009830D01*
X007998Y009988D02*
X009015Y009988D01*
X008991Y010147D02*
X008014Y010147D01*
X007507Y010305D02*
X008991Y010305D01*
X008991Y010939D02*
X008475Y010939D01*
X008584Y011098D02*
X008796Y011098D01*
X008796Y011256D02*
X008584Y011256D01*
X008584Y011415D02*
X008796Y011415D01*
X008796Y011573D02*
X008167Y011573D01*
X008584Y011732D02*
X008796Y011732D01*
X008796Y011890D02*
X008584Y011890D01*
X008584Y012049D02*
X008796Y012049D01*
X008546Y014308D02*
X008455Y014399D01*
X007850Y014399D01*
X007759Y014308D01*
X007668Y014399D01*
X007063Y014399D01*
X006971Y014308D01*
X006880Y014399D01*
X006275Y014399D01*
X006184Y014308D01*
X006093Y014399D01*
X005545Y014399D01*
X005545Y014877D01*
X005508Y014965D01*
X005163Y015310D01*
X005163Y015565D01*
X005072Y015657D01*
X005163Y015748D01*
X005163Y016353D01*
X005072Y016444D01*
X005163Y016535D01*
X005163Y017140D01*
X005072Y017231D01*
X005163Y017323D01*
X005163Y017928D01*
X005072Y018019D01*
X005163Y018110D01*
X005163Y018715D01*
X005072Y018806D01*
X005163Y018897D01*
X005163Y019382D01*
X005690Y018854D01*
X005690Y015781D01*
X005727Y015693D01*
X005794Y015625D01*
X006477Y014943D01*
X006544Y014875D01*
X006632Y014839D01*
X009018Y014839D01*
X009458Y014399D01*
X009425Y014399D01*
X009334Y014308D01*
X009242Y014399D01*
X008637Y014399D01*
X008546Y014308D01*
X009114Y014743D02*
X005545Y014743D01*
X005545Y014585D02*
X009272Y014585D01*
X009431Y014426D02*
X005545Y014426D01*
X005535Y014902D02*
X006518Y014902D01*
X006359Y015060D02*
X005413Y015060D01*
X005254Y015219D02*
X006201Y015219D01*
X006042Y015377D02*
X005163Y015377D01*
X005163Y015536D02*
X005884Y015536D01*
X005794Y015625D02*
X005794Y015625D01*
X005726Y015694D02*
X005109Y015694D01*
X005163Y015853D02*
X005690Y015853D01*
X005690Y016011D02*
X005163Y016011D01*
X005163Y016170D02*
X005690Y016170D01*
X005690Y016328D02*
X005163Y016328D01*
X005114Y016487D02*
X005690Y016487D01*
X005690Y016645D02*
X005163Y016645D01*
X005163Y016804D02*
X005690Y016804D01*
X005690Y016962D02*
X005163Y016962D01*
X005163Y017121D02*
X005690Y017121D01*
X005690Y017279D02*
X005120Y017279D01*
X005163Y017438D02*
X005690Y017438D01*
X005690Y017596D02*
X005163Y017596D01*
X005163Y017755D02*
X005690Y017755D01*
X005690Y017913D02*
X005163Y017913D01*
X005125Y018072D02*
X005690Y018072D01*
X005690Y018230D02*
X005163Y018230D01*
X005163Y018389D02*
X005690Y018389D01*
X005690Y018547D02*
X005163Y018547D01*
X005163Y018706D02*
X005690Y018706D01*
X005680Y018864D02*
X005130Y018864D01*
X005163Y019023D02*
X005522Y019023D01*
X005363Y019181D02*
X005163Y019181D01*
X005163Y019340D02*
X005205Y019340D01*
X005566Y019657D02*
X010146Y019657D01*
X010118Y019815D02*
X005408Y019815D01*
X005249Y019974D02*
X010118Y019974D01*
X010118Y020132D02*
X005163Y020132D01*
X005162Y020291D02*
X010119Y020291D01*
X010118Y019498D02*
X005725Y019498D01*
X005883Y019340D02*
X010118Y019340D01*
X010118Y019181D02*
X006042Y019181D01*
X006161Y019023D02*
X010118Y019023D01*
X010151Y018864D02*
X006170Y018864D01*
X006170Y018706D02*
X010118Y018706D01*
X010118Y018547D02*
X006170Y018547D01*
X006170Y018389D02*
X010118Y018389D01*
X010118Y018230D02*
X006170Y018230D01*
X006170Y018072D02*
X010157Y018072D01*
X010118Y017913D02*
X006170Y017913D01*
X006170Y017755D02*
X010118Y017755D01*
X010118Y017596D02*
X006170Y017596D01*
X006170Y017438D02*
X010118Y017438D01*
X010162Y017279D02*
X006170Y017279D01*
X006170Y017121D02*
X010118Y017121D01*
X010118Y016962D02*
X006170Y016962D01*
X006170Y016804D02*
X010118Y016804D01*
X010118Y016645D02*
X006170Y016645D01*
X006170Y016487D02*
X006296Y016487D01*
X006564Y016487D02*
X010167Y016487D01*
X010118Y016328D02*
X006786Y016328D01*
X005065Y013951D02*
X004732Y013951D01*
X004732Y013792D02*
X005065Y013792D01*
X005065Y013634D02*
X004732Y013634D01*
X004732Y013475D02*
X005065Y013475D01*
X005065Y013317D02*
X004732Y013317D01*
X004732Y013158D02*
X005065Y013158D01*
X005065Y013000D02*
X004760Y013000D01*
X004760Y012841D02*
X005065Y012841D01*
X005065Y012683D02*
X004760Y012683D01*
X004760Y012524D02*
X005068Y012524D01*
X005179Y012366D02*
X004745Y012366D01*
X004780Y012207D02*
X005337Y012207D01*
X004353Y011890D02*
X004257Y011890D01*
X004257Y011732D02*
X004353Y011732D01*
X004353Y011573D02*
X004257Y011573D01*
X004353Y009354D02*
X004507Y009354D01*
X004507Y009196D02*
X004353Y009196D01*
X003798Y008720D02*
X003315Y008720D01*
X002649Y008879D02*
X000460Y008879D01*
X000460Y009037D02*
X000802Y009037D01*
X000799Y009046D02*
X000811Y009000D01*
X000835Y008959D01*
X000869Y008926D01*
X000910Y008902D01*
X000956Y008890D01*
X001207Y008890D01*
X001207Y009396D01*
X000799Y009396D01*
X000799Y009046D01*
X000799Y009196D02*
X000460Y009196D01*
X000460Y009354D02*
X000799Y009354D01*
X000799Y009531D02*
X001207Y009531D01*
X001207Y010037D01*
X000956Y010037D01*
X000910Y010025D01*
X000869Y010001D01*
X000835Y009968D01*
X000811Y009927D01*
X000799Y009881D01*
X000799Y009531D01*
X000799Y009671D02*
X000460Y009671D01*
X000460Y009513D02*
X001207Y009513D01*
X001207Y009671D02*
X001342Y009671D01*
X001342Y009830D02*
X001207Y009830D01*
X001207Y009988D02*
X001342Y009988D01*
X001693Y009988D02*
X001789Y009988D01*
X001342Y009354D02*
X001207Y009354D01*
X001207Y009196D02*
X001342Y009196D01*
X001342Y009037D02*
X001207Y009037D01*
X000799Y009830D02*
X000460Y009830D01*
X000460Y009988D02*
X000856Y009988D01*
X000460Y010464D02*
X006866Y010464D01*
X006866Y010622D02*
X000460Y010622D01*
X000460Y010781D02*
X006918Y010781D01*
X005978Y009671D02*
X005882Y009671D01*
X005882Y009513D02*
X005978Y009513D01*
X006405Y009196D02*
X006886Y009196D01*
X006941Y009037D02*
X006402Y009037D01*
X006385Y008879D02*
X006886Y008879D01*
X006886Y008245D02*
X006372Y008245D01*
X006191Y007452D02*
X007839Y007452D01*
X007681Y007294D02*
X006349Y007294D01*
X006661Y007135D02*
X007199Y007135D01*
X007016Y006977D02*
X006844Y006977D01*
X006910Y006818D02*
X006950Y006818D01*
X007430Y006704D02*
X008055Y007329D01*
X007466Y005550D02*
X007394Y005550D01*
X007307Y005392D02*
X007553Y005392D01*
X007793Y005233D02*
X007067Y005233D01*
X006793Y005233D02*
X006123Y005233D01*
X006330Y005392D02*
X006553Y005392D01*
X006466Y005550D02*
X006413Y005550D01*
X003890Y003965D02*
X000460Y003965D01*
X000460Y003807D02*
X003732Y003807D01*
X003618Y003648D02*
X000460Y003648D01*
X000460Y003490D02*
X003553Y003490D01*
X003510Y003331D02*
X001872Y003331D01*
X002097Y003173D02*
X003510Y003173D01*
X003513Y003014D02*
X002255Y003014D01*
X002324Y002856D02*
X003578Y002856D01*
X003644Y002697D02*
X002390Y002697D01*
X002410Y002539D02*
X003455Y002539D01*
X003297Y002380D02*
X002410Y002380D01*
X002395Y002222D02*
X003214Y002222D01*
X003753Y001905D02*
X003907Y001905D01*
X003907Y001746D02*
X003753Y001746D01*
X003753Y001588D02*
X003907Y001588D01*
X003907Y001429D02*
X003753Y001429D01*
X000960Y001588D02*
X000460Y001588D01*
X000460Y001746D02*
X000752Y001746D01*
X000597Y001905D02*
X000460Y001905D01*
X000460Y002063D02*
X000531Y002063D01*
X000465Y002222D02*
X000460Y002222D01*
X000460Y002697D02*
X000470Y002697D01*
X000460Y002856D02*
X000536Y002856D01*
X000605Y003014D02*
X000460Y003014D01*
X000460Y003173D02*
X000763Y003173D01*
X000988Y003331D02*
X000460Y003331D01*
X000460Y007928D02*
X001778Y007928D01*
X001745Y008086D02*
X000460Y008086D01*
X000460Y008245D02*
X001745Y008245D01*
X001745Y008403D02*
X000460Y008403D01*
X000460Y008562D02*
X001745Y008562D01*
X001773Y008720D02*
X000460Y008720D01*
X002133Y008720D02*
X002229Y008720D01*
X002229Y008562D02*
X002133Y008562D01*
X002133Y008403D02*
X002229Y008403D01*
X002229Y008245D02*
X002133Y008245D01*
X002133Y008086D02*
X002229Y008086D01*
X002229Y007928D02*
X002133Y007928D01*
X003305Y007928D02*
X003852Y007928D01*
X002695Y009988D02*
X002571Y009988D01*
X010437Y010305D02*
X010440Y010305D01*
X013507Y009513D02*
X013603Y009513D01*
X013603Y009354D02*
X013507Y009354D01*
X013507Y009196D02*
X013603Y009196D01*
X013478Y019023D02*
X013260Y019023D01*
D30*
X013493Y020016D03*
X012743Y020516D03*
X014368Y018766D03*
X013305Y017704D03*
X013180Y016391D03*
X012368Y014829D03*
X012368Y014079D03*
X013243Y014579D03*
X014368Y014516D03*
X014430Y012891D03*
X013180Y010016D03*
X014243Y009079D03*
X014368Y007516D03*
X014305Y006016D03*
X012680Y005704D03*
X014243Y003641D03*
X012430Y001641D03*
X011055Y003641D03*
X010993Y005516D03*
X010805Y006266D03*
X010680Y007766D03*
X011993Y009391D03*
X010993Y012016D03*
X010680Y012766D03*
X010680Y013829D03*
X009930Y014954D03*
X009930Y015579D03*
X009305Y015579D03*
X009118Y016516D03*
X008243Y016516D03*
X007805Y015579D03*
X007368Y016516D03*
X006993Y015579D03*
X007368Y014579D03*
X006305Y014704D03*
X005680Y015266D03*
X005430Y016204D03*
X005430Y017641D03*
X005430Y018829D03*
X006430Y018829D03*
X006430Y017641D03*
X006430Y016891D03*
X006430Y020391D03*
X005368Y020391D03*
X003368Y020391D03*
X002680Y018704D03*
X003243Y017954D03*
X003368Y016516D03*
X003180Y014579D03*
X003618Y013954D03*
X003180Y012954D03*
X001993Y012704D03*
X001930Y014266D03*
X000868Y014266D03*
X001430Y016141D03*
X001618Y017641D03*
X000868Y018766D03*
X000868Y020516D03*
X004930Y012329D03*
X005118Y010829D03*
X006180Y012766D03*
X006618Y011891D03*
X007305Y011141D03*
X006618Y009141D03*
X006055Y007891D03*
X006930Y007266D03*
X007805Y007829D03*
X009055Y007766D03*
X009055Y006266D03*
X009118Y009391D03*
X009805Y010579D03*
X010055Y011579D03*
X008680Y010829D03*
X008993Y014579D03*
X009930Y016516D03*
X009930Y017829D03*
X009930Y018641D03*
X009930Y019579D03*
X009680Y020391D03*
X008555Y020391D03*
X007493Y020391D03*
X000930Y012079D03*
X000930Y010391D03*
X001368Y008641D03*
X000868Y006704D03*
X000930Y003829D03*
X002618Y001641D03*
X006805Y001641D03*
X003743Y008954D03*
X002930Y010329D03*
X014368Y016391D03*
D31*
X004771Y008363D02*
X006430Y006704D01*
X004771Y008363D02*
X004430Y008363D01*
D32*
X006430Y006704D02*
X006680Y006704D01*
X007680Y005704D01*
X007930Y005704D01*
D33*
X007440Y008548D02*
X005961Y008548D01*
X005930Y008580D01*
X004987Y008580D01*
X004771Y008363D01*
X004430Y008363D02*
X004396Y008329D01*
X002929Y008329D01*
X002929Y009307D01*
X003086Y009464D01*
X009271Y010103D02*
X009920Y009454D01*
X009271Y010103D02*
X009271Y011579D01*
D34*
X004412Y012936D02*
X004305Y012829D01*
X004304Y012829D01*
X003679Y013454D01*
X002521Y013454D01*
X002521Y015079D01*
X002521Y013454D02*
X002521Y012284D01*
X002180Y011944D01*
X004305Y012703D02*
X004304Y012829D01*
X004412Y012936D02*
X004412Y014475D01*
D35*
X003180Y015204D03*
X002680Y016204D03*
X006430Y016079D03*
X011555Y013329D03*
X012055Y012704D03*
X012055Y019204D03*
X011805Y019954D03*
D36*
X010055Y014454D02*
X010118Y014391D01*
X010118Y014141D01*
X010180Y014079D01*
M02*
