G75*
%MOIN*%
%OFA0B0*%
%FSLAX24Y24*%
%IPPOS*%
%LPD*%
%AMOC8*
5,1,8,0,0,1.08239X$1,22.5*
%
%ADD10C,0.0000*%
%ADD11R,0.0591X0.0512*%
%ADD12R,0.0512X0.0591*%
%ADD13R,0.0630X0.0945*%
%ADD14R,0.0236X0.0866*%
%ADD15R,0.1181X0.0472*%
%ADD16R,0.0472X0.1181*%
%ADD17R,0.0551X0.0472*%
%ADD18R,0.0787X0.0591*%
%ADD19R,0.0787X0.1496*%
%ADD20R,0.0591X0.0787*%
%ADD21R,0.1496X0.0787*%
%ADD22R,0.0945X0.0630*%
%ADD23C,0.0310*%
D10*
X000180Y000954D02*
X000180Y023325D01*
X015050Y023325D01*
X015050Y000954D01*
X000180Y000954D01*
X000730Y002454D02*
X000732Y002506D01*
X000738Y002558D01*
X000748Y002610D01*
X000761Y002660D01*
X000778Y002710D01*
X000799Y002758D01*
X000824Y002804D01*
X000852Y002848D01*
X000883Y002890D01*
X000917Y002930D01*
X000954Y002967D01*
X000994Y003001D01*
X001036Y003032D01*
X001080Y003060D01*
X001126Y003085D01*
X001174Y003106D01*
X001224Y003123D01*
X001274Y003136D01*
X001326Y003146D01*
X001378Y003152D01*
X001430Y003154D01*
X001482Y003152D01*
X001534Y003146D01*
X001586Y003136D01*
X001636Y003123D01*
X001686Y003106D01*
X001734Y003085D01*
X001780Y003060D01*
X001824Y003032D01*
X001866Y003001D01*
X001906Y002967D01*
X001943Y002930D01*
X001977Y002890D01*
X002008Y002848D01*
X002036Y002804D01*
X002061Y002758D01*
X002082Y002710D01*
X002099Y002660D01*
X002112Y002610D01*
X002122Y002558D01*
X002128Y002506D01*
X002130Y002454D01*
X002128Y002402D01*
X002122Y002350D01*
X002112Y002298D01*
X002099Y002248D01*
X002082Y002198D01*
X002061Y002150D01*
X002036Y002104D01*
X002008Y002060D01*
X001977Y002018D01*
X001943Y001978D01*
X001906Y001941D01*
X001866Y001907D01*
X001824Y001876D01*
X001780Y001848D01*
X001734Y001823D01*
X001686Y001802D01*
X001636Y001785D01*
X001586Y001772D01*
X001534Y001762D01*
X001482Y001756D01*
X001430Y001754D01*
X001378Y001756D01*
X001326Y001762D01*
X001274Y001772D01*
X001224Y001785D01*
X001174Y001802D01*
X001126Y001823D01*
X001080Y001848D01*
X001036Y001876D01*
X000994Y001907D01*
X000954Y001941D01*
X000917Y001978D01*
X000883Y002018D01*
X000852Y002060D01*
X000824Y002104D01*
X000799Y002150D01*
X000778Y002198D01*
X000761Y002248D01*
X000748Y002298D01*
X000738Y002350D01*
X000732Y002402D01*
X000730Y002454D01*
X003790Y003204D02*
X003792Y003254D01*
X003798Y003304D01*
X003808Y003353D01*
X003821Y003402D01*
X003839Y003449D01*
X003860Y003495D01*
X003884Y003538D01*
X003912Y003580D01*
X003943Y003620D01*
X003977Y003657D01*
X004014Y003691D01*
X004054Y003722D01*
X004096Y003750D01*
X004139Y003774D01*
X004185Y003795D01*
X004232Y003813D01*
X004281Y003826D01*
X004330Y003836D01*
X004380Y003842D01*
X004430Y003844D01*
X004480Y003842D01*
X004530Y003836D01*
X004579Y003826D01*
X004628Y003813D01*
X004675Y003795D01*
X004721Y003774D01*
X004764Y003750D01*
X004806Y003722D01*
X004846Y003691D01*
X004883Y003657D01*
X004917Y003620D01*
X004948Y003580D01*
X004976Y003538D01*
X005000Y003495D01*
X005021Y003449D01*
X005039Y003402D01*
X005052Y003353D01*
X005062Y003304D01*
X005068Y003254D01*
X005070Y003204D01*
X005068Y003154D01*
X005062Y003104D01*
X005052Y003055D01*
X005039Y003006D01*
X005021Y002959D01*
X005000Y002913D01*
X004976Y002870D01*
X004948Y002828D01*
X004917Y002788D01*
X004883Y002751D01*
X004846Y002717D01*
X004806Y002686D01*
X004764Y002658D01*
X004721Y002634D01*
X004675Y002613D01*
X004628Y002595D01*
X004579Y002582D01*
X004530Y002572D01*
X004480Y002566D01*
X004430Y002564D01*
X004380Y002566D01*
X004330Y002572D01*
X004281Y002582D01*
X004232Y002595D01*
X004185Y002613D01*
X004139Y002634D01*
X004096Y002658D01*
X004054Y002686D01*
X004014Y002717D01*
X003977Y002751D01*
X003943Y002788D01*
X003912Y002828D01*
X003884Y002870D01*
X003860Y002913D01*
X003839Y002959D01*
X003821Y003006D01*
X003808Y003055D01*
X003798Y003104D01*
X003792Y003154D01*
X003790Y003204D01*
X008290Y003204D02*
X008292Y003254D01*
X008298Y003304D01*
X008308Y003353D01*
X008321Y003402D01*
X008339Y003449D01*
X008360Y003495D01*
X008384Y003538D01*
X008412Y003580D01*
X008443Y003620D01*
X008477Y003657D01*
X008514Y003691D01*
X008554Y003722D01*
X008596Y003750D01*
X008639Y003774D01*
X008685Y003795D01*
X008732Y003813D01*
X008781Y003826D01*
X008830Y003836D01*
X008880Y003842D01*
X008930Y003844D01*
X008980Y003842D01*
X009030Y003836D01*
X009079Y003826D01*
X009128Y003813D01*
X009175Y003795D01*
X009221Y003774D01*
X009264Y003750D01*
X009306Y003722D01*
X009346Y003691D01*
X009383Y003657D01*
X009417Y003620D01*
X009448Y003580D01*
X009476Y003538D01*
X009500Y003495D01*
X009521Y003449D01*
X009539Y003402D01*
X009552Y003353D01*
X009562Y003304D01*
X009568Y003254D01*
X009570Y003204D01*
X009568Y003154D01*
X009562Y003104D01*
X009552Y003055D01*
X009539Y003006D01*
X009521Y002959D01*
X009500Y002913D01*
X009476Y002870D01*
X009448Y002828D01*
X009417Y002788D01*
X009383Y002751D01*
X009346Y002717D01*
X009306Y002686D01*
X009264Y002658D01*
X009221Y002634D01*
X009175Y002613D01*
X009128Y002595D01*
X009079Y002582D01*
X009030Y002572D01*
X008980Y002566D01*
X008930Y002564D01*
X008880Y002566D01*
X008830Y002572D01*
X008781Y002582D01*
X008732Y002595D01*
X008685Y002613D01*
X008639Y002634D01*
X008596Y002658D01*
X008554Y002686D01*
X008514Y002717D01*
X008477Y002751D01*
X008443Y002788D01*
X008412Y002828D01*
X008384Y002870D01*
X008360Y002913D01*
X008339Y002959D01*
X008321Y003006D01*
X008308Y003055D01*
X008298Y003104D01*
X008292Y003154D01*
X008290Y003204D01*
X013483Y010704D02*
X013485Y010731D01*
X013491Y010758D01*
X013500Y010784D01*
X013513Y010808D01*
X013529Y010831D01*
X013548Y010850D01*
X013570Y010867D01*
X013594Y010881D01*
X013619Y010891D01*
X013646Y010898D01*
X013673Y010901D01*
X013701Y010900D01*
X013728Y010895D01*
X013754Y010887D01*
X013778Y010875D01*
X013801Y010859D01*
X013822Y010841D01*
X013839Y010820D01*
X013854Y010796D01*
X013865Y010771D01*
X013873Y010745D01*
X013877Y010718D01*
X013877Y010690D01*
X013873Y010663D01*
X013865Y010637D01*
X013854Y010612D01*
X013839Y010588D01*
X013822Y010567D01*
X013801Y010549D01*
X013779Y010533D01*
X013754Y010521D01*
X013728Y010513D01*
X013701Y010508D01*
X013673Y010507D01*
X013646Y010510D01*
X013619Y010517D01*
X013594Y010527D01*
X013570Y010541D01*
X013548Y010558D01*
X013529Y010577D01*
X013513Y010600D01*
X013500Y010624D01*
X013491Y010650D01*
X013485Y010677D01*
X013483Y010704D01*
X013083Y013704D02*
X013085Y013731D01*
X013091Y013758D01*
X013100Y013784D01*
X013113Y013808D01*
X013129Y013831D01*
X013148Y013850D01*
X013170Y013867D01*
X013194Y013881D01*
X013219Y013891D01*
X013246Y013898D01*
X013273Y013901D01*
X013301Y013900D01*
X013328Y013895D01*
X013354Y013887D01*
X013378Y013875D01*
X013401Y013859D01*
X013422Y013841D01*
X013439Y013820D01*
X013454Y013796D01*
X013465Y013771D01*
X013473Y013745D01*
X013477Y013718D01*
X013477Y013690D01*
X013473Y013663D01*
X013465Y013637D01*
X013454Y013612D01*
X013439Y013588D01*
X013422Y013567D01*
X013401Y013549D01*
X013379Y013533D01*
X013354Y013521D01*
X013328Y013513D01*
X013301Y013508D01*
X013273Y013507D01*
X013246Y013510D01*
X013219Y013517D01*
X013194Y013527D01*
X013170Y013541D01*
X013148Y013558D01*
X013129Y013577D01*
X013113Y013600D01*
X013100Y013624D01*
X013091Y013650D01*
X013085Y013677D01*
X013083Y013704D01*
X013883Y013704D02*
X013885Y013731D01*
X013891Y013758D01*
X013900Y013784D01*
X013913Y013808D01*
X013929Y013831D01*
X013948Y013850D01*
X013970Y013867D01*
X013994Y013881D01*
X014019Y013891D01*
X014046Y013898D01*
X014073Y013901D01*
X014101Y013900D01*
X014128Y013895D01*
X014154Y013887D01*
X014178Y013875D01*
X014201Y013859D01*
X014222Y013841D01*
X014239Y013820D01*
X014254Y013796D01*
X014265Y013771D01*
X014273Y013745D01*
X014277Y013718D01*
X014277Y013690D01*
X014273Y013663D01*
X014265Y013637D01*
X014254Y013612D01*
X014239Y013588D01*
X014222Y013567D01*
X014201Y013549D01*
X014179Y013533D01*
X014154Y013521D01*
X014128Y013513D01*
X014101Y013508D01*
X014073Y013507D01*
X014046Y013510D01*
X014019Y013517D01*
X013994Y013527D01*
X013970Y013541D01*
X013948Y013558D01*
X013929Y013577D01*
X013913Y013600D01*
X013900Y013624D01*
X013891Y013650D01*
X013885Y013677D01*
X013883Y013704D01*
X013105Y021954D02*
X013107Y022006D01*
X013113Y022058D01*
X013123Y022110D01*
X013136Y022160D01*
X013153Y022210D01*
X013174Y022258D01*
X013199Y022304D01*
X013227Y022348D01*
X013258Y022390D01*
X013292Y022430D01*
X013329Y022467D01*
X013369Y022501D01*
X013411Y022532D01*
X013455Y022560D01*
X013501Y022585D01*
X013549Y022606D01*
X013599Y022623D01*
X013649Y022636D01*
X013701Y022646D01*
X013753Y022652D01*
X013805Y022654D01*
X013857Y022652D01*
X013909Y022646D01*
X013961Y022636D01*
X014011Y022623D01*
X014061Y022606D01*
X014109Y022585D01*
X014155Y022560D01*
X014199Y022532D01*
X014241Y022501D01*
X014281Y022467D01*
X014318Y022430D01*
X014352Y022390D01*
X014383Y022348D01*
X014411Y022304D01*
X014436Y022258D01*
X014457Y022210D01*
X014474Y022160D01*
X014487Y022110D01*
X014497Y022058D01*
X014503Y022006D01*
X014505Y021954D01*
X014503Y021902D01*
X014497Y021850D01*
X014487Y021798D01*
X014474Y021748D01*
X014457Y021698D01*
X014436Y021650D01*
X014411Y021604D01*
X014383Y021560D01*
X014352Y021518D01*
X014318Y021478D01*
X014281Y021441D01*
X014241Y021407D01*
X014199Y021376D01*
X014155Y021348D01*
X014109Y021323D01*
X014061Y021302D01*
X014011Y021285D01*
X013961Y021272D01*
X013909Y021262D01*
X013857Y021256D01*
X013805Y021254D01*
X013753Y021256D01*
X013701Y021262D01*
X013649Y021272D01*
X013599Y021285D01*
X013549Y021302D01*
X013501Y021323D01*
X013455Y021348D01*
X013411Y021376D01*
X013369Y021407D01*
X013329Y021441D01*
X013292Y021478D01*
X013258Y021518D01*
X013227Y021560D01*
X013199Y021604D01*
X013174Y021650D01*
X013153Y021698D01*
X013136Y021748D01*
X013123Y021798D01*
X013113Y021850D01*
X013107Y021902D01*
X013105Y021954D01*
X000855Y021954D02*
X000857Y022006D01*
X000863Y022058D01*
X000873Y022110D01*
X000886Y022160D01*
X000903Y022210D01*
X000924Y022258D01*
X000949Y022304D01*
X000977Y022348D01*
X001008Y022390D01*
X001042Y022430D01*
X001079Y022467D01*
X001119Y022501D01*
X001161Y022532D01*
X001205Y022560D01*
X001251Y022585D01*
X001299Y022606D01*
X001349Y022623D01*
X001399Y022636D01*
X001451Y022646D01*
X001503Y022652D01*
X001555Y022654D01*
X001607Y022652D01*
X001659Y022646D01*
X001711Y022636D01*
X001761Y022623D01*
X001811Y022606D01*
X001859Y022585D01*
X001905Y022560D01*
X001949Y022532D01*
X001991Y022501D01*
X002031Y022467D01*
X002068Y022430D01*
X002102Y022390D01*
X002133Y022348D01*
X002161Y022304D01*
X002186Y022258D01*
X002207Y022210D01*
X002224Y022160D01*
X002237Y022110D01*
X002247Y022058D01*
X002253Y022006D01*
X002255Y021954D01*
X002253Y021902D01*
X002247Y021850D01*
X002237Y021798D01*
X002224Y021748D01*
X002207Y021698D01*
X002186Y021650D01*
X002161Y021604D01*
X002133Y021560D01*
X002102Y021518D01*
X002068Y021478D01*
X002031Y021441D01*
X001991Y021407D01*
X001949Y021376D01*
X001905Y021348D01*
X001859Y021323D01*
X001811Y021302D01*
X001761Y021285D01*
X001711Y021272D01*
X001659Y021262D01*
X001607Y021256D01*
X001555Y021254D01*
X001503Y021256D01*
X001451Y021262D01*
X001399Y021272D01*
X001349Y021285D01*
X001299Y021302D01*
X001251Y021323D01*
X001205Y021348D01*
X001161Y021376D01*
X001119Y021407D01*
X001079Y021441D01*
X001042Y021478D01*
X001008Y021518D01*
X000977Y021560D01*
X000949Y021604D01*
X000924Y021650D01*
X000903Y021698D01*
X000886Y021748D01*
X000873Y021798D01*
X000863Y021850D01*
X000857Y021902D01*
X000855Y021954D01*
X013105Y002204D02*
X013107Y002256D01*
X013113Y002308D01*
X013123Y002360D01*
X013136Y002410D01*
X013153Y002460D01*
X013174Y002508D01*
X013199Y002554D01*
X013227Y002598D01*
X013258Y002640D01*
X013292Y002680D01*
X013329Y002717D01*
X013369Y002751D01*
X013411Y002782D01*
X013455Y002810D01*
X013501Y002835D01*
X013549Y002856D01*
X013599Y002873D01*
X013649Y002886D01*
X013701Y002896D01*
X013753Y002902D01*
X013805Y002904D01*
X013857Y002902D01*
X013909Y002896D01*
X013961Y002886D01*
X014011Y002873D01*
X014061Y002856D01*
X014109Y002835D01*
X014155Y002810D01*
X014199Y002782D01*
X014241Y002751D01*
X014281Y002717D01*
X014318Y002680D01*
X014352Y002640D01*
X014383Y002598D01*
X014411Y002554D01*
X014436Y002508D01*
X014457Y002460D01*
X014474Y002410D01*
X014487Y002360D01*
X014497Y002308D01*
X014503Y002256D01*
X014505Y002204D01*
X014503Y002152D01*
X014497Y002100D01*
X014487Y002048D01*
X014474Y001998D01*
X014457Y001948D01*
X014436Y001900D01*
X014411Y001854D01*
X014383Y001810D01*
X014352Y001768D01*
X014318Y001728D01*
X014281Y001691D01*
X014241Y001657D01*
X014199Y001626D01*
X014155Y001598D01*
X014109Y001573D01*
X014061Y001552D01*
X014011Y001535D01*
X013961Y001522D01*
X013909Y001512D01*
X013857Y001506D01*
X013805Y001504D01*
X013753Y001506D01*
X013701Y001512D01*
X013649Y001522D01*
X013599Y001535D01*
X013549Y001552D01*
X013501Y001573D01*
X013455Y001598D01*
X013411Y001626D01*
X013369Y001657D01*
X013329Y001691D01*
X013292Y001728D01*
X013258Y001768D01*
X013227Y001810D01*
X013199Y001854D01*
X013174Y001900D01*
X013153Y001948D01*
X013136Y001998D01*
X013123Y002048D01*
X013113Y002100D01*
X013107Y002152D01*
X013105Y002204D01*
D11*
X013555Y008330D03*
X013555Y009078D03*
X012055Y011369D03*
X012055Y012038D03*
X012180Y015494D03*
X012180Y016163D03*
X012805Y019244D03*
X012805Y019913D03*
X005930Y009328D03*
X005930Y008580D03*
X004305Y011955D03*
X004305Y012703D03*
D12*
X002929Y008329D03*
X002181Y008329D03*
X012095Y017204D03*
X012765Y017204D03*
X012765Y018204D03*
X012095Y018204D03*
D13*
X009271Y011579D03*
X008089Y011579D03*
X002521Y013454D03*
X002521Y015079D03*
X001339Y015079D03*
X001339Y013454D03*
D14*
X011180Y010227D03*
X011680Y010227D03*
X012180Y010227D03*
X012680Y010227D03*
X012680Y008180D03*
X012180Y008180D03*
X011680Y008180D03*
X011180Y008180D03*
D15*
X010869Y014475D03*
X010869Y015263D03*
X010869Y016050D03*
X010869Y016838D03*
X010869Y017625D03*
X010869Y018412D03*
X010869Y019200D03*
X010869Y019987D03*
X004412Y019987D03*
X004412Y019200D03*
X004412Y018412D03*
X004412Y017625D03*
X004412Y016838D03*
X004412Y016050D03*
X004412Y015263D03*
X004412Y014475D03*
D16*
X005790Y013649D03*
X006578Y013649D03*
X007365Y013649D03*
X008152Y013649D03*
X008940Y013649D03*
X009727Y013649D03*
D17*
X013930Y015863D03*
X013930Y017044D03*
X013930Y018113D03*
X013930Y019294D03*
D18*
X007440Y010359D03*
X007440Y009454D03*
X007440Y008548D03*
D19*
X009920Y009454D03*
D20*
X003086Y009464D03*
X002180Y009464D03*
X001274Y009464D03*
D21*
X002180Y011944D03*
D22*
X004430Y009544D03*
X004430Y008363D03*
D23*
X013430Y011204D03*
X013430Y011704D03*
X013430Y012204D03*
X013430Y012704D03*
X013430Y013204D03*
X013930Y013204D03*
X013930Y012704D03*
X013930Y012204D03*
X013930Y011704D03*
X013930Y011204D03*
M02*
