G75*
%MOIN*%
%OFA0B0*%
%FSLAX24Y24*%
%IPPOS*%
%LPD*%
%AMOC8*
5,1,8,0,0,1.08239X$1,22.5*
%
%ADD10C,0.0000*%
%ADD11C,0.0100*%
%ADD12C,0.0554*%
%ADD13C,0.0945*%
%ADD14C,0.0740*%
%ADD15C,0.0160*%
%ADD16C,0.0497*%
%ADD17C,0.0536*%
D10*
X000180Y000954D02*
X000180Y023325D01*
X015050Y023325D01*
X015050Y000954D01*
X000180Y000954D01*
X000730Y002454D02*
X000732Y002506D01*
X000738Y002558D01*
X000748Y002610D01*
X000761Y002660D01*
X000778Y002710D01*
X000799Y002758D01*
X000824Y002804D01*
X000852Y002848D01*
X000883Y002890D01*
X000917Y002930D01*
X000954Y002967D01*
X000994Y003001D01*
X001036Y003032D01*
X001080Y003060D01*
X001126Y003085D01*
X001174Y003106D01*
X001224Y003123D01*
X001274Y003136D01*
X001326Y003146D01*
X001378Y003152D01*
X001430Y003154D01*
X001482Y003152D01*
X001534Y003146D01*
X001586Y003136D01*
X001636Y003123D01*
X001686Y003106D01*
X001734Y003085D01*
X001780Y003060D01*
X001824Y003032D01*
X001866Y003001D01*
X001906Y002967D01*
X001943Y002930D01*
X001977Y002890D01*
X002008Y002848D01*
X002036Y002804D01*
X002061Y002758D01*
X002082Y002710D01*
X002099Y002660D01*
X002112Y002610D01*
X002122Y002558D01*
X002128Y002506D01*
X002130Y002454D01*
X002128Y002402D01*
X002122Y002350D01*
X002112Y002298D01*
X002099Y002248D01*
X002082Y002198D01*
X002061Y002150D01*
X002036Y002104D01*
X002008Y002060D01*
X001977Y002018D01*
X001943Y001978D01*
X001906Y001941D01*
X001866Y001907D01*
X001824Y001876D01*
X001780Y001848D01*
X001734Y001823D01*
X001686Y001802D01*
X001636Y001785D01*
X001586Y001772D01*
X001534Y001762D01*
X001482Y001756D01*
X001430Y001754D01*
X001378Y001756D01*
X001326Y001762D01*
X001274Y001772D01*
X001224Y001785D01*
X001174Y001802D01*
X001126Y001823D01*
X001080Y001848D01*
X001036Y001876D01*
X000994Y001907D01*
X000954Y001941D01*
X000917Y001978D01*
X000883Y002018D01*
X000852Y002060D01*
X000824Y002104D01*
X000799Y002150D01*
X000778Y002198D01*
X000761Y002248D01*
X000748Y002298D01*
X000738Y002350D01*
X000732Y002402D01*
X000730Y002454D01*
X003790Y003204D02*
X003792Y003254D01*
X003798Y003304D01*
X003808Y003353D01*
X003821Y003402D01*
X003839Y003449D01*
X003860Y003495D01*
X003884Y003538D01*
X003912Y003580D01*
X003943Y003620D01*
X003977Y003657D01*
X004014Y003691D01*
X004054Y003722D01*
X004096Y003750D01*
X004139Y003774D01*
X004185Y003795D01*
X004232Y003813D01*
X004281Y003826D01*
X004330Y003836D01*
X004380Y003842D01*
X004430Y003844D01*
X004480Y003842D01*
X004530Y003836D01*
X004579Y003826D01*
X004628Y003813D01*
X004675Y003795D01*
X004721Y003774D01*
X004764Y003750D01*
X004806Y003722D01*
X004846Y003691D01*
X004883Y003657D01*
X004917Y003620D01*
X004948Y003580D01*
X004976Y003538D01*
X005000Y003495D01*
X005021Y003449D01*
X005039Y003402D01*
X005052Y003353D01*
X005062Y003304D01*
X005068Y003254D01*
X005070Y003204D01*
X005068Y003154D01*
X005062Y003104D01*
X005052Y003055D01*
X005039Y003006D01*
X005021Y002959D01*
X005000Y002913D01*
X004976Y002870D01*
X004948Y002828D01*
X004917Y002788D01*
X004883Y002751D01*
X004846Y002717D01*
X004806Y002686D01*
X004764Y002658D01*
X004721Y002634D01*
X004675Y002613D01*
X004628Y002595D01*
X004579Y002582D01*
X004530Y002572D01*
X004480Y002566D01*
X004430Y002564D01*
X004380Y002566D01*
X004330Y002572D01*
X004281Y002582D01*
X004232Y002595D01*
X004185Y002613D01*
X004139Y002634D01*
X004096Y002658D01*
X004054Y002686D01*
X004014Y002717D01*
X003977Y002751D01*
X003943Y002788D01*
X003912Y002828D01*
X003884Y002870D01*
X003860Y002913D01*
X003839Y002959D01*
X003821Y003006D01*
X003808Y003055D01*
X003798Y003104D01*
X003792Y003154D01*
X003790Y003204D01*
X008290Y003204D02*
X008292Y003254D01*
X008298Y003304D01*
X008308Y003353D01*
X008321Y003402D01*
X008339Y003449D01*
X008360Y003495D01*
X008384Y003538D01*
X008412Y003580D01*
X008443Y003620D01*
X008477Y003657D01*
X008514Y003691D01*
X008554Y003722D01*
X008596Y003750D01*
X008639Y003774D01*
X008685Y003795D01*
X008732Y003813D01*
X008781Y003826D01*
X008830Y003836D01*
X008880Y003842D01*
X008930Y003844D01*
X008980Y003842D01*
X009030Y003836D01*
X009079Y003826D01*
X009128Y003813D01*
X009175Y003795D01*
X009221Y003774D01*
X009264Y003750D01*
X009306Y003722D01*
X009346Y003691D01*
X009383Y003657D01*
X009417Y003620D01*
X009448Y003580D01*
X009476Y003538D01*
X009500Y003495D01*
X009521Y003449D01*
X009539Y003402D01*
X009552Y003353D01*
X009562Y003304D01*
X009568Y003254D01*
X009570Y003204D01*
X009568Y003154D01*
X009562Y003104D01*
X009552Y003055D01*
X009539Y003006D01*
X009521Y002959D01*
X009500Y002913D01*
X009476Y002870D01*
X009448Y002828D01*
X009417Y002788D01*
X009383Y002751D01*
X009346Y002717D01*
X009306Y002686D01*
X009264Y002658D01*
X009221Y002634D01*
X009175Y002613D01*
X009128Y002595D01*
X009079Y002582D01*
X009030Y002572D01*
X008980Y002566D01*
X008930Y002564D01*
X008880Y002566D01*
X008830Y002572D01*
X008781Y002582D01*
X008732Y002595D01*
X008685Y002613D01*
X008639Y002634D01*
X008596Y002658D01*
X008554Y002686D01*
X008514Y002717D01*
X008477Y002751D01*
X008443Y002788D01*
X008412Y002828D01*
X008384Y002870D01*
X008360Y002913D01*
X008339Y002959D01*
X008321Y003006D01*
X008308Y003055D01*
X008298Y003104D01*
X008292Y003154D01*
X008290Y003204D01*
X013483Y010704D02*
X013485Y010731D01*
X013491Y010758D01*
X013500Y010784D01*
X013513Y010808D01*
X013529Y010831D01*
X013548Y010850D01*
X013570Y010867D01*
X013594Y010881D01*
X013619Y010891D01*
X013646Y010898D01*
X013673Y010901D01*
X013701Y010900D01*
X013728Y010895D01*
X013754Y010887D01*
X013778Y010875D01*
X013801Y010859D01*
X013822Y010841D01*
X013839Y010820D01*
X013854Y010796D01*
X013865Y010771D01*
X013873Y010745D01*
X013877Y010718D01*
X013877Y010690D01*
X013873Y010663D01*
X013865Y010637D01*
X013854Y010612D01*
X013839Y010588D01*
X013822Y010567D01*
X013801Y010549D01*
X013779Y010533D01*
X013754Y010521D01*
X013728Y010513D01*
X013701Y010508D01*
X013673Y010507D01*
X013646Y010510D01*
X013619Y010517D01*
X013594Y010527D01*
X013570Y010541D01*
X013548Y010558D01*
X013529Y010577D01*
X013513Y010600D01*
X013500Y010624D01*
X013491Y010650D01*
X013485Y010677D01*
X013483Y010704D01*
X013083Y013704D02*
X013085Y013731D01*
X013091Y013758D01*
X013100Y013784D01*
X013113Y013808D01*
X013129Y013831D01*
X013148Y013850D01*
X013170Y013867D01*
X013194Y013881D01*
X013219Y013891D01*
X013246Y013898D01*
X013273Y013901D01*
X013301Y013900D01*
X013328Y013895D01*
X013354Y013887D01*
X013378Y013875D01*
X013401Y013859D01*
X013422Y013841D01*
X013439Y013820D01*
X013454Y013796D01*
X013465Y013771D01*
X013473Y013745D01*
X013477Y013718D01*
X013477Y013690D01*
X013473Y013663D01*
X013465Y013637D01*
X013454Y013612D01*
X013439Y013588D01*
X013422Y013567D01*
X013401Y013549D01*
X013379Y013533D01*
X013354Y013521D01*
X013328Y013513D01*
X013301Y013508D01*
X013273Y013507D01*
X013246Y013510D01*
X013219Y013517D01*
X013194Y013527D01*
X013170Y013541D01*
X013148Y013558D01*
X013129Y013577D01*
X013113Y013600D01*
X013100Y013624D01*
X013091Y013650D01*
X013085Y013677D01*
X013083Y013704D01*
X013883Y013704D02*
X013885Y013731D01*
X013891Y013758D01*
X013900Y013784D01*
X013913Y013808D01*
X013929Y013831D01*
X013948Y013850D01*
X013970Y013867D01*
X013994Y013881D01*
X014019Y013891D01*
X014046Y013898D01*
X014073Y013901D01*
X014101Y013900D01*
X014128Y013895D01*
X014154Y013887D01*
X014178Y013875D01*
X014201Y013859D01*
X014222Y013841D01*
X014239Y013820D01*
X014254Y013796D01*
X014265Y013771D01*
X014273Y013745D01*
X014277Y013718D01*
X014277Y013690D01*
X014273Y013663D01*
X014265Y013637D01*
X014254Y013612D01*
X014239Y013588D01*
X014222Y013567D01*
X014201Y013549D01*
X014179Y013533D01*
X014154Y013521D01*
X014128Y013513D01*
X014101Y013508D01*
X014073Y013507D01*
X014046Y013510D01*
X014019Y013517D01*
X013994Y013527D01*
X013970Y013541D01*
X013948Y013558D01*
X013929Y013577D01*
X013913Y013600D01*
X013900Y013624D01*
X013891Y013650D01*
X013885Y013677D01*
X013883Y013704D01*
X013105Y021954D02*
X013107Y022006D01*
X013113Y022058D01*
X013123Y022110D01*
X013136Y022160D01*
X013153Y022210D01*
X013174Y022258D01*
X013199Y022304D01*
X013227Y022348D01*
X013258Y022390D01*
X013292Y022430D01*
X013329Y022467D01*
X013369Y022501D01*
X013411Y022532D01*
X013455Y022560D01*
X013501Y022585D01*
X013549Y022606D01*
X013599Y022623D01*
X013649Y022636D01*
X013701Y022646D01*
X013753Y022652D01*
X013805Y022654D01*
X013857Y022652D01*
X013909Y022646D01*
X013961Y022636D01*
X014011Y022623D01*
X014061Y022606D01*
X014109Y022585D01*
X014155Y022560D01*
X014199Y022532D01*
X014241Y022501D01*
X014281Y022467D01*
X014318Y022430D01*
X014352Y022390D01*
X014383Y022348D01*
X014411Y022304D01*
X014436Y022258D01*
X014457Y022210D01*
X014474Y022160D01*
X014487Y022110D01*
X014497Y022058D01*
X014503Y022006D01*
X014505Y021954D01*
X014503Y021902D01*
X014497Y021850D01*
X014487Y021798D01*
X014474Y021748D01*
X014457Y021698D01*
X014436Y021650D01*
X014411Y021604D01*
X014383Y021560D01*
X014352Y021518D01*
X014318Y021478D01*
X014281Y021441D01*
X014241Y021407D01*
X014199Y021376D01*
X014155Y021348D01*
X014109Y021323D01*
X014061Y021302D01*
X014011Y021285D01*
X013961Y021272D01*
X013909Y021262D01*
X013857Y021256D01*
X013805Y021254D01*
X013753Y021256D01*
X013701Y021262D01*
X013649Y021272D01*
X013599Y021285D01*
X013549Y021302D01*
X013501Y021323D01*
X013455Y021348D01*
X013411Y021376D01*
X013369Y021407D01*
X013329Y021441D01*
X013292Y021478D01*
X013258Y021518D01*
X013227Y021560D01*
X013199Y021604D01*
X013174Y021650D01*
X013153Y021698D01*
X013136Y021748D01*
X013123Y021798D01*
X013113Y021850D01*
X013107Y021902D01*
X013105Y021954D01*
X000855Y021954D02*
X000857Y022006D01*
X000863Y022058D01*
X000873Y022110D01*
X000886Y022160D01*
X000903Y022210D01*
X000924Y022258D01*
X000949Y022304D01*
X000977Y022348D01*
X001008Y022390D01*
X001042Y022430D01*
X001079Y022467D01*
X001119Y022501D01*
X001161Y022532D01*
X001205Y022560D01*
X001251Y022585D01*
X001299Y022606D01*
X001349Y022623D01*
X001399Y022636D01*
X001451Y022646D01*
X001503Y022652D01*
X001555Y022654D01*
X001607Y022652D01*
X001659Y022646D01*
X001711Y022636D01*
X001761Y022623D01*
X001811Y022606D01*
X001859Y022585D01*
X001905Y022560D01*
X001949Y022532D01*
X001991Y022501D01*
X002031Y022467D01*
X002068Y022430D01*
X002102Y022390D01*
X002133Y022348D01*
X002161Y022304D01*
X002186Y022258D01*
X002207Y022210D01*
X002224Y022160D01*
X002237Y022110D01*
X002247Y022058D01*
X002253Y022006D01*
X002255Y021954D01*
X002253Y021902D01*
X002247Y021850D01*
X002237Y021798D01*
X002224Y021748D01*
X002207Y021698D01*
X002186Y021650D01*
X002161Y021604D01*
X002133Y021560D01*
X002102Y021518D01*
X002068Y021478D01*
X002031Y021441D01*
X001991Y021407D01*
X001949Y021376D01*
X001905Y021348D01*
X001859Y021323D01*
X001811Y021302D01*
X001761Y021285D01*
X001711Y021272D01*
X001659Y021262D01*
X001607Y021256D01*
X001555Y021254D01*
X001503Y021256D01*
X001451Y021262D01*
X001399Y021272D01*
X001349Y021285D01*
X001299Y021302D01*
X001251Y021323D01*
X001205Y021348D01*
X001161Y021376D01*
X001119Y021407D01*
X001079Y021441D01*
X001042Y021478D01*
X001008Y021518D01*
X000977Y021560D01*
X000949Y021604D01*
X000924Y021650D01*
X000903Y021698D01*
X000886Y021748D01*
X000873Y021798D01*
X000863Y021850D01*
X000857Y021902D01*
X000855Y021954D01*
X013105Y002204D02*
X013107Y002256D01*
X013113Y002308D01*
X013123Y002360D01*
X013136Y002410D01*
X013153Y002460D01*
X013174Y002508D01*
X013199Y002554D01*
X013227Y002598D01*
X013258Y002640D01*
X013292Y002680D01*
X013329Y002717D01*
X013369Y002751D01*
X013411Y002782D01*
X013455Y002810D01*
X013501Y002835D01*
X013549Y002856D01*
X013599Y002873D01*
X013649Y002886D01*
X013701Y002896D01*
X013753Y002902D01*
X013805Y002904D01*
X013857Y002902D01*
X013909Y002896D01*
X013961Y002886D01*
X014011Y002873D01*
X014061Y002856D01*
X014109Y002835D01*
X014155Y002810D01*
X014199Y002782D01*
X014241Y002751D01*
X014281Y002717D01*
X014318Y002680D01*
X014352Y002640D01*
X014383Y002598D01*
X014411Y002554D01*
X014436Y002508D01*
X014457Y002460D01*
X014474Y002410D01*
X014487Y002360D01*
X014497Y002308D01*
X014503Y002256D01*
X014505Y002204D01*
X014503Y002152D01*
X014497Y002100D01*
X014487Y002048D01*
X014474Y001998D01*
X014457Y001948D01*
X014436Y001900D01*
X014411Y001854D01*
X014383Y001810D01*
X014352Y001768D01*
X014318Y001728D01*
X014281Y001691D01*
X014241Y001657D01*
X014199Y001626D01*
X014155Y001598D01*
X014109Y001573D01*
X014061Y001552D01*
X014011Y001535D01*
X013961Y001522D01*
X013909Y001512D01*
X013857Y001506D01*
X013805Y001504D01*
X013753Y001506D01*
X013701Y001512D01*
X013649Y001522D01*
X013599Y001535D01*
X013549Y001552D01*
X013501Y001573D01*
X013455Y001598D01*
X013411Y001626D01*
X013369Y001657D01*
X013329Y001691D01*
X013292Y001728D01*
X013258Y001768D01*
X013227Y001810D01*
X013199Y001854D01*
X013174Y001900D01*
X013153Y001948D01*
X013136Y001998D01*
X013123Y002048D01*
X013113Y002100D01*
X013107Y002152D01*
X013105Y002204D01*
D11*
X012130Y002215D02*
X011730Y002215D01*
X011863Y002082D01*
X011730Y001948D01*
X012130Y001948D01*
X012130Y002409D02*
X012130Y002542D01*
X012130Y002475D02*
X011730Y002475D01*
X011730Y002409D02*
X011730Y002542D01*
X011730Y002715D02*
X012130Y002715D01*
X011930Y002782D02*
X011730Y002982D01*
X011730Y003176D02*
X011730Y003243D01*
X011797Y003243D01*
X011797Y003176D01*
X011730Y003176D01*
X011730Y003406D02*
X011730Y003606D01*
X011797Y003673D01*
X011930Y003673D01*
X011997Y003606D01*
X011997Y003406D01*
X011597Y003406D01*
X011730Y003866D02*
X011730Y004000D01*
X011730Y003933D02*
X012130Y003933D01*
X012130Y003866D01*
X011663Y004173D02*
X011663Y004440D01*
X011730Y004634D02*
X011863Y004767D01*
X011730Y004901D01*
X012130Y004901D01*
X012130Y005094D02*
X012130Y005228D01*
X012130Y005161D02*
X011730Y005161D01*
X011730Y005094D02*
X011730Y005228D01*
X011730Y005401D02*
X012130Y005401D01*
X012130Y005668D01*
X012130Y005861D02*
X012130Y005995D01*
X012130Y005928D02*
X011730Y005928D01*
X011730Y005861D02*
X011730Y005995D01*
X011730Y006168D02*
X011730Y006435D01*
X011730Y006302D02*
X012130Y006302D01*
X011997Y006168D01*
X011930Y005535D02*
X011930Y005401D01*
X012130Y004634D02*
X011730Y004634D01*
X012130Y002982D02*
X011863Y002715D01*
D12*
X008430Y006704D03*
X007930Y005704D03*
X007430Y006704D03*
X006930Y005704D03*
X006430Y006704D03*
X005930Y005704D03*
X005430Y006704D03*
X004930Y005704D03*
D13*
X003830Y002004D03*
X009530Y002004D03*
D14*
X002820Y017174D03*
X002820Y019734D03*
X001040Y019734D03*
X001040Y017174D03*
D15*
X002010Y016204D01*
X002680Y016204D01*
X002785Y016624D02*
X002800Y016624D01*
X002800Y017154D01*
X002270Y017154D01*
X002270Y017130D01*
X002284Y017045D01*
X002310Y016963D01*
X002350Y016886D01*
X002400Y016815D01*
X002462Y016754D01*
X002532Y016703D01*
X002609Y016664D01*
X002691Y016637D01*
X002726Y016632D01*
X002595Y016632D01*
X002437Y016567D01*
X002317Y016446D01*
X002316Y016444D01*
X002109Y016444D01*
X001545Y017008D01*
X001570Y017068D01*
X001570Y017279D01*
X001489Y017474D01*
X001340Y017623D01*
X001145Y017704D01*
X000935Y017704D01*
X000740Y017623D01*
X000591Y017474D01*
X000510Y017279D01*
X000510Y017068D01*
X000591Y016874D01*
X000740Y016724D01*
X000935Y016644D01*
X001145Y016644D01*
X001206Y016669D01*
X001874Y016000D01*
X001962Y015964D01*
X002316Y015964D01*
X002317Y015961D01*
X002437Y015841D01*
X002595Y015776D01*
X002765Y015776D01*
X002923Y015841D01*
X003043Y015961D01*
X003108Y016119D01*
X003108Y016289D01*
X003043Y016446D01*
X002923Y016567D01*
X002785Y016624D01*
X002800Y016645D02*
X002840Y016645D01*
X002840Y016624D02*
X002863Y016624D01*
X002949Y016637D01*
X003031Y016664D01*
X003108Y016703D01*
X003178Y016754D01*
X003240Y016815D01*
X003290Y016886D01*
X003330Y016963D01*
X003356Y017045D01*
X003370Y017130D01*
X003370Y017154D01*
X002840Y017154D01*
X002840Y017194D01*
X002800Y017194D01*
X002800Y017724D01*
X002777Y017724D01*
X002691Y017710D01*
X002609Y017683D01*
X002532Y017644D01*
X002462Y017593D01*
X002400Y017532D01*
X002350Y017462D01*
X002310Y017385D01*
X002284Y017303D01*
X002270Y017217D01*
X002270Y017194D01*
X002800Y017194D01*
X002800Y017154D01*
X002840Y017154D01*
X002840Y016624D01*
X002973Y016645D02*
X011315Y016645D01*
X011315Y016487D02*
X006564Y016487D01*
X006515Y016507D02*
X006673Y016442D01*
X006793Y016321D01*
X006858Y016164D01*
X006858Y015994D01*
X006793Y015836D01*
X006673Y015716D01*
X006515Y015651D01*
X006345Y015651D01*
X006342Y015652D01*
X006258Y015568D01*
X006191Y015500D01*
X006103Y015464D01*
X003654Y015464D01*
X003570Y015380D01*
X003608Y015289D01*
X003608Y015119D01*
X003543Y014961D01*
X003423Y014841D01*
X003265Y014776D01*
X003095Y014776D01*
X002937Y014841D01*
X002817Y014961D01*
X002752Y015119D01*
X002752Y015289D01*
X002817Y015446D01*
X002937Y015567D01*
X003095Y015632D01*
X003144Y015632D01*
X003419Y015907D01*
X003507Y015944D01*
X005956Y015944D01*
X006003Y015991D01*
X006002Y015994D01*
X006002Y016164D01*
X006067Y016321D01*
X006187Y016442D01*
X006345Y016507D01*
X006515Y016507D01*
X006296Y016487D02*
X003002Y016487D01*
X003092Y016328D02*
X006074Y016328D01*
X006004Y016170D02*
X003108Y016170D01*
X003064Y016011D02*
X006002Y016011D01*
X006055Y015704D02*
X003555Y015704D01*
X003180Y015329D01*
X003180Y015204D01*
X002788Y015377D02*
X000460Y015377D01*
X000460Y015219D02*
X002752Y015219D01*
X002776Y015060D02*
X000460Y015060D01*
X000460Y014902D02*
X002877Y014902D01*
X002907Y015536D02*
X000460Y015536D01*
X000460Y015694D02*
X003206Y015694D01*
X003365Y015853D02*
X002934Y015853D01*
X002426Y015853D02*
X000460Y015853D01*
X000460Y016011D02*
X001863Y016011D01*
X001705Y016170D02*
X000460Y016170D01*
X000460Y016328D02*
X001546Y016328D01*
X001388Y016487D02*
X000460Y016487D01*
X000460Y016645D02*
X000931Y016645D01*
X001149Y016645D02*
X001229Y016645D01*
X001591Y016962D02*
X002310Y016962D01*
X002272Y017121D02*
X001570Y017121D01*
X001570Y017279D02*
X002280Y017279D01*
X002337Y017438D02*
X001504Y017438D01*
X001367Y017596D02*
X002466Y017596D01*
X002800Y017596D02*
X002840Y017596D01*
X002840Y017724D02*
X002840Y017194D01*
X003370Y017194D01*
X003370Y017217D01*
X003356Y017303D01*
X003330Y017385D01*
X003290Y017462D01*
X003240Y017532D01*
X003178Y017593D01*
X003108Y017644D01*
X003031Y017683D01*
X002949Y017710D01*
X002863Y017724D01*
X002840Y017724D01*
X002840Y017438D02*
X002800Y017438D01*
X002800Y017279D02*
X002840Y017279D01*
X002840Y017121D02*
X002800Y017121D01*
X002800Y016962D02*
X002840Y016962D01*
X002840Y016804D02*
X002800Y016804D01*
X002667Y016645D02*
X001908Y016645D01*
X002066Y016487D02*
X002358Y016487D01*
X002412Y016804D02*
X001749Y016804D01*
X000660Y016804D02*
X000460Y016804D01*
X000460Y016962D02*
X000554Y016962D01*
X000510Y017121D02*
X000460Y017121D01*
X000460Y017279D02*
X000510Y017279D01*
X000460Y017438D02*
X000576Y017438D01*
X000460Y017596D02*
X000713Y017596D01*
X000460Y017755D02*
X011315Y017755D01*
X011315Y017913D02*
X000460Y017913D01*
X000460Y018072D02*
X011315Y018072D01*
X011315Y018230D02*
X000460Y018230D01*
X000460Y018389D02*
X011315Y018389D01*
X011315Y018547D02*
X000460Y018547D01*
X000460Y018706D02*
X011315Y018706D01*
X011315Y018864D02*
X000460Y018864D01*
X000460Y019023D02*
X011315Y019023D01*
X011315Y019181D02*
X000460Y019181D01*
X000460Y019340D02*
X000684Y019340D01*
X000740Y019284D02*
X000935Y019204D01*
X001145Y019204D01*
X001340Y019284D01*
X001489Y019434D01*
X001570Y019628D01*
X001570Y019839D01*
X001489Y020034D01*
X001340Y020183D01*
X001145Y020264D01*
X000935Y020264D01*
X000740Y020183D01*
X000591Y020034D01*
X000510Y019839D01*
X000510Y019628D01*
X000591Y019434D01*
X000740Y019284D01*
X000564Y019498D02*
X000460Y019498D01*
X000460Y019657D02*
X000510Y019657D01*
X000510Y019815D02*
X000460Y019815D01*
X000460Y019974D02*
X000566Y019974D01*
X000460Y020132D02*
X000689Y020132D01*
X000460Y020291D02*
X011537Y020291D01*
X011562Y020317D02*
X011442Y020196D01*
X011377Y020039D01*
X011377Y019869D01*
X011378Y019866D01*
X011352Y019840D01*
X011315Y019752D01*
X011315Y013693D01*
X011312Y013692D01*
X011192Y013571D01*
X011127Y013414D01*
X011127Y013244D01*
X011192Y013086D01*
X011312Y012966D01*
X011470Y012901D01*
X011640Y012901D01*
X011680Y012917D01*
X011627Y012789D01*
X011627Y012619D01*
X011692Y012461D01*
X011812Y012341D01*
X011970Y012276D01*
X012140Y012276D01*
X012298Y012341D01*
X012418Y012461D01*
X012483Y012619D01*
X012483Y012789D01*
X012418Y012946D01*
X012298Y013067D01*
X012295Y013068D01*
X012295Y013656D01*
X012295Y013752D01*
X012258Y013840D01*
X012170Y013928D01*
X012170Y018788D01*
X012298Y018841D01*
X012418Y018961D01*
X012483Y019119D01*
X012483Y019289D01*
X012418Y019446D01*
X012298Y019567D01*
X012140Y019632D01*
X012089Y019632D01*
X012168Y019711D01*
X012233Y019869D01*
X012233Y020039D01*
X012168Y020196D01*
X012048Y020317D01*
X011890Y020382D01*
X011720Y020382D01*
X011562Y020317D01*
X011416Y020132D02*
X003199Y020132D01*
X003178Y020153D02*
X003108Y020204D01*
X003031Y020243D01*
X002949Y020270D01*
X002863Y020284D01*
X002840Y020284D01*
X002840Y019754D01*
X002800Y019754D01*
X002800Y020284D01*
X002777Y020284D01*
X002691Y020270D01*
X002609Y020243D01*
X002532Y020204D01*
X002462Y020153D01*
X002400Y020092D01*
X002350Y020022D01*
X002310Y019945D01*
X002284Y019863D01*
X002270Y019777D01*
X002270Y019754D01*
X002800Y019754D01*
X002800Y019714D01*
X002270Y019714D01*
X002270Y019690D01*
X002284Y019605D01*
X002310Y019523D01*
X002350Y019446D01*
X002400Y019375D01*
X002462Y019314D01*
X002532Y019263D01*
X002609Y019224D01*
X002691Y019197D01*
X002777Y019184D01*
X002800Y019184D01*
X002800Y019714D01*
X002840Y019714D01*
X002840Y019754D01*
X003370Y019754D01*
X003370Y019777D01*
X003356Y019863D01*
X003330Y019945D01*
X003290Y020022D01*
X003240Y020092D01*
X003178Y020153D01*
X003315Y019974D02*
X011377Y019974D01*
X011341Y019815D02*
X003364Y019815D01*
X003370Y019714D02*
X002840Y019714D01*
X002840Y019184D01*
X002863Y019184D01*
X002949Y019197D01*
X003031Y019224D01*
X003108Y019263D01*
X003178Y019314D01*
X003240Y019375D01*
X003290Y019446D01*
X003330Y019523D01*
X003356Y019605D01*
X003370Y019690D01*
X003370Y019714D01*
X003365Y019657D02*
X011315Y019657D01*
X011315Y019498D02*
X003317Y019498D01*
X003204Y019340D02*
X011315Y019340D01*
X011555Y019704D02*
X011805Y019954D01*
X011555Y019704D02*
X011555Y013329D01*
X011279Y013000D02*
X000460Y013000D01*
X000460Y013158D02*
X011162Y013158D01*
X011127Y013317D02*
X000460Y013317D01*
X000460Y013475D02*
X011152Y013475D01*
X011255Y013634D02*
X000460Y013634D01*
X000460Y013792D02*
X011315Y013792D01*
X011315Y013951D02*
X000460Y013951D01*
X000460Y014109D02*
X011315Y014109D01*
X011315Y014268D02*
X000460Y014268D01*
X000460Y014426D02*
X011315Y014426D01*
X011315Y014585D02*
X000460Y014585D01*
X000460Y014743D02*
X011315Y014743D01*
X011315Y014902D02*
X003483Y014902D01*
X003584Y015060D02*
X011315Y015060D01*
X011315Y015219D02*
X003608Y015219D01*
X003572Y015377D02*
X011315Y015377D01*
X011315Y015536D02*
X006226Y015536D01*
X006055Y015704D02*
X006430Y016079D01*
X006620Y015694D02*
X011315Y015694D01*
X011315Y015853D02*
X006800Y015853D01*
X006858Y016011D02*
X011315Y016011D01*
X011315Y016170D02*
X006856Y016170D01*
X006786Y016328D02*
X011315Y016328D01*
X011315Y016804D02*
X003228Y016804D01*
X003330Y016962D02*
X011315Y016962D01*
X011315Y017121D02*
X003368Y017121D01*
X003360Y017279D02*
X011315Y017279D01*
X011315Y017438D02*
X003303Y017438D01*
X003174Y017596D02*
X011315Y017596D01*
X012170Y017596D02*
X014770Y017596D01*
X014770Y017438D02*
X012170Y017438D01*
X012170Y017279D02*
X014770Y017279D01*
X014770Y017121D02*
X012170Y017121D01*
X012170Y016962D02*
X014770Y016962D01*
X014770Y016804D02*
X012170Y016804D01*
X012170Y016645D02*
X014770Y016645D01*
X014770Y016487D02*
X012170Y016487D01*
X012170Y016328D02*
X014770Y016328D01*
X014770Y016170D02*
X012170Y016170D01*
X012170Y016011D02*
X014770Y016011D01*
X014770Y015853D02*
X012170Y015853D01*
X012170Y015694D02*
X014770Y015694D01*
X014770Y015536D02*
X012170Y015536D01*
X012170Y015377D02*
X014770Y015377D01*
X014770Y015219D02*
X012170Y015219D01*
X012170Y015060D02*
X014770Y015060D01*
X014770Y014902D02*
X012170Y014902D01*
X012170Y014743D02*
X014770Y014743D01*
X014770Y014585D02*
X012170Y014585D01*
X012170Y014426D02*
X014770Y014426D01*
X014770Y014268D02*
X012170Y014268D01*
X012170Y014109D02*
X013013Y014109D01*
X013010Y014108D02*
X012876Y013974D01*
X012803Y013799D01*
X012803Y013609D01*
X012876Y013434D01*
X013010Y013300D01*
X013185Y013227D01*
X013375Y013227D01*
X013550Y013300D01*
X013680Y013429D01*
X013810Y013300D01*
X013985Y013227D01*
X014175Y013227D01*
X014350Y013300D01*
X014484Y013434D01*
X014557Y013609D01*
X014557Y013799D01*
X014484Y013974D01*
X014350Y014108D01*
X014175Y014181D01*
X013985Y014181D01*
X013810Y014108D01*
X013680Y013978D01*
X013550Y014108D01*
X013375Y014181D01*
X013185Y014181D01*
X013010Y014108D01*
X012866Y013951D02*
X012170Y013951D01*
X012278Y013792D02*
X012803Y013792D01*
X012803Y013634D02*
X012295Y013634D01*
X012295Y013475D02*
X012859Y013475D01*
X012993Y013317D02*
X012295Y013317D01*
X012295Y013158D02*
X014770Y013158D01*
X014770Y013000D02*
X012364Y013000D01*
X012461Y012841D02*
X014770Y012841D01*
X014770Y012683D02*
X012483Y012683D01*
X012444Y012524D02*
X014770Y012524D01*
X014770Y012366D02*
X012322Y012366D01*
X012055Y012704D02*
X012055Y013704D01*
X011930Y013829D01*
X011930Y019079D01*
X012055Y019204D01*
X012321Y018864D02*
X014770Y018864D01*
X014770Y018706D02*
X012170Y018706D01*
X012170Y018547D02*
X014770Y018547D01*
X014770Y018389D02*
X012170Y018389D01*
X012170Y018230D02*
X014770Y018230D01*
X014770Y018072D02*
X012170Y018072D01*
X012170Y017913D02*
X014770Y017913D01*
X014770Y017755D02*
X012170Y017755D01*
X012443Y019023D02*
X014770Y019023D01*
X014770Y019181D02*
X012483Y019181D01*
X012462Y019340D02*
X014770Y019340D01*
X014770Y019498D02*
X012366Y019498D01*
X012211Y019815D02*
X014770Y019815D01*
X014770Y019657D02*
X012113Y019657D01*
X012233Y019974D02*
X014770Y019974D01*
X014770Y020132D02*
X012194Y020132D01*
X012073Y020291D02*
X014770Y020291D01*
X014770Y020449D02*
X000460Y020449D01*
X000460Y020608D02*
X014770Y020608D01*
X014770Y020704D02*
X000460Y020704D01*
X000460Y002673D01*
X000599Y003009D01*
X000875Y003285D01*
X001235Y003434D01*
X001625Y003434D01*
X001985Y003285D01*
X002261Y003009D01*
X002410Y002649D01*
X002410Y002259D01*
X002261Y001899D01*
X001985Y001623D01*
X001625Y001474D01*
X001235Y001474D01*
X000875Y001623D01*
X000599Y001899D01*
X000460Y002235D01*
X000460Y001234D01*
X013586Y001234D01*
X013250Y001373D01*
X012974Y001649D01*
X012825Y002009D01*
X012825Y002399D01*
X012974Y002759D01*
X013250Y003035D01*
X013610Y003184D01*
X014000Y003184D01*
X014360Y003035D01*
X014636Y002759D01*
X014770Y002435D01*
X014770Y020704D01*
X014770Y014109D02*
X014347Y014109D01*
X014494Y013951D02*
X014770Y013951D01*
X014770Y013792D02*
X014557Y013792D01*
X014557Y013634D02*
X014770Y013634D01*
X014770Y013475D02*
X014501Y013475D01*
X014367Y013317D02*
X014770Y013317D01*
X014770Y012207D02*
X000460Y012207D01*
X000460Y012049D02*
X014770Y012049D01*
X014770Y011890D02*
X000460Y011890D01*
X000460Y011732D02*
X014770Y011732D01*
X014770Y011573D02*
X000460Y011573D01*
X000460Y011415D02*
X014770Y011415D01*
X014770Y011256D02*
X000460Y011256D01*
X000460Y011098D02*
X013400Y011098D01*
X013410Y011108D02*
X013276Y010974D01*
X013203Y010799D01*
X013203Y010609D01*
X013276Y010434D01*
X013410Y010300D01*
X013585Y010227D01*
X013775Y010227D01*
X013950Y010300D01*
X014084Y010434D01*
X014157Y010609D01*
X014157Y010799D01*
X014084Y010974D01*
X013950Y011108D01*
X013775Y011181D01*
X013585Y011181D01*
X013410Y011108D01*
X013261Y010939D02*
X000460Y010939D01*
X000460Y010781D02*
X013203Y010781D01*
X013203Y010622D02*
X000460Y010622D01*
X000460Y010464D02*
X013263Y010464D01*
X013404Y010305D02*
X000460Y010305D01*
X000460Y010147D02*
X014770Y010147D01*
X014770Y010305D02*
X013956Y010305D01*
X014097Y010464D02*
X014770Y010464D01*
X014770Y010622D02*
X014157Y010622D01*
X014157Y010781D02*
X014770Y010781D01*
X014770Y010939D02*
X014099Y010939D01*
X013960Y011098D02*
X014770Y011098D01*
X014770Y009988D02*
X000460Y009988D01*
X000460Y009830D02*
X014770Y009830D01*
X014770Y009671D02*
X000460Y009671D01*
X000460Y009513D02*
X014770Y009513D01*
X014770Y009354D02*
X000460Y009354D01*
X000460Y009196D02*
X014770Y009196D01*
X014770Y009037D02*
X000460Y009037D01*
X000460Y008879D02*
X014770Y008879D01*
X014770Y008720D02*
X000460Y008720D01*
X000460Y008562D02*
X014770Y008562D01*
X014770Y008403D02*
X000460Y008403D01*
X000460Y008245D02*
X014770Y008245D01*
X014770Y008086D02*
X000460Y008086D01*
X000460Y007928D02*
X014770Y007928D01*
X014770Y007769D02*
X000460Y007769D01*
X000460Y007611D02*
X014770Y007611D01*
X014770Y007452D02*
X000460Y007452D01*
X000460Y007294D02*
X014770Y007294D01*
X014770Y007135D02*
X008531Y007135D01*
X008517Y007141D02*
X008343Y007141D01*
X008182Y007074D01*
X008059Y006951D01*
X007993Y006791D01*
X007993Y006617D01*
X008059Y006456D01*
X008182Y006333D01*
X008343Y006267D01*
X008517Y006267D01*
X008678Y006333D01*
X008801Y006456D01*
X008867Y006617D01*
X008867Y006791D01*
X008801Y006951D01*
X008678Y007074D01*
X008517Y007141D01*
X008329Y007135D02*
X007531Y007135D01*
X007517Y007141D02*
X007343Y007141D01*
X007182Y007074D01*
X007059Y006951D01*
X006993Y006791D01*
X006993Y006617D01*
X007059Y006456D01*
X007182Y006333D01*
X007343Y006267D01*
X007517Y006267D01*
X007678Y006333D01*
X007801Y006456D01*
X007867Y006617D01*
X007867Y006791D01*
X007801Y006951D01*
X007678Y007074D01*
X007517Y007141D01*
X007329Y007135D02*
X006531Y007135D01*
X006517Y007141D02*
X006343Y007141D01*
X006182Y007074D01*
X006059Y006951D01*
X005993Y006791D01*
X005993Y006617D01*
X006059Y006456D01*
X006182Y006333D01*
X006343Y006267D01*
X006517Y006267D01*
X006678Y006333D01*
X006801Y006456D01*
X006867Y006617D01*
X006867Y006791D01*
X006801Y006951D01*
X006678Y007074D01*
X006517Y007141D01*
X006329Y007135D02*
X005531Y007135D01*
X005517Y007141D02*
X005343Y007141D01*
X005182Y007074D01*
X005059Y006951D01*
X004993Y006791D01*
X004993Y006617D01*
X005059Y006456D01*
X005182Y006333D01*
X005343Y006267D01*
X005517Y006267D01*
X005678Y006333D01*
X005801Y006456D01*
X005867Y006617D01*
X005867Y006791D01*
X005801Y006951D01*
X005678Y007074D01*
X005517Y007141D01*
X005775Y006977D02*
X006085Y006977D01*
X006004Y006818D02*
X005856Y006818D01*
X005867Y006660D02*
X005993Y006660D01*
X006041Y006501D02*
X005819Y006501D01*
X005687Y006343D02*
X006173Y006343D01*
X006105Y006127D02*
X006037Y006150D01*
X005966Y006161D01*
X005939Y006161D01*
X005939Y005712D01*
X006387Y005712D01*
X006387Y005740D01*
X006376Y005811D01*
X006354Y005879D01*
X006321Y005943D01*
X006279Y006002D01*
X006228Y006052D01*
X006170Y006095D01*
X006105Y006127D01*
X006255Y006026D02*
X006634Y006026D01*
X006682Y006074D02*
X006559Y005951D01*
X006493Y005791D01*
X006493Y005617D01*
X006559Y005456D01*
X006682Y005333D01*
X006843Y005267D01*
X007017Y005267D01*
X007178Y005333D01*
X007301Y005456D01*
X007367Y005617D01*
X007367Y005791D01*
X007301Y005951D01*
X007178Y006074D01*
X007017Y006141D01*
X006843Y006141D01*
X006682Y006074D01*
X006525Y005867D02*
X006358Y005867D01*
X006387Y005695D02*
X005939Y005695D01*
X005939Y005712D01*
X005921Y005712D01*
X005921Y005695D01*
X005473Y005695D01*
X005473Y005668D01*
X005484Y005597D01*
X005506Y005528D01*
X005539Y005464D01*
X005581Y005406D01*
X005632Y005355D01*
X005690Y005313D01*
X005755Y005280D01*
X005823Y005258D01*
X005894Y005247D01*
X005921Y005247D01*
X005921Y005695D01*
X005939Y005695D01*
X005939Y005247D01*
X005966Y005247D01*
X006037Y005258D01*
X006105Y005280D01*
X006170Y005313D01*
X006228Y005355D01*
X006279Y005406D01*
X006321Y005464D01*
X006354Y005528D01*
X006376Y005597D01*
X006387Y005668D01*
X006387Y005695D01*
X006493Y005709D02*
X005939Y005709D01*
X005921Y005709D02*
X004939Y005709D01*
X004939Y005712D02*
X005387Y005712D01*
X005387Y005740D01*
X005376Y005811D01*
X005354Y005879D01*
X005321Y005943D01*
X005279Y006002D01*
X005228Y006052D01*
X005170Y006095D01*
X005105Y006127D01*
X005037Y006150D01*
X004966Y006161D01*
X004939Y006161D01*
X004939Y005712D01*
X004939Y005695D01*
X005387Y005695D01*
X005387Y005668D01*
X005376Y005597D01*
X005354Y005528D01*
X005321Y005464D01*
X005279Y005406D01*
X005228Y005355D01*
X005170Y005313D01*
X005105Y005280D01*
X005037Y005258D01*
X004966Y005247D01*
X004939Y005247D01*
X004939Y005695D01*
X004921Y005695D01*
X004473Y005695D01*
X004473Y005668D01*
X004484Y005597D01*
X004506Y005528D01*
X004539Y005464D01*
X004581Y005406D01*
X004632Y005355D01*
X004690Y005313D01*
X004755Y005280D01*
X004823Y005258D01*
X004894Y005247D01*
X004921Y005247D01*
X004921Y005695D01*
X004921Y005712D01*
X004473Y005712D01*
X004473Y005740D01*
X004484Y005811D01*
X004506Y005879D01*
X004539Y005943D01*
X004581Y006002D01*
X004632Y006052D01*
X004690Y006095D01*
X004755Y006127D01*
X004823Y006150D01*
X004894Y006161D01*
X004921Y006161D01*
X004921Y005712D01*
X004939Y005712D01*
X004921Y005709D02*
X000460Y005709D01*
X000460Y005867D02*
X004502Y005867D01*
X004605Y006026D02*
X000460Y006026D01*
X000460Y006184D02*
X011520Y006184D01*
X011520Y006026D02*
X008226Y006026D01*
X008178Y006074D02*
X008017Y006141D01*
X007843Y006141D01*
X007682Y006074D01*
X007559Y005951D01*
X007493Y005791D01*
X007493Y005617D01*
X007559Y005456D01*
X007682Y005333D01*
X007843Y005267D01*
X008017Y005267D01*
X008178Y005333D01*
X008301Y005456D01*
X008367Y005617D01*
X008367Y005791D01*
X008301Y005951D01*
X008178Y006074D01*
X008335Y005867D02*
X011520Y005867D01*
X011520Y005774D02*
X011643Y005651D01*
X011750Y005651D01*
X011720Y005621D01*
X011720Y005611D01*
X011643Y005611D01*
X011520Y005488D01*
X011520Y005007D01*
X011530Y004997D01*
X011520Y004988D01*
X011520Y004814D01*
X011566Y004767D01*
X011520Y004721D01*
X011520Y004594D01*
X011453Y004527D01*
X011453Y004086D01*
X011520Y004020D01*
X011520Y003779D01*
X011563Y003736D01*
X011520Y003693D01*
X011520Y003616D01*
X011510Y003616D01*
X011387Y003493D01*
X011387Y003319D01*
X011510Y003196D01*
X011520Y003196D01*
X011520Y003089D01*
X011530Y003079D01*
X011520Y003069D01*
X011520Y002895D01*
X011566Y002849D01*
X011520Y002802D01*
X011520Y002322D01*
X011530Y002312D01*
X011520Y002302D01*
X011520Y002128D01*
X011566Y002082D01*
X011520Y002035D01*
X011520Y001861D01*
X011643Y001738D01*
X011817Y001738D01*
X012217Y001738D01*
X012340Y001861D01*
X012340Y002035D01*
X012294Y002082D01*
X012340Y002128D01*
X012340Y002302D01*
X012331Y002312D01*
X012340Y002322D01*
X012340Y002802D01*
X012294Y002849D01*
X012340Y002895D01*
X012340Y003069D01*
X012217Y003192D01*
X012043Y003192D01*
X012007Y003156D01*
X012007Y003196D01*
X012084Y003196D01*
X012207Y003319D01*
X012207Y003656D01*
X012217Y003656D01*
X012340Y003779D01*
X012340Y004020D01*
X012217Y004143D01*
X011884Y004143D01*
X011873Y004154D01*
X011873Y004424D01*
X012217Y004424D01*
X012340Y004547D01*
X012340Y004721D01*
X012294Y004767D01*
X012340Y004814D01*
X012340Y004988D01*
X012331Y004997D01*
X012340Y005007D01*
X012340Y005755D01*
X012331Y005765D01*
X012340Y005774D01*
X012340Y006082D01*
X012274Y006148D01*
X012340Y006215D01*
X012340Y006389D01*
X012217Y006512D01*
X011940Y006512D01*
X011940Y006522D01*
X011817Y006645D01*
X011643Y006645D01*
X011520Y006522D01*
X011520Y005774D01*
X011586Y005709D02*
X008367Y005709D01*
X008340Y005550D02*
X011582Y005550D01*
X011520Y005392D02*
X008236Y005392D01*
X007624Y005392D02*
X007236Y005392D01*
X007340Y005550D02*
X007520Y005550D01*
X007493Y005709D02*
X007367Y005709D01*
X007335Y005867D02*
X007525Y005867D01*
X007634Y006026D02*
X007226Y006026D01*
X007173Y006343D02*
X006687Y006343D01*
X006819Y006501D02*
X007041Y006501D01*
X006993Y006660D02*
X006867Y006660D01*
X006856Y006818D02*
X007004Y006818D01*
X007085Y006977D02*
X006775Y006977D01*
X007687Y006343D02*
X008173Y006343D01*
X008041Y006501D02*
X007819Y006501D01*
X007867Y006660D02*
X007993Y006660D01*
X008004Y006818D02*
X007856Y006818D01*
X007775Y006977D02*
X008085Y006977D01*
X008775Y006977D02*
X014770Y006977D01*
X014770Y006818D02*
X008856Y006818D01*
X008867Y006660D02*
X014770Y006660D01*
X014770Y006501D02*
X012228Y006501D01*
X012340Y006343D02*
X014770Y006343D01*
X014770Y006184D02*
X012310Y006184D01*
X012340Y006026D02*
X014770Y006026D01*
X014770Y005867D02*
X012340Y005867D01*
X012340Y005709D02*
X014770Y005709D01*
X014770Y005550D02*
X012340Y005550D01*
X012340Y005392D02*
X014770Y005392D01*
X014770Y005233D02*
X012340Y005233D01*
X012340Y005075D02*
X014770Y005075D01*
X014770Y004916D02*
X012340Y004916D01*
X012303Y004758D02*
X014770Y004758D01*
X014770Y004599D02*
X012340Y004599D01*
X012234Y004441D02*
X014770Y004441D01*
X014770Y004282D02*
X011873Y004282D01*
X011453Y004282D02*
X000460Y004282D01*
X000460Y004124D02*
X011453Y004124D01*
X011520Y003965D02*
X009470Y003965D01*
X009451Y003984D02*
X009113Y004124D01*
X008747Y004124D01*
X008409Y003984D01*
X008150Y003725D01*
X008010Y003387D01*
X008010Y003021D01*
X008150Y002683D01*
X008409Y002424D01*
X008747Y002284D01*
X008940Y002284D01*
X008911Y002214D01*
X008889Y002131D01*
X008882Y002081D01*
X009453Y002081D01*
X009453Y001926D01*
X009607Y001926D01*
X009607Y001356D01*
X009658Y001363D01*
X009740Y001385D01*
X009819Y001417D01*
X009893Y001460D01*
X009961Y001512D01*
X010022Y001573D01*
X010074Y001641D01*
X010116Y001715D01*
X010149Y001794D01*
X010171Y001876D01*
X010178Y001926D01*
X009607Y001926D01*
X009607Y002081D01*
X010178Y002081D01*
X010171Y002131D01*
X010149Y002214D01*
X010116Y002293D01*
X010074Y002367D01*
X010022Y002435D01*
X009961Y002495D01*
X009893Y002547D01*
X009819Y002590D01*
X009740Y002623D01*
X009669Y002642D01*
X009710Y002683D01*
X009850Y003021D01*
X009850Y003387D01*
X009710Y003725D01*
X009451Y003984D01*
X009628Y003807D02*
X011520Y003807D01*
X011520Y003648D02*
X009742Y003648D01*
X009807Y003490D02*
X011387Y003490D01*
X011387Y003331D02*
X009850Y003331D01*
X009850Y003173D02*
X011520Y003173D01*
X011520Y003014D02*
X009847Y003014D01*
X009782Y002856D02*
X011560Y002856D01*
X011520Y002697D02*
X009716Y002697D01*
X009905Y002539D02*
X011520Y002539D01*
X011520Y002380D02*
X010063Y002380D01*
X010146Y002222D02*
X011520Y002222D01*
X011548Y002063D02*
X009607Y002063D01*
X009453Y002063D02*
X003907Y002063D01*
X003907Y002081D02*
X004478Y002081D01*
X004471Y002131D01*
X004449Y002214D01*
X004420Y002284D01*
X004613Y002284D01*
X004951Y002424D01*
X005210Y002683D01*
X005350Y003021D01*
X005350Y003387D01*
X005210Y003725D01*
X004951Y003984D01*
X004613Y004124D01*
X004247Y004124D01*
X003909Y003984D01*
X003650Y003725D01*
X003510Y003387D01*
X003510Y003021D01*
X003650Y002683D01*
X003691Y002642D01*
X003620Y002623D01*
X003541Y002590D01*
X003467Y002547D01*
X003399Y002495D01*
X003338Y002435D01*
X003286Y002367D01*
X003244Y002293D01*
X003211Y002214D01*
X003189Y002131D01*
X003182Y002081D01*
X003753Y002081D01*
X003753Y001926D01*
X003907Y001926D01*
X003907Y001356D01*
X003958Y001363D01*
X004040Y001385D01*
X004119Y001417D01*
X004193Y001460D01*
X004261Y001512D01*
X004322Y001573D01*
X004374Y001641D01*
X004416Y001715D01*
X004449Y001794D01*
X004471Y001876D01*
X004478Y001926D01*
X003907Y001926D01*
X003907Y002081D01*
X003753Y002063D02*
X002329Y002063D01*
X002263Y001905D02*
X003185Y001905D01*
X003182Y001926D02*
X003189Y001876D01*
X003211Y001794D01*
X003244Y001715D01*
X003286Y001641D01*
X003338Y001573D01*
X003399Y001512D01*
X003467Y001460D01*
X003541Y001417D01*
X003620Y001385D01*
X003702Y001363D01*
X003753Y001356D01*
X003753Y001926D01*
X003182Y001926D01*
X003230Y001746D02*
X002108Y001746D01*
X001900Y001588D02*
X003327Y001588D01*
X003520Y001429D02*
X000460Y001429D01*
X000460Y001271D02*
X013497Y001271D01*
X013194Y001429D02*
X009840Y001429D01*
X009607Y001429D02*
X009453Y001429D01*
X009453Y001356D02*
X009402Y001363D01*
X009320Y001385D01*
X009241Y001417D01*
X009167Y001460D01*
X009099Y001512D01*
X009038Y001573D01*
X008986Y001641D01*
X008944Y001715D01*
X008911Y001794D01*
X008889Y001876D01*
X008882Y001926D01*
X009453Y001926D01*
X009453Y001356D01*
X009453Y001588D02*
X009607Y001588D01*
X009607Y001746D02*
X009453Y001746D01*
X009453Y001905D02*
X009607Y001905D01*
X010033Y001588D02*
X013035Y001588D01*
X012934Y001746D02*
X012225Y001746D01*
X012340Y001905D02*
X012868Y001905D01*
X012825Y002063D02*
X012312Y002063D01*
X012340Y002222D02*
X012825Y002222D01*
X012825Y002380D02*
X012340Y002380D01*
X012340Y002539D02*
X012883Y002539D01*
X012949Y002697D02*
X012340Y002697D01*
X012301Y002856D02*
X013071Y002856D01*
X013230Y003014D02*
X012340Y003014D01*
X012237Y003173D02*
X013584Y003173D01*
X014026Y003173D02*
X014770Y003173D01*
X014770Y003331D02*
X012207Y003331D01*
X012207Y003490D02*
X014770Y003490D01*
X014770Y003648D02*
X012207Y003648D01*
X012340Y003807D02*
X014770Y003807D01*
X014770Y003965D02*
X012340Y003965D01*
X012237Y004124D02*
X014770Y004124D01*
X014770Y003014D02*
X014380Y003014D01*
X014539Y002856D02*
X014770Y002856D01*
X014770Y002697D02*
X014661Y002697D01*
X014727Y002539D02*
X014770Y002539D01*
X012024Y003173D02*
X012007Y003173D01*
X011520Y001905D02*
X010175Y001905D01*
X010130Y001746D02*
X011635Y001746D01*
X011453Y004441D02*
X000460Y004441D01*
X000460Y004599D02*
X011520Y004599D01*
X011557Y004758D02*
X000460Y004758D01*
X000460Y004916D02*
X011520Y004916D01*
X011520Y005075D02*
X000460Y005075D01*
X000460Y005233D02*
X011520Y005233D01*
X011520Y006343D02*
X008687Y006343D01*
X008819Y006501D02*
X011520Y006501D01*
X008914Y002222D02*
X004446Y002222D01*
X004475Y001905D02*
X008885Y001905D01*
X008930Y001746D02*
X004430Y001746D01*
X004333Y001588D02*
X009027Y001588D01*
X009220Y001429D02*
X004140Y001429D01*
X003907Y001429D02*
X003753Y001429D01*
X003753Y001588D02*
X003907Y001588D01*
X003907Y001746D02*
X003753Y001746D01*
X003753Y001905D02*
X003907Y001905D01*
X003455Y002539D02*
X002410Y002539D01*
X002410Y002380D02*
X003297Y002380D01*
X003214Y002222D02*
X002395Y002222D01*
X002390Y002697D02*
X003644Y002697D01*
X003578Y002856D02*
X002324Y002856D01*
X002255Y003014D02*
X003513Y003014D01*
X003510Y003173D02*
X002097Y003173D01*
X001872Y003331D02*
X003510Y003331D01*
X003553Y003490D02*
X000460Y003490D01*
X000460Y003648D02*
X003618Y003648D01*
X003732Y003807D02*
X000460Y003807D01*
X000460Y003965D02*
X003890Y003965D01*
X004846Y002380D02*
X008514Y002380D01*
X008294Y002539D02*
X005066Y002539D01*
X005216Y002697D02*
X008144Y002697D01*
X008078Y002856D02*
X005282Y002856D01*
X005347Y003014D02*
X008013Y003014D01*
X008010Y003173D02*
X005350Y003173D01*
X005350Y003331D02*
X008010Y003331D01*
X008053Y003490D02*
X005307Y003490D01*
X005242Y003648D02*
X008118Y003648D01*
X008232Y003807D02*
X005128Y003807D01*
X004970Y003965D02*
X008390Y003965D01*
X006624Y005392D02*
X006265Y005392D01*
X006361Y005550D02*
X006520Y005550D01*
X005939Y005550D02*
X005921Y005550D01*
X005921Y005392D02*
X005939Y005392D01*
X005921Y005712D02*
X005473Y005712D01*
X005473Y005740D01*
X005484Y005811D01*
X005506Y005879D01*
X005539Y005943D01*
X005581Y006002D01*
X005632Y006052D01*
X005690Y006095D01*
X005755Y006127D01*
X005823Y006150D01*
X005894Y006161D01*
X005921Y006161D01*
X005921Y005712D01*
X005921Y005867D02*
X005939Y005867D01*
X005939Y006026D02*
X005921Y006026D01*
X005605Y006026D02*
X005255Y006026D01*
X005358Y005867D02*
X005502Y005867D01*
X005499Y005550D02*
X005361Y005550D01*
X005265Y005392D02*
X005595Y005392D01*
X004939Y005392D02*
X004921Y005392D01*
X004921Y005550D02*
X004939Y005550D01*
X004921Y005867D02*
X004939Y005867D01*
X004939Y006026D02*
X004921Y006026D01*
X005173Y006343D02*
X000460Y006343D01*
X000460Y006501D02*
X005041Y006501D01*
X004993Y006660D02*
X000460Y006660D01*
X000460Y006818D02*
X005004Y006818D01*
X005085Y006977D02*
X000460Y006977D01*
X000460Y007135D02*
X005329Y007135D01*
X004499Y005550D02*
X000460Y005550D01*
X000460Y005392D02*
X004595Y005392D01*
X000988Y003331D02*
X000460Y003331D01*
X000460Y003173D02*
X000763Y003173D01*
X000605Y003014D02*
X000460Y003014D01*
X000460Y002856D02*
X000536Y002856D01*
X000470Y002697D02*
X000460Y002697D01*
X000460Y002222D02*
X000465Y002222D01*
X000460Y002063D02*
X000531Y002063D01*
X000597Y001905D02*
X000460Y001905D01*
X000460Y001746D02*
X000752Y001746D01*
X000960Y001588D02*
X000460Y001588D01*
X000460Y012366D02*
X011788Y012366D01*
X011666Y012524D02*
X000460Y012524D01*
X000460Y012683D02*
X011627Y012683D01*
X011649Y012841D02*
X000460Y012841D01*
X001396Y019340D02*
X002436Y019340D01*
X002323Y019498D02*
X001516Y019498D01*
X001570Y019657D02*
X002275Y019657D01*
X002276Y019815D02*
X001570Y019815D01*
X001514Y019974D02*
X002325Y019974D01*
X002441Y020132D02*
X001391Y020132D01*
X002800Y020132D02*
X002840Y020132D01*
X002840Y019974D02*
X002800Y019974D01*
X002800Y019815D02*
X002840Y019815D01*
X002840Y019657D02*
X002800Y019657D01*
X002800Y019498D02*
X002840Y019498D01*
X002840Y019340D02*
X002800Y019340D01*
X013547Y014109D02*
X013813Y014109D01*
X013793Y013317D02*
X013567Y013317D01*
D16*
X014430Y012891D03*
X014368Y014516D03*
X013243Y014579D03*
X012368Y014829D03*
X012368Y014079D03*
X013180Y016391D03*
X013305Y017704D03*
X014368Y018766D03*
X013493Y020016D03*
X012743Y020516D03*
X009930Y019579D03*
X009680Y020391D03*
X008555Y020391D03*
X007493Y020391D03*
X006430Y020391D03*
X005368Y020391D03*
X005430Y018829D03*
X005430Y017641D03*
X005430Y016204D03*
X005680Y015266D03*
X006305Y014704D03*
X006993Y015579D03*
X007368Y016516D03*
X007805Y015579D03*
X008243Y016516D03*
X009118Y016516D03*
X009305Y015579D03*
X009930Y015579D03*
X009930Y014954D03*
X010680Y013829D03*
X010680Y012766D03*
X010993Y012016D03*
X010055Y011579D03*
X009805Y010579D03*
X009118Y009391D03*
X008680Y010829D03*
X007305Y011141D03*
X006618Y011891D03*
X006180Y012766D03*
X004930Y012329D03*
X005118Y010829D03*
X003743Y008954D03*
X002930Y010329D03*
X001993Y012704D03*
X001930Y014266D03*
X000868Y014266D03*
X001430Y016141D03*
X001618Y017641D03*
X000868Y018766D03*
X000868Y020516D03*
X002680Y018704D03*
X003243Y017954D03*
X003368Y016516D03*
X003180Y014579D03*
X003618Y013954D03*
X003180Y012954D03*
X000930Y012079D03*
X000930Y010391D03*
X001368Y008641D03*
X000868Y006704D03*
X000930Y003829D03*
X002618Y001641D03*
X006055Y007891D03*
X006930Y007266D03*
X007805Y007829D03*
X009055Y007766D03*
X009055Y006266D03*
X010805Y006266D03*
X010993Y005516D03*
X011055Y003641D03*
X012430Y001641D03*
X014243Y003641D03*
X014305Y006016D03*
X014368Y007516D03*
X014243Y009079D03*
X013180Y010016D03*
X011993Y009391D03*
X010680Y007766D03*
X012680Y005704D03*
X008993Y014579D03*
X009930Y016516D03*
X009930Y017829D03*
X009930Y018641D03*
X007368Y014579D03*
X006430Y016891D03*
X006430Y017641D03*
X006430Y018829D03*
X003368Y020391D03*
X006618Y009141D03*
X006805Y001641D03*
X014368Y016391D03*
D17*
X012055Y019204D03*
X011805Y019954D03*
X011555Y013329D03*
X012055Y012704D03*
X006430Y016079D03*
X003180Y015204D03*
X002680Y016204D03*
M02*
