G75*
%MOIN*%
%OFA0B0*%
%FSLAX24Y24*%
%IPPOS*%
%LPD*%
%AMOC8*
5,1,8,0,0,1.08239X$1,22.5*
%
%ADD10C,0.0000*%
%ADD11C,0.0040*%
%ADD12C,0.0030*%
%ADD13C,0.0080*%
%ADD14C,0.0060*%
%ADD15R,0.0502X0.0450*%
%ADD16R,0.0492X0.0450*%
%ADD17C,0.0050*%
%ADD18C,0.0240*%
%ADD19C,0.0010*%
D10*
X000180Y000954D02*
X000180Y023325D01*
X015050Y023325D01*
X015050Y000954D01*
X000180Y000954D01*
X000730Y002454D02*
X000732Y002506D01*
X000738Y002558D01*
X000748Y002610D01*
X000761Y002660D01*
X000778Y002710D01*
X000799Y002758D01*
X000824Y002804D01*
X000852Y002848D01*
X000883Y002890D01*
X000917Y002930D01*
X000954Y002967D01*
X000994Y003001D01*
X001036Y003032D01*
X001080Y003060D01*
X001126Y003085D01*
X001174Y003106D01*
X001224Y003123D01*
X001274Y003136D01*
X001326Y003146D01*
X001378Y003152D01*
X001430Y003154D01*
X001482Y003152D01*
X001534Y003146D01*
X001586Y003136D01*
X001636Y003123D01*
X001686Y003106D01*
X001734Y003085D01*
X001780Y003060D01*
X001824Y003032D01*
X001866Y003001D01*
X001906Y002967D01*
X001943Y002930D01*
X001977Y002890D01*
X002008Y002848D01*
X002036Y002804D01*
X002061Y002758D01*
X002082Y002710D01*
X002099Y002660D01*
X002112Y002610D01*
X002122Y002558D01*
X002128Y002506D01*
X002130Y002454D01*
X002128Y002402D01*
X002122Y002350D01*
X002112Y002298D01*
X002099Y002248D01*
X002082Y002198D01*
X002061Y002150D01*
X002036Y002104D01*
X002008Y002060D01*
X001977Y002018D01*
X001943Y001978D01*
X001906Y001941D01*
X001866Y001907D01*
X001824Y001876D01*
X001780Y001848D01*
X001734Y001823D01*
X001686Y001802D01*
X001636Y001785D01*
X001586Y001772D01*
X001534Y001762D01*
X001482Y001756D01*
X001430Y001754D01*
X001378Y001756D01*
X001326Y001762D01*
X001274Y001772D01*
X001224Y001785D01*
X001174Y001802D01*
X001126Y001823D01*
X001080Y001848D01*
X001036Y001876D01*
X000994Y001907D01*
X000954Y001941D01*
X000917Y001978D01*
X000883Y002018D01*
X000852Y002060D01*
X000824Y002104D01*
X000799Y002150D01*
X000778Y002198D01*
X000761Y002248D01*
X000748Y002298D01*
X000738Y002350D01*
X000732Y002402D01*
X000730Y002454D01*
X003790Y003204D02*
X003792Y003254D01*
X003798Y003304D01*
X003808Y003353D01*
X003821Y003402D01*
X003839Y003449D01*
X003860Y003495D01*
X003884Y003538D01*
X003912Y003580D01*
X003943Y003620D01*
X003977Y003657D01*
X004014Y003691D01*
X004054Y003722D01*
X004096Y003750D01*
X004139Y003774D01*
X004185Y003795D01*
X004232Y003813D01*
X004281Y003826D01*
X004330Y003836D01*
X004380Y003842D01*
X004430Y003844D01*
X004480Y003842D01*
X004530Y003836D01*
X004579Y003826D01*
X004628Y003813D01*
X004675Y003795D01*
X004721Y003774D01*
X004764Y003750D01*
X004806Y003722D01*
X004846Y003691D01*
X004883Y003657D01*
X004917Y003620D01*
X004948Y003580D01*
X004976Y003538D01*
X005000Y003495D01*
X005021Y003449D01*
X005039Y003402D01*
X005052Y003353D01*
X005062Y003304D01*
X005068Y003254D01*
X005070Y003204D01*
X005068Y003154D01*
X005062Y003104D01*
X005052Y003055D01*
X005039Y003006D01*
X005021Y002959D01*
X005000Y002913D01*
X004976Y002870D01*
X004948Y002828D01*
X004917Y002788D01*
X004883Y002751D01*
X004846Y002717D01*
X004806Y002686D01*
X004764Y002658D01*
X004721Y002634D01*
X004675Y002613D01*
X004628Y002595D01*
X004579Y002582D01*
X004530Y002572D01*
X004480Y002566D01*
X004430Y002564D01*
X004380Y002566D01*
X004330Y002572D01*
X004281Y002582D01*
X004232Y002595D01*
X004185Y002613D01*
X004139Y002634D01*
X004096Y002658D01*
X004054Y002686D01*
X004014Y002717D01*
X003977Y002751D01*
X003943Y002788D01*
X003912Y002828D01*
X003884Y002870D01*
X003860Y002913D01*
X003839Y002959D01*
X003821Y003006D01*
X003808Y003055D01*
X003798Y003104D01*
X003792Y003154D01*
X003790Y003204D01*
X008290Y003204D02*
X008292Y003254D01*
X008298Y003304D01*
X008308Y003353D01*
X008321Y003402D01*
X008339Y003449D01*
X008360Y003495D01*
X008384Y003538D01*
X008412Y003580D01*
X008443Y003620D01*
X008477Y003657D01*
X008514Y003691D01*
X008554Y003722D01*
X008596Y003750D01*
X008639Y003774D01*
X008685Y003795D01*
X008732Y003813D01*
X008781Y003826D01*
X008830Y003836D01*
X008880Y003842D01*
X008930Y003844D01*
X008980Y003842D01*
X009030Y003836D01*
X009079Y003826D01*
X009128Y003813D01*
X009175Y003795D01*
X009221Y003774D01*
X009264Y003750D01*
X009306Y003722D01*
X009346Y003691D01*
X009383Y003657D01*
X009417Y003620D01*
X009448Y003580D01*
X009476Y003538D01*
X009500Y003495D01*
X009521Y003449D01*
X009539Y003402D01*
X009552Y003353D01*
X009562Y003304D01*
X009568Y003254D01*
X009570Y003204D01*
X009568Y003154D01*
X009562Y003104D01*
X009552Y003055D01*
X009539Y003006D01*
X009521Y002959D01*
X009500Y002913D01*
X009476Y002870D01*
X009448Y002828D01*
X009417Y002788D01*
X009383Y002751D01*
X009346Y002717D01*
X009306Y002686D01*
X009264Y002658D01*
X009221Y002634D01*
X009175Y002613D01*
X009128Y002595D01*
X009079Y002582D01*
X009030Y002572D01*
X008980Y002566D01*
X008930Y002564D01*
X008880Y002566D01*
X008830Y002572D01*
X008781Y002582D01*
X008732Y002595D01*
X008685Y002613D01*
X008639Y002634D01*
X008596Y002658D01*
X008554Y002686D01*
X008514Y002717D01*
X008477Y002751D01*
X008443Y002788D01*
X008412Y002828D01*
X008384Y002870D01*
X008360Y002913D01*
X008339Y002959D01*
X008321Y003006D01*
X008308Y003055D01*
X008298Y003104D01*
X008292Y003154D01*
X008290Y003204D01*
X013483Y010704D02*
X013485Y010731D01*
X013491Y010758D01*
X013500Y010784D01*
X013513Y010808D01*
X013529Y010831D01*
X013548Y010850D01*
X013570Y010867D01*
X013594Y010881D01*
X013619Y010891D01*
X013646Y010898D01*
X013673Y010901D01*
X013701Y010900D01*
X013728Y010895D01*
X013754Y010887D01*
X013778Y010875D01*
X013801Y010859D01*
X013822Y010841D01*
X013839Y010820D01*
X013854Y010796D01*
X013865Y010771D01*
X013873Y010745D01*
X013877Y010718D01*
X013877Y010690D01*
X013873Y010663D01*
X013865Y010637D01*
X013854Y010612D01*
X013839Y010588D01*
X013822Y010567D01*
X013801Y010549D01*
X013779Y010533D01*
X013754Y010521D01*
X013728Y010513D01*
X013701Y010508D01*
X013673Y010507D01*
X013646Y010510D01*
X013619Y010517D01*
X013594Y010527D01*
X013570Y010541D01*
X013548Y010558D01*
X013529Y010577D01*
X013513Y010600D01*
X013500Y010624D01*
X013491Y010650D01*
X013485Y010677D01*
X013483Y010704D01*
X013083Y013704D02*
X013085Y013731D01*
X013091Y013758D01*
X013100Y013784D01*
X013113Y013808D01*
X013129Y013831D01*
X013148Y013850D01*
X013170Y013867D01*
X013194Y013881D01*
X013219Y013891D01*
X013246Y013898D01*
X013273Y013901D01*
X013301Y013900D01*
X013328Y013895D01*
X013354Y013887D01*
X013378Y013875D01*
X013401Y013859D01*
X013422Y013841D01*
X013439Y013820D01*
X013454Y013796D01*
X013465Y013771D01*
X013473Y013745D01*
X013477Y013718D01*
X013477Y013690D01*
X013473Y013663D01*
X013465Y013637D01*
X013454Y013612D01*
X013439Y013588D01*
X013422Y013567D01*
X013401Y013549D01*
X013379Y013533D01*
X013354Y013521D01*
X013328Y013513D01*
X013301Y013508D01*
X013273Y013507D01*
X013246Y013510D01*
X013219Y013517D01*
X013194Y013527D01*
X013170Y013541D01*
X013148Y013558D01*
X013129Y013577D01*
X013113Y013600D01*
X013100Y013624D01*
X013091Y013650D01*
X013085Y013677D01*
X013083Y013704D01*
X013883Y013704D02*
X013885Y013731D01*
X013891Y013758D01*
X013900Y013784D01*
X013913Y013808D01*
X013929Y013831D01*
X013948Y013850D01*
X013970Y013867D01*
X013994Y013881D01*
X014019Y013891D01*
X014046Y013898D01*
X014073Y013901D01*
X014101Y013900D01*
X014128Y013895D01*
X014154Y013887D01*
X014178Y013875D01*
X014201Y013859D01*
X014222Y013841D01*
X014239Y013820D01*
X014254Y013796D01*
X014265Y013771D01*
X014273Y013745D01*
X014277Y013718D01*
X014277Y013690D01*
X014273Y013663D01*
X014265Y013637D01*
X014254Y013612D01*
X014239Y013588D01*
X014222Y013567D01*
X014201Y013549D01*
X014179Y013533D01*
X014154Y013521D01*
X014128Y013513D01*
X014101Y013508D01*
X014073Y013507D01*
X014046Y013510D01*
X014019Y013517D01*
X013994Y013527D01*
X013970Y013541D01*
X013948Y013558D01*
X013929Y013577D01*
X013913Y013600D01*
X013900Y013624D01*
X013891Y013650D01*
X013885Y013677D01*
X013883Y013704D01*
X013105Y021954D02*
X013107Y022006D01*
X013113Y022058D01*
X013123Y022110D01*
X013136Y022160D01*
X013153Y022210D01*
X013174Y022258D01*
X013199Y022304D01*
X013227Y022348D01*
X013258Y022390D01*
X013292Y022430D01*
X013329Y022467D01*
X013369Y022501D01*
X013411Y022532D01*
X013455Y022560D01*
X013501Y022585D01*
X013549Y022606D01*
X013599Y022623D01*
X013649Y022636D01*
X013701Y022646D01*
X013753Y022652D01*
X013805Y022654D01*
X013857Y022652D01*
X013909Y022646D01*
X013961Y022636D01*
X014011Y022623D01*
X014061Y022606D01*
X014109Y022585D01*
X014155Y022560D01*
X014199Y022532D01*
X014241Y022501D01*
X014281Y022467D01*
X014318Y022430D01*
X014352Y022390D01*
X014383Y022348D01*
X014411Y022304D01*
X014436Y022258D01*
X014457Y022210D01*
X014474Y022160D01*
X014487Y022110D01*
X014497Y022058D01*
X014503Y022006D01*
X014505Y021954D01*
X014503Y021902D01*
X014497Y021850D01*
X014487Y021798D01*
X014474Y021748D01*
X014457Y021698D01*
X014436Y021650D01*
X014411Y021604D01*
X014383Y021560D01*
X014352Y021518D01*
X014318Y021478D01*
X014281Y021441D01*
X014241Y021407D01*
X014199Y021376D01*
X014155Y021348D01*
X014109Y021323D01*
X014061Y021302D01*
X014011Y021285D01*
X013961Y021272D01*
X013909Y021262D01*
X013857Y021256D01*
X013805Y021254D01*
X013753Y021256D01*
X013701Y021262D01*
X013649Y021272D01*
X013599Y021285D01*
X013549Y021302D01*
X013501Y021323D01*
X013455Y021348D01*
X013411Y021376D01*
X013369Y021407D01*
X013329Y021441D01*
X013292Y021478D01*
X013258Y021518D01*
X013227Y021560D01*
X013199Y021604D01*
X013174Y021650D01*
X013153Y021698D01*
X013136Y021748D01*
X013123Y021798D01*
X013113Y021850D01*
X013107Y021902D01*
X013105Y021954D01*
X000855Y021954D02*
X000857Y022006D01*
X000863Y022058D01*
X000873Y022110D01*
X000886Y022160D01*
X000903Y022210D01*
X000924Y022258D01*
X000949Y022304D01*
X000977Y022348D01*
X001008Y022390D01*
X001042Y022430D01*
X001079Y022467D01*
X001119Y022501D01*
X001161Y022532D01*
X001205Y022560D01*
X001251Y022585D01*
X001299Y022606D01*
X001349Y022623D01*
X001399Y022636D01*
X001451Y022646D01*
X001503Y022652D01*
X001555Y022654D01*
X001607Y022652D01*
X001659Y022646D01*
X001711Y022636D01*
X001761Y022623D01*
X001811Y022606D01*
X001859Y022585D01*
X001905Y022560D01*
X001949Y022532D01*
X001991Y022501D01*
X002031Y022467D01*
X002068Y022430D01*
X002102Y022390D01*
X002133Y022348D01*
X002161Y022304D01*
X002186Y022258D01*
X002207Y022210D01*
X002224Y022160D01*
X002237Y022110D01*
X002247Y022058D01*
X002253Y022006D01*
X002255Y021954D01*
X002253Y021902D01*
X002247Y021850D01*
X002237Y021798D01*
X002224Y021748D01*
X002207Y021698D01*
X002186Y021650D01*
X002161Y021604D01*
X002133Y021560D01*
X002102Y021518D01*
X002068Y021478D01*
X002031Y021441D01*
X001991Y021407D01*
X001949Y021376D01*
X001905Y021348D01*
X001859Y021323D01*
X001811Y021302D01*
X001761Y021285D01*
X001711Y021272D01*
X001659Y021262D01*
X001607Y021256D01*
X001555Y021254D01*
X001503Y021256D01*
X001451Y021262D01*
X001399Y021272D01*
X001349Y021285D01*
X001299Y021302D01*
X001251Y021323D01*
X001205Y021348D01*
X001161Y021376D01*
X001119Y021407D01*
X001079Y021441D01*
X001042Y021478D01*
X001008Y021518D01*
X000977Y021560D01*
X000949Y021604D01*
X000924Y021650D01*
X000903Y021698D01*
X000886Y021748D01*
X000873Y021798D01*
X000863Y021850D01*
X000857Y021902D01*
X000855Y021954D01*
X013105Y002204D02*
X013107Y002256D01*
X013113Y002308D01*
X013123Y002360D01*
X013136Y002410D01*
X013153Y002460D01*
X013174Y002508D01*
X013199Y002554D01*
X013227Y002598D01*
X013258Y002640D01*
X013292Y002680D01*
X013329Y002717D01*
X013369Y002751D01*
X013411Y002782D01*
X013455Y002810D01*
X013501Y002835D01*
X013549Y002856D01*
X013599Y002873D01*
X013649Y002886D01*
X013701Y002896D01*
X013753Y002902D01*
X013805Y002904D01*
X013857Y002902D01*
X013909Y002896D01*
X013961Y002886D01*
X014011Y002873D01*
X014061Y002856D01*
X014109Y002835D01*
X014155Y002810D01*
X014199Y002782D01*
X014241Y002751D01*
X014281Y002717D01*
X014318Y002680D01*
X014352Y002640D01*
X014383Y002598D01*
X014411Y002554D01*
X014436Y002508D01*
X014457Y002460D01*
X014474Y002410D01*
X014487Y002360D01*
X014497Y002308D01*
X014503Y002256D01*
X014505Y002204D01*
X014503Y002152D01*
X014497Y002100D01*
X014487Y002048D01*
X014474Y001998D01*
X014457Y001948D01*
X014436Y001900D01*
X014411Y001854D01*
X014383Y001810D01*
X014352Y001768D01*
X014318Y001728D01*
X014281Y001691D01*
X014241Y001657D01*
X014199Y001626D01*
X014155Y001598D01*
X014109Y001573D01*
X014061Y001552D01*
X014011Y001535D01*
X013961Y001522D01*
X013909Y001512D01*
X013857Y001506D01*
X013805Y001504D01*
X013753Y001506D01*
X013701Y001512D01*
X013649Y001522D01*
X013599Y001535D01*
X013549Y001552D01*
X013501Y001573D01*
X013455Y001598D01*
X013411Y001626D01*
X013369Y001657D01*
X013329Y001691D01*
X013292Y001728D01*
X013258Y001768D01*
X013227Y001810D01*
X013199Y001854D01*
X013174Y001900D01*
X013153Y001948D01*
X013136Y001998D01*
X013123Y002048D01*
X013113Y002100D01*
X013107Y002152D01*
X013105Y002204D01*
D11*
X012282Y007049D02*
X012129Y007049D01*
X012052Y007126D01*
X011899Y007126D02*
X011822Y007049D01*
X011668Y007049D01*
X011592Y007126D01*
X011592Y007432D01*
X011668Y007509D01*
X011822Y007509D01*
X011899Y007432D01*
X012052Y007432D02*
X012129Y007509D01*
X012282Y007509D01*
X012359Y007432D01*
X012359Y007356D01*
X012282Y007279D01*
X012359Y007202D01*
X012359Y007126D01*
X012282Y007049D01*
X012282Y007279D02*
X012206Y007279D01*
X011438Y007509D02*
X011285Y007509D01*
X011362Y007509D02*
X011362Y007049D01*
X011438Y007049D02*
X011285Y007049D01*
X009993Y007434D02*
X009993Y007587D01*
X009993Y007510D02*
X009532Y007510D01*
X009532Y007434D02*
X009532Y007587D01*
X009609Y007740D02*
X009532Y007817D01*
X009532Y007971D01*
X009609Y008047D01*
X009609Y008201D02*
X009532Y008278D01*
X009532Y008431D01*
X009609Y008508D01*
X009686Y008508D01*
X009993Y008201D01*
X009993Y008508D01*
X009916Y008047D02*
X009993Y007971D01*
X009993Y007817D01*
X009916Y007740D01*
X009609Y007740D01*
X012550Y011236D02*
X012550Y011466D01*
X012626Y011543D01*
X012780Y011543D01*
X012857Y011466D01*
X012857Y011236D01*
X013010Y011236D02*
X012550Y011236D01*
X012857Y011390D02*
X013010Y011543D01*
X012933Y011697D02*
X013010Y011773D01*
X013010Y011927D01*
X012933Y012004D01*
X012857Y012004D01*
X012780Y011927D01*
X012780Y011850D01*
X012780Y011927D02*
X012703Y012004D01*
X012626Y012004D01*
X012550Y011927D01*
X012550Y011773D01*
X012626Y011697D01*
X014075Y008633D02*
X014151Y008479D01*
X014305Y008326D01*
X014305Y008556D01*
X014382Y008633D01*
X014458Y008633D01*
X014535Y008556D01*
X014535Y008403D01*
X014458Y008326D01*
X014305Y008326D01*
X014458Y008172D02*
X014535Y008096D01*
X014535Y007942D01*
X014458Y007865D01*
X014151Y007865D01*
X014075Y007942D01*
X014075Y008096D01*
X014151Y008172D01*
X013135Y015049D02*
X012675Y015049D01*
X012675Y015279D01*
X012751Y015356D01*
X012905Y015356D01*
X012982Y015279D01*
X012982Y015049D01*
X012982Y015202D02*
X013135Y015356D01*
X012905Y015509D02*
X012905Y015816D01*
X013135Y015739D02*
X012675Y015739D01*
X012905Y015509D01*
X012886Y016261D02*
X012733Y016415D01*
X012809Y016415D02*
X012579Y016415D01*
X012579Y016261D02*
X012579Y016722D01*
X012809Y016722D01*
X012886Y016645D01*
X012886Y016491D01*
X012809Y016415D01*
X013040Y016261D02*
X013347Y016568D01*
X013347Y016645D01*
X013270Y016722D01*
X013116Y016722D01*
X013040Y016645D01*
X013040Y016261D02*
X013347Y016261D01*
X012222Y018636D02*
X011915Y018636D01*
X012068Y018636D02*
X012068Y019097D01*
X011915Y018943D01*
X011761Y019020D02*
X011761Y018866D01*
X011684Y018790D01*
X011454Y018790D01*
X011608Y018790D02*
X011761Y018636D01*
X011454Y018636D02*
X011454Y019097D01*
X011684Y019097D01*
X011761Y019020D01*
X011912Y020040D02*
X011912Y020271D01*
X011989Y020347D01*
X012142Y020347D01*
X012219Y020271D01*
X012219Y020040D01*
X012373Y020040D02*
X011912Y020040D01*
X012219Y020194D02*
X012373Y020347D01*
X012296Y020501D02*
X012373Y020578D01*
X012373Y020731D01*
X012296Y020808D01*
X012142Y020808D01*
X012066Y020731D01*
X012066Y020654D01*
X012142Y020501D01*
X011912Y020501D01*
X011912Y020808D01*
X009852Y019425D02*
X009505Y019425D01*
X009505Y018905D01*
X009852Y018905D01*
X009678Y019165D02*
X009505Y019165D01*
X009336Y019252D02*
X009336Y019339D01*
X009249Y019425D01*
X009076Y019425D01*
X008989Y019339D01*
X009336Y019252D02*
X008989Y018905D01*
X009336Y018905D01*
X008820Y018905D02*
X008473Y018905D01*
X008647Y018905D02*
X008647Y019425D01*
X008473Y019252D01*
X007789Y019165D02*
X007442Y019165D01*
X006758Y019165D02*
X006671Y019078D01*
X006411Y019078D01*
X006411Y018905D02*
X006411Y019425D01*
X006671Y019425D01*
X006758Y019339D01*
X006758Y019165D01*
X006242Y019078D02*
X006242Y018992D01*
X006155Y018905D01*
X005982Y018905D01*
X005895Y018992D01*
X005727Y018905D02*
X005380Y018905D01*
X005380Y019425D01*
X005727Y019425D01*
X005895Y019339D02*
X005895Y019252D01*
X005982Y019165D01*
X006155Y019165D01*
X006242Y019078D01*
X006242Y019339D02*
X006155Y019425D01*
X005982Y019425D01*
X005895Y019339D01*
X005553Y019165D02*
X005380Y019165D01*
X004066Y021755D02*
X004153Y021842D01*
X004153Y022015D01*
X004066Y022102D01*
X003632Y022102D01*
X003806Y022270D02*
X003632Y022444D01*
X004153Y022444D01*
X004153Y022617D02*
X004153Y022270D01*
X004066Y021755D02*
X003632Y021755D01*
X003555Y012554D02*
X003555Y012247D01*
X003325Y012477D01*
X003785Y012477D01*
X003708Y012093D02*
X003785Y012016D01*
X003785Y011863D01*
X003708Y011786D01*
X003401Y011786D01*
X003325Y011863D01*
X003325Y012016D01*
X003401Y012093D01*
X003617Y011207D02*
X004078Y011207D01*
X004078Y011054D02*
X004078Y011361D01*
X003771Y011054D02*
X003617Y011207D01*
X003694Y010900D02*
X003617Y010823D01*
X003617Y010670D01*
X003694Y010593D01*
X004001Y010593D01*
X004078Y010670D01*
X004078Y010823D01*
X004001Y010900D01*
X004078Y010440D02*
X004078Y010286D01*
X004078Y010363D02*
X003617Y010363D01*
X003617Y010286D02*
X003617Y010440D01*
X002706Y007809D02*
X002706Y007349D01*
X002859Y007349D02*
X002552Y007349D01*
X002399Y007426D02*
X002322Y007349D01*
X002168Y007349D01*
X002092Y007426D01*
X002092Y007732D01*
X002168Y007809D01*
X002322Y007809D01*
X002399Y007732D01*
X002552Y007656D02*
X002706Y007809D01*
X005700Y009863D02*
X005776Y009786D01*
X006083Y009786D01*
X006160Y009863D01*
X006160Y010016D01*
X006083Y010093D01*
X006083Y010247D02*
X006160Y010247D01*
X006083Y010247D02*
X005776Y010554D01*
X005700Y010554D01*
X005700Y010247D01*
X005776Y010093D02*
X005700Y010016D01*
X005700Y009863D01*
D12*
X004728Y010093D02*
X004728Y010216D01*
X004666Y010278D01*
X004666Y010400D02*
X004604Y010400D01*
X004542Y010461D01*
X004542Y010585D01*
X004604Y010646D01*
X004666Y010646D01*
X004728Y010585D01*
X004728Y010461D01*
X004666Y010400D01*
X004542Y010461D02*
X004481Y010400D01*
X004419Y010400D01*
X004357Y010461D01*
X004357Y010585D01*
X004419Y010646D01*
X004481Y010646D01*
X004542Y010585D01*
X004419Y010278D02*
X004357Y010216D01*
X004357Y010093D01*
X004419Y010031D01*
X004666Y010031D01*
X004728Y010093D01*
X008271Y012318D02*
X008333Y012256D01*
X008456Y012256D01*
X008518Y012318D01*
X008639Y012318D02*
X008701Y012256D01*
X008824Y012256D01*
X008886Y012318D01*
X008886Y012565D01*
X008824Y012627D01*
X008701Y012627D01*
X008639Y012565D01*
X008639Y012503D01*
X008701Y012441D01*
X008886Y012441D01*
X008518Y012565D02*
X008456Y012627D01*
X008333Y012627D01*
X008271Y012565D01*
X008271Y012318D01*
X000878Y012926D02*
X000816Y012864D01*
X000569Y012864D01*
X000507Y012926D01*
X000507Y013049D01*
X000569Y013111D01*
X000631Y013232D02*
X000507Y013356D01*
X000878Y013356D01*
X000878Y013479D02*
X000878Y013232D01*
X000816Y013111D02*
X000878Y013049D01*
X000878Y012926D01*
X000816Y013600D02*
X000569Y013600D01*
X000507Y013662D01*
X000507Y013786D01*
X000569Y013847D01*
X000816Y013600D01*
X000878Y013662D01*
X000878Y013786D01*
X000816Y013847D01*
X000569Y013847D01*
X000506Y014670D02*
X000445Y014731D01*
X000445Y014855D01*
X000506Y014917D01*
X000506Y015038D02*
X000445Y015100D01*
X000445Y015223D01*
X000506Y015285D01*
X000568Y015285D01*
X000630Y015223D01*
X000692Y015285D01*
X000753Y015285D01*
X000815Y015223D01*
X000815Y015100D01*
X000753Y015038D01*
X000753Y014917D02*
X000815Y014855D01*
X000815Y014731D01*
X000753Y014670D01*
X000506Y014670D01*
X000630Y015161D02*
X000630Y015223D01*
D13*
X001530Y017254D02*
X002323Y017254D01*
X003130Y017604D02*
X003130Y019304D01*
X002335Y019654D02*
X001530Y019654D01*
X001230Y018454D02*
X001232Y018506D01*
X001238Y018558D01*
X001248Y018610D01*
X001261Y018660D01*
X001278Y018710D01*
X001299Y018758D01*
X001324Y018804D01*
X001352Y018848D01*
X001383Y018890D01*
X001417Y018930D01*
X001454Y018967D01*
X001494Y019001D01*
X001536Y019032D01*
X001580Y019060D01*
X001626Y019085D01*
X001674Y019106D01*
X001724Y019123D01*
X001774Y019136D01*
X001826Y019146D01*
X001878Y019152D01*
X001930Y019154D01*
X001982Y019152D01*
X002034Y019146D01*
X002086Y019136D01*
X002136Y019123D01*
X002186Y019106D01*
X002234Y019085D01*
X002280Y019060D01*
X002324Y019032D01*
X002366Y019001D01*
X002406Y018967D01*
X002443Y018930D01*
X002477Y018890D01*
X002508Y018848D01*
X002536Y018804D01*
X002561Y018758D01*
X002582Y018710D01*
X002599Y018660D01*
X002612Y018610D01*
X002622Y018558D01*
X002628Y018506D01*
X002630Y018454D01*
X002628Y018402D01*
X002622Y018350D01*
X002612Y018298D01*
X002599Y018248D01*
X002582Y018198D01*
X002561Y018150D01*
X002536Y018104D01*
X002508Y018060D01*
X002477Y018018D01*
X002443Y017978D01*
X002406Y017941D01*
X002366Y017907D01*
X002324Y017876D01*
X002280Y017848D01*
X002234Y017823D01*
X002186Y017802D01*
X002136Y017785D01*
X002086Y017772D01*
X002034Y017762D01*
X001982Y017756D01*
X001930Y017754D01*
X001878Y017756D01*
X001826Y017762D01*
X001774Y017772D01*
X001724Y017785D01*
X001674Y017802D01*
X001626Y017823D01*
X001580Y017848D01*
X001536Y017876D01*
X001494Y017907D01*
X001454Y017941D01*
X001417Y017978D01*
X001383Y018018D01*
X001352Y018060D01*
X001324Y018104D01*
X001299Y018150D01*
X001278Y018198D01*
X001261Y018248D01*
X001248Y018298D01*
X001238Y018350D01*
X001232Y018402D01*
X001230Y018454D01*
X000730Y019304D02*
X000730Y017604D01*
X000890Y011404D02*
X003470Y011404D01*
X003470Y010004D01*
X000890Y010004D01*
X000890Y011404D01*
X003717Y007463D02*
X003717Y000140D01*
X009643Y000140D01*
X009643Y007463D01*
X003717Y007463D01*
X007980Y008164D02*
X007980Y010744D01*
X009380Y010744D01*
X009380Y008164D01*
X007980Y008164D01*
X013536Y015509D02*
X013536Y016060D01*
X013654Y016336D02*
X013930Y016336D01*
X013694Y016572D01*
X014166Y016572D01*
X013930Y016336D01*
X014206Y016336D01*
X014324Y016060D02*
X014324Y015509D01*
X013536Y015509D01*
X013536Y016847D02*
X013536Y017399D01*
X014324Y017399D01*
X014324Y016847D01*
X014324Y017759D02*
X014324Y018310D01*
X014166Y018586D02*
X013930Y018822D01*
X013694Y018586D01*
X014166Y018586D01*
X014206Y018822D02*
X013930Y018822D01*
X013654Y018822D01*
X013536Y019097D02*
X013536Y019649D01*
X014324Y019649D01*
X014324Y019097D01*
X013536Y018310D02*
X013536Y017759D01*
X014324Y017759D01*
D14*
X002900Y004055D02*
X002900Y003628D01*
X002473Y004055D01*
X002366Y004055D01*
X002259Y003949D01*
X002259Y003735D01*
X002366Y003628D01*
X002259Y003411D02*
X002900Y002984D01*
X002900Y003411D02*
X002259Y002984D01*
D15*
X009923Y001269D03*
D16*
X003432Y001269D03*
D17*
X004491Y013846D02*
X005397Y013846D01*
X002232Y016479D02*
X001932Y016479D01*
X002082Y016479D02*
X002082Y016929D01*
X001932Y016779D01*
X001772Y016854D02*
X001697Y016929D01*
X001547Y016929D01*
X001472Y016854D01*
X001472Y016779D01*
X001547Y016704D01*
X001697Y016704D01*
X001772Y016629D01*
X001772Y016554D01*
X001697Y016479D01*
X001547Y016479D01*
X001472Y016554D01*
X004491Y020420D02*
X004491Y023294D01*
X010790Y023294D01*
X010790Y020420D01*
X010790Y013846D02*
X010121Y013846D01*
D18*
X008310Y020814D02*
X005751Y020814D01*
X005751Y021050D01*
X005751Y021090D02*
X005751Y023019D01*
X006105Y023019D01*
X006105Y021562D01*
X006499Y021562D01*
X006499Y022979D01*
X006971Y022979D01*
X006971Y021562D01*
X007444Y021562D01*
X007444Y022979D01*
X007877Y022979D01*
X007877Y021601D01*
X008310Y021601D01*
X008310Y022979D01*
X009885Y022979D01*
D19*
X014537Y018413D02*
X014688Y018413D01*
X014688Y018363D02*
X014688Y018463D01*
X014587Y018363D02*
X014537Y018413D01*
X014562Y018316D02*
X014537Y018291D01*
X014537Y018216D01*
X014688Y018216D01*
X014688Y018291D01*
X014662Y018316D01*
X014562Y018316D01*
X014537Y018169D02*
X014537Y018069D01*
X014688Y018069D01*
X014688Y018169D01*
X014612Y018119D02*
X014612Y018069D01*
X014688Y018021D02*
X014688Y017921D01*
X014537Y017921D01*
X014572Y015949D02*
X014547Y015924D01*
X014547Y015874D01*
X014572Y015849D01*
X014572Y015802D02*
X014547Y015777D01*
X014547Y015702D01*
X014698Y015702D01*
X014698Y015777D01*
X014672Y015802D01*
X014572Y015802D01*
X014698Y015849D02*
X014597Y015949D01*
X014572Y015949D01*
X014698Y015949D02*
X014698Y015849D01*
X014698Y015654D02*
X014698Y015554D01*
X014547Y015554D01*
X014547Y015654D01*
X014622Y015604D02*
X014622Y015554D01*
X014698Y015507D02*
X014698Y015407D01*
X014547Y015407D01*
M02*
